<svg width="26" height="26" viewBox="0 0 26 26" fill="none" xmlns="http://www.w3.org/2000/svg">
<path d="M0.387721 12.5793C0.387721 6.77817 4.46996 1.62163 10.1636 0.332496C17.039 -1.27892 23.9144 3.1256 25.2036 10.1084C25.9556 13.761 25.0961 17.1987 22.8402 20.2067C22.5179 20.6364 22.1956 20.6364 21.8733 20.4215C21.551 20.2066 21.551 19.7769 21.7659 19.4547C22.9476 17.9507 23.6996 16.2318 23.9144 14.4055C24.4516 10.4307 23.2699 6.993 20.2619 4.19988C18.0059 2.15875 15.3202 1.19191 12.3122 1.29934C7.04823 1.40677 2.42883 5.48901 1.5694 10.6456C0.60255 16.6615 4.36254 22.2478 10.2711 23.5369C12.9568 24.1815 15.6425 23.7518 18.1133 22.4626C18.2208 22.4626 18.2207 22.3552 18.3282 22.3552C18.6505 22.1404 19.0802 22.2478 19.295 22.5701C19.5099 22.8923 19.4025 23.2147 18.9727 23.4295C16.9316 24.6112 14.6756 25.1484 12.2048 25.0409C6.51111 24.8261 1.462 20.6364 0.387721 15.0501C0.280293 14.7278 0.28028 14.4055 0.172852 14.0833C0.387708 13.5461 0.387721 13.009 0.387721 12.5793Z" fill="url(#paint0_linear_559_3023)"/>
<path d="M15.4275 15.6945C15.4275 16.6613 15.4275 17.7356 15.4275 18.7025C15.4275 20.3139 14.2458 21.3882 12.7418 21.2808C11.4527 21.1733 10.4858 20.2065 10.4858 18.8099C10.4858 16.6613 10.4858 14.5128 10.4858 12.4717C10.4858 11.0751 11.4527 10.1083 12.8492 10.0008C14.0309 9.8934 15.2127 10.7528 15.4275 11.9345C15.535 12.1494 15.5349 12.4717 15.5349 12.6865C15.4275 13.6534 15.4275 14.7276 15.4275 15.6945ZM14.1384 15.6945C14.1384 14.7276 14.1384 13.6534 14.1384 12.6865C14.1384 12.4717 14.1384 12.2568 14.0309 12.042C13.8161 11.5048 13.1715 11.2899 12.6344 11.3974C12.0973 11.5048 11.6676 12.042 11.6676 12.5791C11.6676 14.6202 11.6676 16.7688 11.6676 18.8099C11.6676 18.9173 11.6676 19.0248 11.6676 19.1322C11.8824 19.6693 12.4195 20.099 12.9567 19.9916C13.6012 19.8842 14.0309 19.4545 14.0309 18.8099C14.1384 17.843 14.1384 16.7688 14.1384 15.6945Z" fill="url(#paint1_linear_559_3023)"/>
<path d="M12.8493 3.7702C14.2458 3.7702 15.4276 4.8445 15.3201 6.24107C15.3201 7.63763 14.2458 8.7119 12.8493 8.7119C11.4527 8.7119 10.271 7.63763 10.271 6.24107C10.3784 4.95193 11.5601 3.7702 12.8493 3.7702ZM14.1384 6.24107C14.1384 5.5965 13.6013 4.95192 12.8493 4.95192C12.2047 4.95192 11.5601 5.48907 11.5601 6.24107C11.5601 6.88563 12.0973 7.53018 12.8493 7.53018C13.6013 7.53018 14.1384 6.99306 14.1384 6.24107Z" fill="url(#paint2_linear_559_3023)"/>
<defs>
<linearGradient id="paint0_linear_559_3023" x1="0.352686" y1="12.5427" x2="25.4444" y2="12.5427" gradientUnits="userSpaceOnUse">
<stop stop-color="#247CBE"/>
<stop offset="1" stop-color="#5DA4D9"/>
</linearGradient>
<linearGradient id="paint1_linear_559_3023" x1="10.3782" y1="15.6757" x2="15.4199" y2="15.6757" gradientUnits="userSpaceOnUse">
<stop stop-color="#247CBE"/>
<stop offset="1" stop-color="#5DA4D9"/>
</linearGradient>
<linearGradient id="paint2_linear_559_3023" x1="10.3937" y1="6.28187" x2="15.4143" y2="6.28187" gradientUnits="userSpaceOnUse">
<stop stop-color="#247CBE"/>
<stop offset="1" stop-color="#5DA4D9"/>
</linearGradient>
</defs>
</svg>
