<svg width="54" height="51" viewBox="0 0 54 51" fill="none" xmlns="http://www.w3.org/2000/svg">
<path d="M33.8648 50.0875C28.3287 50.0875 23.6001 45.4742 23.4847 39.8229C23.4847 34.0562 27.9827 29.5582 33.8648 29.4429C39.5161 29.4429 44.2448 34.0562 44.2448 39.7075C44.2448 45.4742 39.6314 50.0875 33.8648 50.0875ZM33.0574 41.6682C35.2488 43.7442 37.6708 45.0129 40.5541 45.7049C40.6694 45.7049 41.0154 45.5895 41.1308 45.4742C42.5148 43.7442 43.0914 41.7836 43.0914 39.5922C43.0914 39.2462 42.9761 39.0156 42.6301 38.9002C41.3614 38.3236 40.0928 38.0929 38.8241 38.2082C36.2868 38.3236 34.4414 39.4769 33.0574 41.6682ZM32.2501 40.8609C35.0181 37.2855 38.4781 36.2476 42.8608 37.6316C42.5148 36.2476 41.9381 35.0942 41.1308 34.0562C40.9001 33.8255 40.6694 33.7102 40.4388 33.8256C39.5161 34.1716 38.4781 34.4022 37.5554 34.7482C35.0181 35.7862 32.9421 37.4009 31.2121 39.4769C31.4428 39.9382 31.9041 40.3995 32.2501 40.8609ZM39.8621 46.7429C37.0941 46.0509 34.6721 44.6669 32.5961 42.8216C32.5961 42.9369 32.4808 42.9369 32.4808 42.9369C31.7888 44.8976 31.9041 46.8582 32.9421 48.7036C33.0574 48.8189 33.2881 48.9342 33.5188 48.9342C34.6721 48.9342 35.8254 48.8189 36.9788 48.3575C38.0168 48.1269 39.0548 47.5502 39.8621 46.7429ZM30.4047 38.4389C31.6734 37.0549 33.0574 35.7862 34.5567 34.8636C36.1714 33.9409 37.7861 33.2489 39.6314 32.7875C38.3628 31.2882 34.3261 30.1349 32.8267 30.7115C32.9421 32.0955 32.8267 33.3642 32.2501 34.6329C31.7887 35.9015 30.9814 36.9396 29.9434 37.8622C30.1741 38.0929 30.2894 38.2082 30.4047 38.4389ZM30.4047 40.3995C30.2894 40.5149 30.4047 40.5149 30.4047 40.3995C30.1741 40.5149 30.1741 40.6302 30.0588 40.7456C29.1361 42.1296 28.4441 43.7442 27.9827 45.3589C27.6367 46.7429 27.4061 46.5122 28.7901 47.4349C29.5974 48.0116 30.6354 48.3576 31.6734 48.7036C31.6734 48.5882 31.6734 48.5882 31.6734 48.4729C30.8661 46.3969 30.7507 44.2056 31.6734 42.1295C31.6734 42.0142 31.6734 41.7836 31.6734 41.6682C31.2121 41.3222 30.7507 40.8609 30.4047 40.3995ZM29.1361 38.5542C27.7521 39.4769 26.2527 39.9382 24.6381 39.9382C24.7534 42.1296 25.4454 44.0902 26.8294 45.8202C27.2907 43.7442 28.0981 41.8989 29.2514 40.1689C29.7127 39.3616 29.7127 39.3615 29.1361 38.5542ZM31.7888 30.8269C30.6354 31.0576 29.7127 31.5189 28.6747 32.0956C28.3287 32.3262 28.2134 32.5569 28.3287 33.0182C28.3287 33.1335 28.3287 33.2489 28.4441 33.3642C28.7901 34.5175 29.1361 35.5555 29.4821 36.8242C31.2121 35.0942 31.9041 33.1336 31.7888 30.8269ZM27.1754 33.4795C25.7914 34.9789 24.9841 36.7089 24.6381 38.7849C26.1374 38.7849 27.4061 38.3236 28.5594 37.6316C28.0981 36.1322 27.6367 34.8635 27.1754 33.4795Z" fill="white"/>
<path d="M11.836 21.3696C11.0287 21.2543 9.87537 21.139 8.9527 20.6776C6.41537 19.755 3.99337 18.717 1.45603 17.7943C0.764029 17.5636 0.648698 17.333 0.764031 16.5257C1.3407 12.3737 1.91737 8.22164 2.49403 4.06963C2.60937 3.14697 2.95536 2.91632 3.7627 3.26232C4.33937 3.49299 4.68536 3.2623 5.03136 2.9163C5.37737 2.5703 5.60803 2.57031 6.06937 2.57031C7.9147 3.03165 9.6447 3.72363 11.2594 4.6463C11.6054 4.87697 11.9514 4.87699 12.2974 4.99232C12.4127 4.99232 12.6434 4.99232 12.7587 4.99232C13.912 5.45366 14.95 4.99232 15.988 4.87698C17.372 4.76165 18.756 4.6463 20.14 4.6463C20.3707 4.6463 20.7167 4.87696 20.832 5.10763C21.178 5.68429 21.6394 5.91497 22.3314 5.79963C23.1387 5.6843 23.4847 6.03029 23.3694 6.83763C22.7927 10.9896 22.216 15.1417 21.6394 19.2937C21.524 20.101 21.4087 20.2163 20.6014 20.3317C17.8334 20.793 14.95 21.0237 11.836 21.3696ZM14.3734 7.87566C13.7967 12.0277 13.22 16.0643 12.6434 20.2163C15.296 19.9856 17.9487 19.6397 20.486 19.409C21.0627 15.257 21.6394 11.2203 22.216 7.06831C19.6787 7.29898 17.026 7.52966 14.3734 7.87566ZM3.53203 4.41565C2.95536 8.56766 2.3787 12.6043 1.80203 16.7563C4.22403 17.679 6.64604 18.717 9.18337 19.6396C9.41404 18.1403 9.6447 16.7563 9.76004 15.257C10.106 12.7197 10.452 10.1823 10.798 7.64498C10.798 7.41431 10.798 7.18365 10.5674 7.18365C8.2607 6.26098 5.95403 5.33832 3.53203 4.41565ZM11.6054 20.2163C12.182 16.0643 12.7587 12.0277 13.3354 7.87566C12.874 7.76032 12.4127 7.76031 12.0667 7.64498C11.49 11.797 10.9134 15.8337 10.3367 19.9857C10.6827 20.101 11.144 20.101 11.6054 20.2163ZM5.60803 3.83899C5.60803 3.95432 5.60803 3.9543 5.60803 4.06963C5.8387 4.18497 6.06937 4.30032 6.41537 4.41565C8.14537 5.10766 9.76004 5.79963 11.49 6.3763C11.7207 6.49164 11.9514 6.49164 12.2974 6.49164C11.7207 6.26098 11.2594 6.03029 10.6827 5.68429C9.2987 4.87696 7.79937 4.30032 6.30004 3.83899C6.06937 3.83899 5.8387 3.83899 5.60803 3.83899ZM13.3354 6.49164C13.566 6.83764 19.448 6.49165 20.2554 6.03032C20.0247 6.03032 19.9094 5.91498 19.794 5.91498C18.5254 6.03031 17.372 6.14566 16.1034 6.14566C15.1807 6.14566 14.3734 6.83764 13.3354 6.49164Z" fill="white"/>
<path d="M43.0914 20.7929C37.5554 20.7929 33.0574 16.9869 32.942 10.5282C32.8267 4.99223 37.5554 0.378906 43.0914 0.378906C48.6274 0.378906 53.3561 4.87689 53.2407 10.4129C53.2407 16.8716 48.6274 20.7929 43.0914 20.7929ZM43.0914 1.64755C38.7087 1.64755 34.0954 4.53091 33.98 10.7589C33.8647 15.7183 38.132 19.7549 43.0914 19.7549C48.0507 19.7549 52.2027 15.7183 52.2027 10.7589C52.2027 5.56891 48.2814 1.64755 43.0914 1.64755Z" fill="white"/>
<path d="M49.7808 24.2528C49.6654 25.2908 49.5501 26.2135 49.4348 27.2515C49.4348 27.7129 49.2041 27.9435 48.7428 27.8282C48.2814 27.7129 48.2814 27.4822 48.2814 27.1362C48.3968 25.8675 48.5121 24.7142 48.6274 23.4455C48.6274 23.0995 48.7428 22.7535 49.2041 22.6382C49.5501 22.6382 49.7808 22.8689 49.7808 23.4455C49.7808 23.6762 49.7808 23.9068 49.7808 24.2528Z" fill="white"/>
<path d="M21.2934 2.91621C21.178 2.68555 20.832 2.57021 20.832 2.33955C20.832 2.10888 21.0627 1.76288 21.178 1.76288C22.562 1.41688 23.946 1.18623 25.33 0.955566C25.4454 0.955566 25.9067 1.18623 25.9067 1.41689C25.9067 1.64756 25.676 1.99356 25.5607 1.99356C24.1767 2.22423 22.908 2.4549 21.524 2.68557C21.2934 2.8009 21.2934 2.80088 21.2934 2.91621Z" fill="white"/>
<path d="M4.91601 23.9072C4.91601 23.6766 4.91601 23.5612 4.91601 23.3306C4.91601 22.9846 5.14667 22.7539 5.49267 22.7539C5.83867 22.7539 6.06934 22.9846 6.06934 23.3306C6.18467 24.2532 6.18467 25.1759 6.30001 26.0986C6.30001 26.4446 6.41534 26.6752 6.41534 27.0212C6.53067 27.3672 6.41534 27.7132 5.95401 27.8286C5.49267 27.9439 5.37734 27.5979 5.262 27.2519C5.03134 26.0986 4.91601 25.0606 4.91601 23.9072Z" fill="white"/>
<path d="M29.482 0.840332C30.7507 1.071 32.1347 1.41698 33.4034 1.64764C33.7494 1.76298 33.98 1.99365 33.8647 2.33965C33.7494 2.68565 33.5187 2.80101 33.1727 2.68567C31.904 2.45501 30.6354 2.22433 29.3667 1.99367C29.0207 1.87833 28.79 1.76299 28.79 1.30166C28.79 0.955658 29.0207 0.840332 29.482 0.840332Z" fill="white"/>
<path d="M6.30002 31.1728C6.41535 31.0574 6.53068 30.7114 6.76135 30.7114C6.99202 30.7114 7.33802 30.8267 7.45335 31.0574C7.68402 31.4034 7.79935 31.8647 8.03002 32.2107C8.37602 32.9027 8.83735 33.7101 9.18335 34.4021C9.41402 34.7481 9.41402 35.0941 9.06802 35.3248C8.72202 35.5554 8.37602 35.3248 8.26069 34.9788C7.68402 33.8254 7.10735 32.7874 6.53069 31.6341C6.41535 31.5187 6.41535 31.2881 6.30002 31.1728Z" fill="white"/>
<path d="M11.1441 37.4009C11.3747 37.5162 11.4901 37.6316 11.7207 37.7469C12.6434 38.5542 13.5661 39.3616 14.3734 40.1689C14.7194 40.3996 14.8347 40.7456 14.6041 41.0916C14.3734 41.4376 14.0274 41.3222 13.6814 41.0916C12.7587 40.2842 11.7207 39.3616 10.7981 38.4389C10.6827 38.3236 10.5674 37.9776 10.6827 37.7469C10.6827 37.6316 10.9134 37.5162 11.1441 37.4009Z" fill="white"/>
<path d="M21.524 44.8973C21.2934 44.8973 21.178 44.782 21.0627 44.782C19.9094 44.3207 18.756 43.8593 17.6027 43.398C17.2567 43.2827 17.026 42.9366 17.1414 42.5906C17.372 42.2446 17.6027 42.2447 18.064 42.36C19.2174 42.8213 20.3707 43.2826 21.524 43.744C21.87 43.8593 22.1007 44.09 21.9854 44.436C21.87 44.6667 21.6394 44.782 21.524 44.8973Z" fill="white"/>
<path d="M48.2814 31.0575C48.1661 31.2882 48.1661 31.4035 48.0508 31.5189C47.4741 32.6722 47.0128 33.7102 46.4361 34.8635C46.2054 35.2095 45.9748 35.4402 45.6288 35.2095C45.1674 34.9789 45.2827 34.6329 45.5134 34.2869C46.0901 33.2489 46.5514 32.0955 47.1281 30.9422C47.2434 30.7115 47.5894 30.5962 47.7048 30.5962C48.0508 30.5962 48.1661 30.9422 48.2814 31.0575Z" fill="white"/>
<path d="M14.8347 13.2962C14.258 13.2962 14.0274 13.0656 14.0274 12.6042C14.1427 11.5662 14.258 10.4129 14.4887 9.37491C14.4887 9.14424 14.8347 8.91358 15.0654 8.91358C17.026 8.68291 18.9867 8.45225 20.9474 8.33691C21.4087 8.33691 21.7547 8.56759 21.6394 9.02892C21.524 10.0669 21.4087 11.2202 21.178 12.2582C21.178 12.4889 20.832 12.7196 20.6014 12.7196C18.756 12.9502 16.7954 13.0656 14.8347 13.2962ZM20.2554 11.6816C20.3707 10.9896 20.486 10.2976 20.486 9.49025C18.8714 9.60558 17.2567 9.83624 15.7574 9.95158C15.642 9.95158 15.5267 10.0669 15.5267 10.0669C15.4114 10.7589 15.296 11.4509 15.296 12.1429C17.026 12.0276 18.5254 11.7969 20.2554 11.6816Z" fill="white"/>
<path d="M3.07071 9.83636C3.18604 8.56769 3.41671 7.5297 3.53204 6.4917C3.64737 6.03036 3.87804 5.91504 4.33938 6.03037C6.18471 6.72237 8.03005 7.5297 9.99072 8.2217C10.2214 8.33703 10.3367 8.68304 10.3367 8.91371C10.2214 9.95171 10.106 11.105 9.87538 12.143C9.76005 12.6044 9.52938 12.7197 9.06804 12.6044C7.22271 11.9124 5.37738 11.105 3.41671 10.413C3.30138 10.1824 3.18604 9.95169 3.07071 9.83636ZM8.95271 11.2204C9.06805 10.6437 9.06805 9.95171 9.18338 9.49037C9.29871 9.14437 9.18338 9.02904 8.83738 8.91371C7.79938 8.45237 6.64604 8.10636 5.60804 7.64503C5.26204 7.5297 4.91604 7.41438 4.57004 7.29904C4.45471 7.99104 4.33938 8.56768 4.33938 9.14435C4.33938 9.25968 4.45471 9.49037 4.57004 9.49037C5.95404 10.067 7.45338 10.6437 8.95271 11.2204Z" fill="white"/>
<path d="M44.0141 10.4127C44.0141 11.1047 43.7834 11.3353 43.3221 11.566C43.0914 11.6813 42.8607 11.7967 42.63 11.912C41.8227 12.7194 41.1307 13.4114 40.4387 14.2187C40.2081 14.4494 39.862 14.68 39.516 14.4493C39.2854 14.2187 39.2854 13.8727 39.6314 13.5267C40.3234 12.8347 41.0154 12.1427 41.7074 11.4507C42.2841 10.874 42.3994 10.2974 42.0534 9.60536C41.3614 8.10603 40.7847 6.60669 40.208 4.99202C40.0927 4.76136 40.0927 4.53069 40.0927 4.41536C40.0927 4.30002 40.4387 4.06934 40.554 4.06934C40.7847 4.06934 41.0154 4.18469 41.0154 4.41536C41.2461 4.87669 41.4767 5.338 41.5921 5.79934C42.0534 6.95267 42.5147 8.10601 42.9761 9.37468C43.0914 9.60535 43.3221 9.83602 43.4374 10.0667C43.7834 10.182 44.0141 10.4127 44.0141 10.4127Z" fill="white"/>
<path d="M50.1268 10.0669H50.2421C50.8188 10.0669 51.1648 10.2976 51.0494 10.6436C51.0494 11.2202 50.5881 11.2202 50.1268 11.2202C49.8961 11.2202 49.6654 11.2202 49.4348 11.2202C49.0888 11.2202 48.8581 10.9896 48.8581 10.6436C48.8581 10.2976 49.0888 10.0669 49.4348 10.0669C49.7808 10.0669 50.0114 10.0669 50.1268 10.0669Z" fill="white"/>
<path d="M42.5147 17.6787C42.5147 16.9867 42.6301 16.6406 43.0914 16.6406C43.6681 16.756 43.6681 17.2173 43.6681 17.5633C43.6681 17.794 43.6681 17.9093 43.6681 18.14C43.6681 18.486 43.4374 18.7166 43.0914 18.7166C42.7454 18.7166 42.6301 18.486 42.5147 18.14C42.5147 17.9093 42.5147 17.794 42.5147 17.6787Z" fill="white"/>
<path d="M36.0561 11.2201C35.8254 11.2201 35.5947 11.3354 35.4794 11.2201C35.2487 11.1048 35.0181 10.8741 35.0181 10.6434C35.0181 10.4128 35.3641 10.1821 35.4794 10.1821C35.8254 10.0668 36.1714 10.1821 36.4021 10.1821C36.7481 10.1821 36.9787 10.4128 36.9787 10.7588C36.9787 11.1048 36.7481 11.3355 36.4021 11.3355C36.4021 11.2201 36.2867 11.2201 36.0561 11.2201Z" fill="white"/>
<path d="M42.5147 3.60831C42.5147 3.49297 42.5147 3.37765 42.5147 3.14698C42.5147 2.80098 42.7454 2.57031 43.0914 2.57031C43.4374 2.57031 43.6681 2.80098 43.6681 3.14698C43.6681 3.49298 43.6681 3.72363 43.6681 4.06963C43.6681 4.41563 43.4374 4.6463 43.0914 4.6463C42.7454 4.6463 42.6301 4.41563 42.6301 4.06963C42.5147 3.83897 42.5147 3.72364 42.5147 3.60831Z" fill="white"/>
</svg>
