<svg width="52" height="52" viewBox="0 0 52 52" fill="none" xmlns="http://www.w3.org/2000/svg">
<path d="M34.8996 10.0858C34.2197 9.64304 33.4401 9.37696 32.6313 9.3117C31.8226 9.24643 31.0104 9.38404 30.2683 9.71206L16.185 15.9575C15.9783 16.0476 15.7551 16.0937 15.5296 16.0929H7.84332C6.55039 16.0929 5.31042 16.6065 4.39618 17.5207C3.48194 18.435 2.96832 19.675 2.96832 20.9679V26.2979C2.96832 27.5908 3.48194 28.8308 4.39618 29.745C5.31042 30.6593 6.55039 31.1729 7.84332 31.1729H9.63624V44.4166C9.63624 45.7096 10.1499 46.9495 11.0641 47.8638C11.9783 48.778 13.2183 49.2916 14.5112 49.2916H16.5154C17.8083 49.2916 19.0483 48.778 19.9626 47.8638C20.8768 46.9495 21.3904 45.7096 21.3904 44.4166V33.6158L30.2683 37.5537C31.0107 37.8831 31.8235 38.0218 32.6331 37.9572C33.4426 37.8926 34.2232 37.6268 34.9039 37.1839C35.5847 36.7411 36.144 36.1351 36.531 35.4212C36.9181 34.7073 37.1207 33.9079 37.1204 33.0958V14.17C37.1225 13.3576 36.9202 12.5577 36.5322 11.844C36.1441 11.1302 35.5826 10.5256 34.8996 10.0858ZM6.21832 26.2979V20.9679C6.21832 20.5369 6.38953 20.1236 6.69427 19.8188C6.99902 19.5141 7.41235 19.3429 7.84332 19.3429H14.3433V27.9229H7.84332C7.41235 27.9229 6.99902 27.7517 6.69427 27.4469C6.38953 27.1422 6.21832 26.7289 6.21832 26.2979ZM18.1404 44.4166C18.1404 44.8476 17.9692 45.2609 17.6645 45.5657C17.3597 45.8704 16.9464 46.0416 16.5154 46.0416H14.5112C14.0803 46.0416 13.6669 45.8704 13.3622 45.5657C13.0574 45.2609 12.8862 44.8476 12.8862 44.4166V31.1729H15.535C15.7627 31.173 15.9878 31.221 16.1958 31.3137L18.1404 32.175V44.4166ZM33.8487 33.0958C33.8496 33.3671 33.7825 33.6342 33.6536 33.8729C33.5248 34.1116 33.3382 34.3142 33.1109 34.4623C32.8837 34.6104 32.623 34.6992 32.3526 34.7207C32.0822 34.7422 31.8107 34.6957 31.5629 34.5854L17.5879 28.3779V18.8933L31.5846 12.6858C31.832 12.5757 32.1029 12.5291 32.3729 12.5504C32.6429 12.5716 32.9032 12.66 33.1303 12.8075C33.3574 12.9549 33.5441 13.1568 33.6734 13.3948C33.8026 13.6327 33.8703 13.8992 33.8704 14.17L33.8487 33.0958Z" fill="white"/>
<path d="M40.6521 18.4167C40.9729 18.4179 41.2865 18.3216 41.5513 18.1404L48.5929 13.4334C48.7707 13.3146 48.9234 13.1619 49.0423 12.9841C49.1611 12.8063 49.2438 12.6068 49.2855 12.3971C49.3273 12.1874 49.3273 11.9714 49.2856 11.7617C49.2439 11.5519 49.1613 11.3524 49.0425 11.1746C48.9237 10.9968 48.7711 10.8441 48.5933 10.7252C48.4155 10.6064 48.216 10.5238 48.0062 10.482C47.7965 10.4403 47.5806 10.4402 47.3708 10.4819C47.1611 10.5236 46.9616 10.6062 46.7838 10.725L39.7421 15.4321C39.4478 15.6247 39.224 15.9075 39.1042 16.2381C38.9843 16.5688 38.975 16.9294 39.0776 17.2657C39.1801 17.6021 39.3891 17.8962 39.673 18.1037C39.9569 18.3112 40.3004 18.4211 40.6521 18.4167Z" fill="white"/>
<path d="M48.5713 33.854L41.5296 29.1415C41.1704 28.9016 40.7307 28.8142 40.3071 28.8985C39.8835 28.9828 39.5108 29.232 39.2708 29.5911C39.0309 29.9503 38.9435 30.39 39.0278 30.8136C39.1121 31.2372 39.3613 31.61 39.7204 31.8499L46.7621 36.557C47.1212 36.7969 47.561 36.8843 47.9846 36.8C48.4082 36.7157 48.7809 36.4665 49.0208 36.1074C49.2608 35.7482 49.3482 35.3085 49.2639 34.8849C49.1795 34.4613 48.9304 34.0885 48.5713 33.8486V33.854Z" fill="white"/>
<path d="M47.5638 22.0078H42.1471C41.7161 22.0078 41.3028 22.179 40.998 22.4838C40.6933 22.7885 40.5221 23.2018 40.5221 23.6328C40.5221 24.0638 40.6933 24.4771 40.998 24.7819C41.3028 25.0866 41.7161 25.2578 42.1471 25.2578H47.5638C47.9947 25.2578 48.4081 25.0866 48.7128 24.7819C49.0176 24.4771 49.1888 24.0638 49.1888 23.6328C49.1888 23.2018 49.0176 22.7885 48.7128 22.4838C48.4081 22.179 47.9947 22.0078 47.5638 22.0078Z" fill="white"/>
</svg>
