<svg width="52" height="47" viewBox="0 0 52 47" fill="none" xmlns="http://www.w3.org/2000/svg">
<path d="M33.0254 25.6998H18.6628" stroke="#157DBC" stroke-width="3" stroke-linecap="round"/>
<path d="M25.8442 18.5184V32.881" stroke="#157DBC" stroke-width="3" stroke-linecap="round"/>
<path d="M42.6006 18.5184H40.2068" stroke="#157DBC" stroke-width="3" stroke-linecap="round"/>
<path d="M1.90649 26.5701C1.90649 19.2351 1.90649 15.5674 3.69947 12.9328C4.47568 11.7923 5.47309 10.813 6.63476 10.0509C8.35901 8.91976 10.5177 8.51545 13.8227 8.37094C15.3998 8.37094 16.7577 7.19756 17.067 5.67915C17.531 3.40155 19.5678 1.76208 21.9335 1.76208H29.7549C32.1204 1.76208 34.1572 3.40155 34.6214 5.67915C34.9307 7.19756 36.2884 8.37094 37.8656 8.37094C41.1707 8.51545 43.3292 8.91976 45.0536 10.0509C46.2151 10.813 47.2126 11.7923 47.9889 12.9328C49.7818 15.5674 49.7818 19.2351 49.7818 26.5701C49.7818 33.9053 49.7818 37.5731 47.9889 40.2076C47.2126 41.348 46.2151 42.3273 45.0536 43.0895C42.3702 44.8499 38.6348 44.8499 31.1636 44.8499H20.5247C13.0537 44.8499 9.31817 44.8499 6.63476 43.0895C5.47309 42.3273 4.47568 41.348 3.69947 40.2076C3.19305 39.4634 2.82967 38.6369 2.56892 37.6686" stroke="#157DBC" stroke-width="3" stroke-linecap="round"/>
</svg>
