<svg width="27" height="25" viewBox="0 0 27 25" fill="none" xmlns="http://www.w3.org/2000/svg">
<path fill-rule="evenodd" clip-rule="evenodd" d="M1 9.94287V17.3947C1.00727 18.9836 1.64561 20.5046 2.77447 21.6228C3.90335 22.7411 5.4303 23.3649 7.01924 23.3572H19.0577C20.6466 23.3649 22.1736 22.7411 23.3025 21.6228C24.4314 20.5046 25.0697 18.9836 25.077 17.3947V9.94287C25.0697 8.35392 24.4314 6.83297 23.3025 5.71475C22.1736 4.59651 20.6466 3.97262 19.0577 3.9804C18.2231 3.86969 17.5101 3.32428 17.1849 2.54782C16.6516 1.58962 15.6398 0.996814 14.5433 1.00001H11.5337C10.4371 0.996814 9.42535 1.58962 8.89208 2.54782C8.5668 3.32428 7.85378 3.86969 7.01924 3.9804C5.4303 3.97262 3.90335 4.59651 2.77447 5.71475C1.64561 6.83297 1.00727 8.35392 1 9.94287Z" stroke="white" stroke-width="2" stroke-linecap="round" stroke-linejoin="round"/>
<path fill-rule="evenodd" clip-rule="evenodd" d="M13.0386 17.3948C10.985 17.3748 9.33443 15.6974 9.34798 13.6436C9.36154 11.5898 11.034 9.93421 13.0877 9.94143C15.1415 9.94865 16.8023 11.616 16.8014 13.6697C16.7964 14.6627 16.3971 15.6129 15.6915 16.3117C14.9859 17.0103 14.0316 17.3998 13.0386 17.3948Z" stroke="white" stroke-width="2" stroke-linecap="round" stroke-linejoin="round"/>
</svg>
