<svg width="63" height="47" viewBox="0 0 63 47" fill="none" xmlns="http://www.w3.org/2000/svg">
<path d="M61.1516 34.2284C60.9199 32.9288 60.6881 31.6293 60.3405 30.3297L59.2978 24.8952C58.0233 18.1611 56.7488 11.3088 55.3585 4.57475C55.1268 3.39333 54.5475 2.92073 53.3888 2.92073C51.6509 2.92073 49.913 2.92073 48.175 2.92073H44.9309L44.8151 2.56632C44.5833 1.3849 44.004 0.794189 43.3089 0.794189C42.4978 0.794189 41.8026 0.794175 41.2233 1.1486C40.9916 1.26674 40.7599 1.62119 40.5282 2.09376C40.4123 2.33004 40.2964 2.56633 40.0647 2.80262L39.9489 3.03888H30.3323L30.2165 2.68447C29.8689 1.14862 29.1737 0.912339 28.5944 0.912339C28.4785 0.912339 28.2468 0.912339 28.131 0.912339C27.5516 0.912339 26.9723 0.794175 26.6247 1.1486C26.393 1.38489 26.1613 1.73934 25.8137 2.21191C25.6979 2.44819 25.582 2.56633 25.3503 2.80262L25.2344 3.03888H15.502L15.3862 2.68447C15.0386 1.26676 14.691 0.912339 12.7213 0.912339C11.6786 0.912339 11.0992 1.50305 10.8675 2.68447L10.7517 3.03888H8.08685H2.52547C1.01927 3.03888 0.439957 3.62961 0.439957 5.16546V44.7431C0.439957 46.397 1.01928 46.9877 2.64134 46.9877H53.0413H53.1571C53.273 46.9877 53.3888 46.9877 53.5047 46.9877C54.1999 46.9877 54.7792 46.5152 55.0109 45.8063C55.0109 45.6882 55.1268 45.57 55.1268 45.4519C55.1268 45.3337 55.1268 45.3338 55.1268 45.2156L55.2426 44.8612H55.5902C56.1695 44.8612 56.633 44.8612 57.0964 44.8612C58.255 44.8612 59.4137 44.8612 60.5723 44.8612C61.1516 44.8612 61.615 44.6249 61.9626 44.2705C62.3102 43.916 62.4261 43.3253 62.3102 42.8528C62.3102 39.8992 61.7309 37.0638 61.1516 34.2284ZM41.9185 1.97561H43.7723V8.11901H41.9185V1.97561ZM44.8151 9.41855L44.6992 10.0093C44.4675 10.8363 43.7723 11.427 42.9613 11.427C42.9613 11.427 42.9613 11.427 42.8454 11.427C42.0344 11.427 41.3392 10.8363 40.9916 10.0093L40.8758 9.41855H44.8151ZM27.2041 1.97561H29.0578V8.11901H27.2041V1.97561ZM29.8689 9.41855V9.77299C29.9847 10.4818 29.4054 11.0725 28.5944 11.3088C28.4785 11.3088 28.2468 11.427 28.131 11.427C27.3199 11.427 26.6248 10.9544 26.393 10.0093L26.1613 9.41855H29.8689ZM12.4896 1.97561H14.3434V8.11901H12.4896V1.97561ZM15.3862 9.41855L15.2703 10.0093C15.0386 10.8363 14.3434 11.427 13.4165 11.427C12.6055 11.427 11.9103 10.8363 11.6786 10.0093L11.5627 9.41855H15.3862ZM54.1999 45.6882H2.06203V16.0345H54.1999V45.6882ZM54.1999 14.6168H1.94616V4.2203H11.2151V4.69286C11.2151 4.92915 11.2151 5.16545 11.2151 5.51987C11.2151 6.22872 11.2151 6.93756 10.7517 7.64642C9.94064 8.94598 10.0565 10.2456 10.9834 11.5451C11.7944 12.6084 12.8372 12.9628 14.3434 12.6084C15.1544 12.3721 15.9654 11.7814 16.313 10.8363C16.7765 9.89113 16.6606 8.70971 16.1972 7.88271C15.7337 6.93758 15.7337 5.99246 15.6179 5.16546C15.6179 5.04732 15.6179 4.81101 15.6179 4.69286V4.2203H25.9296V4.69286C25.9296 4.81101 25.9296 5.04732 25.9296 5.16546C25.9296 5.99246 25.9296 6.93757 25.4661 7.76456C24.771 9.06413 24.8868 10.3637 25.8137 11.5451C26.6248 12.4903 27.6675 12.8447 29.0578 12.4902C29.8689 12.254 30.5641 11.6633 31.0275 10.7181C31.491 9.77298 31.3751 8.7097 30.9116 7.76456C30.3323 6.70129 30.3323 5.63802 30.3323 4.4566V3.98404H40.644V4.4566C40.644 4.69288 40.644 4.92915 40.644 5.28357C40.644 5.99243 40.644 6.7013 40.1806 7.41015C39.3696 8.70972 39.4854 10.0093 40.4123 11.3088C41.2233 12.3721 42.2661 12.7265 43.7723 12.3721C44.5833 12.1358 45.3944 11.5451 45.742 10.6C46.2054 9.65483 46.0895 8.47341 45.6261 7.64642C45.1626 6.70128 45.1627 5.75616 45.1627 4.92916C45.1627 4.81102 45.1627 4.57474 45.1627 4.4566V3.98404H54.4316V14.6168H54.1999ZM55.5902 43.4435V15.9164L56.4012 15.4438L61.7309 43.4435H55.5902Z" fill="white"/>
<path d="M19.2096 41.6714H19.5572V42.0258C19.7889 43.4435 20.2523 43.7979 21.6427 43.7979H25.1185C26.1613 43.7979 27.2041 43.7979 28.3627 43.7979C30.564 43.7979 32.7654 43.7979 34.9668 43.7979C35.662 43.7979 36.0096 43.6798 36.2413 43.2072C36.3571 42.9709 36.473 42.7347 36.5889 42.3802C36.5889 42.2621 36.7047 42.0258 36.8206 41.9076L36.9364 41.6714H37.1682C38.7902 41.4351 39.7171 40.3718 39.7171 38.7178C39.7171 37.182 38.9061 36.355 37.0523 36.0005L36.7047 35.8824V35.528C36.7047 34.9373 36.7047 34.3466 36.7047 33.874C36.7047 32.5744 36.5889 31.2749 36.8206 29.9753C37.0523 28.2032 37.3999 26.3129 37.7475 24.5408C37.8633 23.7138 38.0951 22.8868 38.2109 22.1779C38.2109 22.0598 38.2109 21.9416 38.2109 21.9416C38.2109 21.7054 38.3268 21.3509 38.3268 21.2328C38.0951 19.9332 37.3999 19.1062 36.2413 18.6337C35.3144 18.2793 34.5034 18.5155 33.5765 19.4607C33.3447 19.6969 33.113 20.0514 32.7654 20.4058C32.6496 20.524 32.5337 20.7602 32.4178 20.8784L31.9544 21.4691L31.7227 20.7602C30.7958 18.6337 29.8689 18.043 28.0151 18.043C26.393 18.1611 25.4661 18.9881 24.8868 20.7602L24.6551 21.4691L24.1916 20.8784C23.9599 20.6421 23.7282 20.4058 23.6123 20.1695C23.1489 19.6969 22.8013 19.2244 22.3379 18.8699C21.6427 18.2792 20.7158 18.1611 19.7889 18.7518C18.7461 19.3425 18.1668 20.6421 18.2827 21.4691C18.3986 22.1779 18.5144 22.7687 18.6303 23.4775C18.862 25.0134 19.2096 26.5492 19.5572 28.2032C20.0206 30.2116 20.0206 32.3381 20.0206 34.3466C20.0206 34.701 20.0206 35.0554 20.0206 35.528V35.8824L19.673 36.0005C17.8192 36.355 17.0082 37.3001 17.0082 38.9541C16.6606 40.4899 17.4716 41.317 19.2096 41.6714ZM36.5889 37.4183H36.9364C37.7475 37.3001 38.3268 37.7727 38.4427 38.5997C38.5585 39.4267 38.0951 40.1355 37.0523 40.3718L36.473 40.49V37.4183H36.5889ZM35.3144 42.3802H20.8317V33.047H35.3144V42.3802ZM33.2289 21.8235C33.3447 21.7054 33.3447 21.5872 33.4606 21.4691C33.6923 21.1147 33.924 20.7602 34.1558 20.4058C34.6192 19.8151 35.3144 19.697 36.0095 19.9332C36.7047 20.2877 37.0523 20.8784 36.9364 21.5872C36.8206 22.2961 36.7047 23.0049 36.473 23.8319C36.3571 24.1863 36.3571 24.4226 36.2413 24.777L36.0095 25.6041L32.9971 22.0598L33.2289 21.8235ZM26.6247 19.9332C27.0882 19.4607 27.5516 19.2244 28.131 19.2244C28.7103 19.2244 29.2896 19.4607 29.753 19.9332L30.4482 20.6421H25.9296L26.6247 19.9332ZM23.9599 23.2412C26.393 21.4691 29.2896 21.351 31.7227 22.8868C35.0827 25.0134 35.4302 28.4394 35.3144 31.2749V31.7475H20.9475L20.8317 31.393C20.3682 28.6757 21.6427 25.0133 23.9599 23.2412ZM19.2096 21.4691C19.0937 20.7602 19.4413 20.1695 20.2523 19.8151C20.9475 19.5788 21.6427 19.697 21.9903 20.4058C22.222 20.7602 22.4537 21.1147 22.6854 21.4691C22.8013 21.5872 22.9172 21.7054 22.9172 21.8235L23.1489 22.0598L20.1365 25.7222L19.9048 24.777C19.7889 24.4226 19.7889 24.0682 19.673 23.8319C19.5572 23.1231 19.4413 22.2961 19.2096 21.4691ZM19.0937 37.3001L19.5572 37.182V40.1355H19.0937H18.9779C18.1668 40.1355 17.7034 39.6629 17.5875 38.9541C17.7034 38.1271 18.1668 37.5364 19.0937 37.3001Z" fill="white"/>
<path d="M25.1185 26.5491C26.9723 26.5491 28.942 26.5491 31.0275 26.5491C31.2592 26.5491 31.4909 26.431 31.7227 26.3128C31.8385 26.1947 31.8385 26.0765 31.8385 25.9584C31.8385 25.4858 31.2592 25.3677 31.0275 25.3677C30.3323 25.3677 29.6371 25.3677 29.0578 25.3677H28.2468C27.8992 25.3677 27.6675 25.3677 27.3199 25.3677C26.9723 25.3677 26.7406 25.3677 26.393 25.3677C26.0454 25.3677 25.582 25.3677 25.2344 25.3677C25.0027 25.3677 24.771 25.4858 24.5392 25.604C24.4234 25.7221 24.4234 25.8402 24.4234 25.9584C24.4234 26.5491 24.8868 26.5491 25.1185 26.5491Z" fill="white"/>
<path d="M25.3503 40.4897C25.9296 40.4897 26.6248 40.4897 27.2041 40.4897C27.4358 40.4897 27.7834 40.4897 28.0151 40.4897C28.2468 40.4897 28.5944 40.4897 28.8261 40.4897C29.4054 40.4897 30.1006 40.4897 30.6799 40.4897C32.1861 40.4897 33.2289 39.4264 33.2289 37.6543C33.2289 36.0003 32.1861 34.937 30.7958 34.937C29.8689 34.937 29.0579 34.937 28.0151 34.937C27.0882 34.937 26.1613 34.937 25.2344 34.937C23.7282 34.937 22.6854 36.0003 22.6854 37.6543C22.9172 39.3083 23.8441 40.4897 25.3503 40.4897ZM25.4661 36.2366C26.0454 36.2366 26.7406 36.2366 27.3199 36.2366C27.7834 36.2366 28.3627 36.2366 28.8261 36.2366C29.4054 36.2366 29.9847 36.2366 30.6799 36.2366C31.6068 36.2366 32.302 36.8273 32.302 37.7724C32.302 38.1268 32.1861 38.5994 31.9544 38.8357C31.6068 39.1901 31.2592 39.3083 30.7958 39.3083C29.8689 39.3083 29.0579 39.3083 28.131 39.3083C27.2041 39.3083 26.393 39.3083 25.582 39.3083C25.1185 39.3083 24.6551 39.1901 24.4234 38.8357C24.1916 38.5994 23.9599 38.1268 24.0758 37.7724C23.9599 36.8273 24.6551 36.2366 25.4661 36.2366Z" fill="white"/>
</svg>
