<svg width="36" height="36" viewBox="0 0 36 36" fill="none" xmlns="http://www.w3.org/2000/svg">
<path d="M7.5 15.45C7.5 14.1775 7.50058 13.2682 7.55881 12.5555C7.61634 11.8515 7.72633 11.4055 7.90872 11.0475L6.57222 10.3665C6.26414 10.9712 6.1289 11.6366 6.0638 12.4333C5.99942 13.2213 6 14.2023 6 15.45H7.5ZM7.5 17.25V15.45H6V17.25H7.5ZM6 17.25V24.75H7.5V17.25H6ZM6 24.75V27.6204H7.5V24.75H6ZM6 27.6204C6 28.89 7.53493 29.5257 8.43262 28.6281L7.37197 27.5673C7.37631 27.563 7.39218 27.552 7.41485 27.5481C7.4334 27.5448 7.44632 27.5481 7.4537 27.5511C7.46109 27.5542 7.47246 27.561 7.48332 27.5765C7.49657 27.5952 7.5 27.6143 7.5 27.6204H6ZM8.43262 28.6281L11.341 25.7196L10.2803 24.659L7.37197 27.5673L8.43262 28.6281ZM22.05 24H11.8713V25.5H22.05V24ZM26.4525 23.5912C26.0944 23.7736 25.6485 23.8836 24.9445 23.9412C24.2317 23.9994 23.3224 24 22.05 24V25.5C23.2977 25.5 24.2787 25.5006 25.0666 25.4363C25.8634 25.3712 26.5288 25.2358 27.1335 24.9277L26.4525 23.5912ZM28.0912 21.9525C27.7317 22.6581 27.1581 23.2317 26.4525 23.5912L27.1335 24.9277C28.1212 24.4245 28.9245 23.6213 29.4277 22.6335L28.0912 21.9525ZM28.5 17.55C28.5 18.8224 28.4994 19.7317 28.4412 20.4445C28.3836 21.1485 28.2736 21.5944 28.0912 21.9525L29.4277 22.6335C29.7358 22.0288 29.8711 21.3634 29.9362 20.5666C30.0006 19.7787 30 18.7977 30 17.55H28.5ZM28.5 15.45V17.55H30V15.45H28.5ZM28.0912 11.0475C28.2736 11.4055 28.3836 11.8515 28.4412 12.5555C28.4994 13.2682 28.5 14.1775 28.5 15.45H30C30 14.2023 30.0006 13.2213 29.9362 12.4333C29.8711 11.6366 29.7358 10.9712 29.4277 10.3665L28.0912 11.0475ZM26.4525 9.40872C27.1581 9.76826 27.7317 10.3419 28.0912 11.0475L29.4277 10.3665C28.9245 9.3787 28.1212 8.57555 27.1335 8.07222L26.4525 9.40872ZM22.05 9C23.3224 9 24.2317 9.00058 24.9445 9.05882C25.6485 9.11634 26.0944 9.22634 26.4525 9.40872L27.1335 8.07222C26.5288 7.76414 25.8634 7.6289 25.0666 7.5638C24.2787 7.49942 23.2977 7.5 22.05 7.5V9ZM13.95 9H22.05V7.5H13.95V9ZM9.54753 9.40872C9.90549 9.22634 10.3515 9.11634 11.0555 9.05882C11.7682 9.00058 12.6775 9 13.95 9V7.5C12.7023 7.5 11.7213 7.49942 10.9333 7.5638C10.1366 7.6289 9.47119 7.76414 8.86654 8.07222L9.54753 9.40872ZM7.90872 11.0475C8.26825 10.3419 8.84193 9.76826 9.54753 9.40872L8.86654 8.07222C7.8787 8.57555 7.07555 9.3787 6.57222 10.3665L7.90872 11.0475ZM11.341 25.7196C11.4816 25.5791 11.6724 25.5 11.8713 25.5V24C11.2746 24 10.7023 24.237 10.2803 24.659L11.341 25.7196Z" fill="#222222"/>
</svg>
