<svg width="27" height="26" viewBox="0 0 27 26" fill="none" xmlns="http://www.w3.org/2000/svg">
<path d="M25.4514 13.1923C25.3439 13.1923 25.1291 13.1923 25.0217 13.1923H24.9142C24.8068 11.6883 24.5919 10.3992 24.0548 9.11008V9.00265C25.0216 8.0358 25.1291 6.63922 24.2696 5.56494C20.5097 0.408396 13.8491 -1.41785 8.04801 1.16042C5.79202 2.12727 3.85834 3.63124 2.46177 5.67237C2.03206 6.31694 1.81718 7.06894 2.03204 7.82093C2.13946 8.35807 2.46177 8.7878 2.89148 9.11008C2.35434 10.3992 2.03204 11.7958 2.03204 13.1923H1.38749C0.957782 13.1923 0.74292 13.4072 0.74292 13.8369C0.74292 15.7706 0.74292 17.5969 0.74292 19.5306C0.74292 19.9603 0.957782 20.0677 1.38749 20.1751H1.60233C2.13947 20.1751 2.67661 20.1751 3.21375 20.1751C3.96575 20.1751 4.61033 19.5306 4.61033 18.7786C4.61033 17.382 4.61033 15.9855 4.61033 14.6963C4.61033 13.9443 3.96575 13.2998 3.21375 13.2998C3.10632 13.2998 3.10634 13.2998 2.99891 13.2998C2.99891 12.0106 3.32118 10.8289 3.75089 9.75466C3.85832 9.75466 3.85833 9.75466 3.96576 9.75466C4.18062 9.75466 4.39545 9.86208 4.71774 9.75466C5.46973 9.75466 6.22175 9.32494 6.75889 8.57294C8.90745 5.67239 12.6674 4.49067 15.9977 5.67237C17.7165 6.20951 19.1131 7.28381 20.1874 8.68038C20.7245 9.43237 21.3691 9.75466 22.2285 9.75466C22.4434 9.75466 22.6582 9.75466 22.8731 9.75466C22.9805 9.75466 22.9805 9.75466 23.0879 9.75466C23.5176 10.9364 23.8399 12.1181 23.8399 13.2998H23.6251C22.6582 13.2998 22.1211 13.8369 22.1211 14.8038C22.1211 15.2335 22.1211 15.5558 22.1211 15.9855C22.1211 16.8449 22.1211 17.5969 22.1211 18.4563C22.1211 18.9934 22.1211 19.5306 22.6582 19.9603C21.3691 21.5717 19.8651 22.7534 17.9314 23.5054V23.398C17.6091 22.5386 16.6423 22.0014 15.7828 22.1089C14.9234 22.2163 14.1714 22.8609 13.9565 23.7203C13.9565 23.8277 13.9565 24.0426 13.9565 24.15C13.9565 24.2574 13.9565 24.3648 13.9565 24.4723C13.9565 24.6871 13.9566 24.902 14.064 25.0094C14.1714 25.1168 14.2788 25.2243 14.6011 25.2243C15.8903 25.2243 16.9645 25.0094 18.1462 24.5797C20.5096 23.8277 22.3359 22.3237 23.8399 20.39C23.8399 20.39 23.9473 20.2826 24.0548 20.2826C24.3771 20.2826 24.6993 20.2826 25.1291 20.2826C25.3439 20.2826 25.4513 20.2826 25.6662 20.2826C26.0959 20.2826 26.3108 20.0677 26.3108 19.638C26.3108 17.7043 26.3108 15.878 26.3108 13.9443C25.9885 13.2998 25.7736 13.1923 25.4514 13.1923ZM24.9142 14.1592V18.9934H24.1622C23.9473 18.9934 23.6251 18.9934 23.4102 18.9934C23.1954 18.9934 23.0879 18.886 23.0879 18.6712C23.0879 17.2746 23.0879 15.878 23.0879 14.5889C23.0879 14.3741 23.1954 14.2666 23.4102 14.2666C23.6251 14.2666 23.8399 14.2666 24.0548 14.2666C24.1622 14.2666 24.3771 14.2666 24.4845 14.2666L24.9142 14.1592ZM23.7325 7.7135C23.5176 8.25064 23.0879 8.57294 22.6582 8.57294C22.0137 8.68037 21.4765 8.46551 21.0468 7.92837C20.1874 6.85409 19.2205 5.88724 18.0388 5.24267C14.816 3.41639 10.6263 3.73866 7.6183 6.10208C6.97374 6.63922 6.32915 7.28381 5.79202 8.0358C5.3623 8.57294 4.82517 8.7878 4.28803 8.68038C3.75089 8.57295 3.32117 8.25064 3.10632 7.7135C2.89146 7.28379 2.9989 6.63923 3.32118 6.20951C5.14746 3.73867 7.51088 2.12725 10.4114 1.37526C11.3783 1.1604 12.3451 0.94555 13.4194 0.94555C17.6091 1.05298 21.0468 2.77181 23.5176 6.10208C23.8399 6.53179 23.9474 7.17636 23.7325 7.7135ZM2.13947 18.9934H1.8172V14.1592C1.8172 14.1592 1.81721 14.1592 1.92463 14.1592C2.35435 14.1592 2.78404 14.1592 3.21375 14.1592C3.53603 14.1592 3.64346 14.2666 3.64346 14.5889C3.64346 15.878 3.64346 17.2746 3.64346 18.5637C3.64346 18.7786 3.53604 18.9934 3.32118 18.9934C2.89147 18.9934 2.56918 18.9934 2.13947 18.9934ZM16.9646 23.6129L14.9234 23.9351C14.9234 23.5054 15.2457 22.9683 15.6754 22.8608C15.7828 22.8608 15.7828 22.8608 15.8903 22.8608C16.32 22.8608 16.7497 23.0757 16.9646 23.6129Z" fill="url(#paint0_linear_559_3018)"/>
<defs>
<linearGradient id="paint0_linear_559_3018" x1="0.752911" y1="12.4296" x2="26.0152" y2="12.4296" gradientUnits="userSpaceOnUse">
<stop stop-color="#247CBE"/>
<stop offset="1" stop-color="#5DA4D9"/>
</linearGradient>
</defs>
</svg>
