<svg width="58" height="58" viewBox="0 0 58 58" fill="none" xmlns="http://www.w3.org/2000/svg">
<path fill-rule="evenodd" clip-rule="evenodd" d="M51.7487 39.1736L27.1875 30.8125V3.625C41.2869 3.55431 54.1738 15.7361 54.1738 30.0349C54.1738 33.7651 53.1987 36.5944 51.7487 39.1736ZM26.2812 54.375C13.7696 54.375 3.625 44.2322 3.625 31.7188C3.625 20.3181 12.5371 10.6539 23.5625 9.0625V33.4026L46.5975 41.4247C43.5326 49.1695 34.7329 54.375 26.2812 54.375ZM27.1875 0H23.5625V5.4375C10.3693 6.86756 0 18.1721 0 31.7188C0 46.2333 11.7667 58 26.2812 58C36.9859 58 46.1806 51.5892 50.2751 42.4071L54.375 43.5C56.3561 40.2466 58 35.6283 58 30.0349C58 13.4469 43.5091 0 27.1875 0Z" fill="#157DBC"/>
</svg>
