<svg width="53" height="53" viewBox="0 0 53 53" fill="none" xmlns="http://www.w3.org/2000/svg">
<rect width="53" height="53" rx="10" fill="#157DBC" fill-opacity="0.22"/>
<g clip-path="url(#clip0_178_2739)">
<path d="M17.1537 14C16.1252 14.0103 15.1347 14.3914 14.3633 15.0738C13.9279 15.4609 13.5808 15.9374 13.3456 16.4711C13.1104 17.0048 12.9925 17.583 13.0001 18.1665C13.025 19.1896 13.3905 20.175 14.0385 20.9656C14.6174 21.6617 15.258 22.3038 15.9523 22.884C17.2359 24.0428 18.1922 25.0045 18.1922 26.4968C18.1363 26.8015 18.0145 27.0903 17.8353 27.3427C17.7225 27.5171 17.5935 27.6805 17.4503 27.8307L18.943 29.2959C19.1835 29.0448 19.4009 28.7725 19.5925 28.4822C19.9364 28 20.1592 27.4417 20.242 26.8547C20.3601 27.1921 20.4731 27.5384 20.5989 27.8642C21.2102 29.5498 22.0397 31.1475 23.0659 32.6164C23.3811 33.0531 23.7397 33.4565 24.1364 33.8203C23.0917 33.8943 22.1133 34.3613 21.3972 35.1278C20.681 35.8944 20.2799 36.904 20.2741 37.9545V38.9962H32.7363V37.9545C32.7293 36.8935 32.3183 35.8753 31.5874 35.1082C30.8566 34.3411 29.8611 33.8832 28.8048 33.828C29.2113 33.4641 29.581 33.0609 29.9086 32.6242C30.9341 31.1548 31.7635 29.5571 32.3757 27.8719C32.504 27.5255 32.6388 27.156 32.7607 26.7981C32.832 27.4082 33.0554 27.9905 33.4102 28.4912C33.6018 28.7815 33.8192 29.0538 34.0597 29.3049L35.5525 27.8397C35.4092 27.6895 35.2803 27.5261 35.1674 27.3517C34.9883 27.0993 34.8665 26.8105 34.8106 26.5058C34.8106 25.0123 35.7681 24.0595 37.0504 22.893C37.7453 22.312 38.3863 21.669 38.9655 20.972C39.6135 20.1814 39.9791 19.1961 40.0039 18.1729C40.0111 17.5899 39.8931 17.0121 39.6579 16.4789C39.4227 15.9457 39.0758 15.4696 38.6408 15.0828C37.87 14.3966 36.8783 14.0121 35.8477 14C34.8418 13.9973 33.8706 14.3683 33.1214 15.0416H19.8801C19.1309 14.3682 18.1597 13.9971 17.1537 14ZM17.1537 16.0832C17.5208 16.0789 17.8814 16.1808 18.1922 16.3768C18.2616 18.7062 18.5879 21.0206 19.1651 23.278C18.615 22.5769 17.9957 21.9333 17.3168 21.357C16.7199 20.8508 16.166 20.2957 15.6609 19.6973C15.2908 19.2736 15.0837 18.7311 15.0769 18.1678C15.0658 17.8774 15.1215 17.5884 15.2397 17.3231C15.3579 17.0579 15.5354 16.8235 15.7585 16.6382C16.1463 16.298 16.6389 16.1021 17.1537 16.0832ZM35.8464 16.0832C36.3611 16.1017 36.8537 16.2972 37.2417 16.6369C37.4648 16.8222 37.6423 17.0566 37.7605 17.3218C37.8787 17.5871 37.9344 17.8761 37.9233 18.1665C37.9165 18.7299 37.7094 19.2723 37.3392 19.6961C36.8346 20.2943 36.2811 20.8494 35.6847 21.3557C34.9895 21.9492 34.3588 22.6147 33.803 23.3411C34.3994 21.0643 34.737 18.7271 34.8093 16.3742C35.1204 16.1791 35.4796 16.0781 35.8464 16.0832ZM20.3999 17.1249H32.6016C32.3839 20.5471 31.6508 23.9166 30.4272 27.1187C29.8748 28.6181 29.1333 30.0403 28.2207 31.3508C27.466 32.3602 26.7767 32.7503 26.4686 32.7503C26.1606 32.7503 25.4995 32.3641 24.7487 31.3508C23.8353 30.0408 23.0937 28.6185 22.5422 27.1187C21.3344 23.9135 20.6122 20.5448 20.3999 17.1249ZM25.4623 20.2497V25.459H27.5392V20.2497H25.4623ZM24.4239 35.8752H28.5776C28.9158 35.8894 29.2442 35.9935 29.5293 36.1767C29.8143 36.3599 30.0458 36.6158 30.2 36.9181H22.8002C22.9545 36.6156 23.1862 36.3596 23.4714 36.1764C23.7567 35.9931 24.0854 35.8892 24.4239 35.8752Z" fill="#157DBC"/>
</g>
<defs>
<clipPath id="clip0_178_2739">
<rect width="27" height="25" fill="white" transform="translate(13 14)"/>
</clipPath>
</defs>
</svg>
