<svg width="63" height="58" viewBox="0 0 63 58" fill="none" xmlns="http://www.w3.org/2000/svg">
<path d="M9.69103 3.8631e-05C7.29154 0.0238002 4.98074 0.908215 3.18096 2.49164C2.16538 3.38972 1.35565 4.49554 0.806879 5.73384C0.258107 6.97215 -0.016824 8.31387 0.000796481 9.6677C0.058865 12.0418 0.911677 14.3282 2.42335 16.1626C3.77392 17.7778 5.2683 19.2677 6.88817 20.614C9.88268 23.3028 12.1136 25.5345 12.1136 28.997C11.9832 29.7041 11.699 30.3741 11.2811 30.9598C11.0178 31.3645 10.7171 31.7436 10.3828 32.0921L13.8654 35.4919C14.4264 34.9094 14.9336 34.2774 15.3806 33.6038C16.1829 32.485 16.7027 31.1896 16.8958 29.8276C17.1713 30.6103 17.4348 31.4139 17.7283 32.1698C19.1546 36.081 21.0896 39.7884 23.4837 43.1968C24.219 44.2101 25.0558 45.146 25.9812 45.9901C23.5439 46.1618 21.2615 47.2454 19.5907 49.0241C17.92 50.8029 16.9842 53.1455 16.9707 55.5831V58H46.0444V55.5831C46.0278 53.1211 45.069 50.7585 43.364 48.9786C41.6589 47.1986 39.3366 46.136 36.8722 46.008C37.8206 45.1637 38.6832 44.228 39.4475 43.2147C41.8399 39.8053 43.7748 36.0981 45.2029 32.1877C45.5024 31.3841 45.8168 30.5266 46.1013 29.6961C46.2676 31.1118 46.7887 32.463 47.6165 33.6247C48.0635 34.2983 48.5707 34.9303 49.1317 35.5128L52.6143 32.113C52.28 31.7645 51.9793 31.3854 51.716 30.9808C51.2981 30.395 51.0139 29.725 50.8835 29.0179C50.8835 25.5524 53.1174 23.3416 56.1089 20.6349C57.7301 19.2868 59.2255 17.7949 60.5767 16.1775C62.0884 14.3431 62.9412 12.0567 62.9993 9.68263C63.016 8.32981 62.7407 6.98924 62.1919 5.75203C61.6432 4.51482 60.8339 3.40997 59.8191 2.51255C58.0208 0.920207 55.7073 0.0281507 53.3031 3.8631e-05C50.9564 -0.0063622 48.6905 0.854666 46.9427 2.41695H16.0514C14.3037 0.85442 12.0378 -0.00664606 9.69103 3.8631e-05ZM9.69103 4.83387C10.5474 4.82377 11.3885 5.06027 12.1136 5.51502C12.2757 10.92 13.0369 16.2904 14.3834 21.5282C13.1 19.9015 11.6553 18.4081 10.0713 17.0708C8.67886 15.8963 7.38676 14.6082 6.20841 13.2199C5.34481 12.2366 4.86161 10.9779 4.84591 9.67068C4.81989 8.99698 4.9498 8.32636 5.22556 7.71085C5.50132 7.09534 5.91551 6.55149 6.436 6.12149C7.34067 5.33221 8.49003 4.87755 9.69103 4.83387ZM53.3001 4.83387C54.5007 4.87671 55.65 5.33031 56.5551 6.11851C57.0756 6.5485 57.4898 7.09235 57.7655 7.70786C58.0413 8.32338 58.1712 8.994 58.1452 9.6677C58.1295 10.9749 57.6463 12.2336 56.7827 13.2169C55.6053 14.6051 54.3142 15.8932 52.9228 17.0678C51.301 18.4449 49.8295 19.9891 48.5328 21.6746C49.9242 16.3917 50.7118 10.9687 50.8805 5.50905C51.6062 5.05639 52.4443 4.82198 53.3001 4.83387ZM17.2641 7.25078H45.7299C45.2222 15.1917 43.5119 23.0101 40.6573 30.44C39.3685 33.9191 37.6386 37.2193 35.5097 40.26C33.7489 42.6023 32.1409 43.5075 31.4222 43.5075C30.7035 43.5075 29.1613 42.6112 27.4095 40.26C25.2787 37.2205 23.5487 33.92 22.262 30.44C19.4442 23.0028 17.7595 15.1862 17.2641 7.25078ZM29.0745 14.5015V26.5891H33.9196V14.5015H29.0745ZM26.6519 50.7582H36.3422C37.1313 50.7912 37.8975 51.0327 38.5625 51.4578C39.2275 51.883 39.7675 52.4766 40.1272 53.1781H22.8639C23.2239 52.4762 23.7643 51.8823 24.4299 51.4571C25.0955 51.0319 25.8623 50.7907 26.6519 50.7582Z" fill="url(#paint0_linear_178_3070)"/>
<defs>
<linearGradient id="paint0_linear_178_3070" x1="31.5" y1="0" x2="31.5" y2="58" gradientUnits="userSpaceOnUse">
<stop stop-color="#5DB3F3"/>
<stop offset="1" stop-color="#157DBC"/>
</linearGradient>
</defs>
</svg>
