<svg width="54" height="57" viewBox="0 0 54 57" fill="none" xmlns="http://www.w3.org/2000/svg">
<path d="M40.4918 0.267898C40.6078 0.499898 40.8399 0.615898 40.9559 0.847898C41.1879 1.4279 40.7238 1.89186 40.0278 1.89186C36.3158 1.89186 32.7198 1.89186 29.0078 1.89186C28.6598 1.89186 28.1958 1.8919 27.8478 2.0079C25.7598 2.3559 24.2519 4.09584 24.1359 6.29984C24.1359 9.43184 24.1359 12.5639 24.1359 15.6959C24.1359 15.9279 24.2519 16.1599 24.4839 16.2759C25.7598 17.3199 26.3398 18.7119 26.3398 20.4519C26.3398 23.3519 26.3398 26.1359 26.3398 29.0359C26.3398 29.3839 26.4559 29.7319 26.8039 29.7319C27.4999 29.8479 28.1959 30.0798 28.7759 30.0798C31.9079 30.0798 35.1558 30.0798 38.2878 30.0798C39.2158 30.0798 39.4478 30.3118 39.4478 31.2398C39.4478 32.1678 39.4478 32.9799 39.4478 34.0239C39.6798 33.9079 39.7958 33.7919 40.0278 33.6759C41.4198 32.6319 42.8118 31.5879 44.2038 30.4279C44.5518 30.0799 44.8998 29.9638 45.3638 30.0798C46.0598 30.0798 46.7558 30.0798 47.4518 30.0798C50.2358 30.0798 52.2078 28.1079 52.2078 25.3239C52.2078 20.1039 52.2078 14.7679 52.2078 9.5479C52.2078 8.5039 52.2078 7.57586 52.2078 6.53186C52.2078 3.86386 50.2358 2.00786 47.5678 1.89186C46.8718 1.89186 46.2919 1.89186 45.5959 1.89186C45.1319 1.89186 44.6679 1.8919 44.4359 1.4279C44.2038 0.963898 44.4358 0.615898 44.7838 0.267898C45.9438 0.267898 47.1038 0.267898 48.2638 0.267898C48.7278 0.383898 49.1918 0.499855 49.6558 0.731855C51.9758 1.65986 53.5999 3.86384 53.5999 6.29984C53.5999 12.7958 53.5999 19.1759 53.5999 25.6719C53.5999 28.9199 50.9318 31.5879 47.5678 31.7039C47.4518 31.7039 47.3359 31.7039 47.2199 31.7039C45.5959 31.4719 44.3199 32.0519 43.1599 33.0959C41.8839 34.2559 40.4919 35.1839 39.0999 36.2279C38.7519 36.4599 38.5199 36.6918 38.0559 36.4598C37.5919 36.2278 37.5919 35.8799 37.5919 35.4159C37.5919 34.1399 37.5919 32.9799 37.5919 31.7039C33.7639 31.4719 29.9358 32.0519 26.1078 31.3559C26.1078 32.6319 26.1078 34.0239 26.1078 35.5319C26.3398 35.5319 26.5718 35.5319 26.6878 35.5319C28.7758 35.5319 30.7479 35.6479 32.8359 35.5319C35.5039 35.4159 37.3598 37.2718 37.2438 39.9398C37.1278 41.0998 37.2438 42.1439 37.2438 43.3039C37.2438 43.9999 36.7799 44.3479 36.1999 44.1159C35.7359 43.9999 35.6199 43.6519 35.6199 43.1879C35.6199 42.0279 35.6199 40.7519 35.6199 39.5919C35.6199 37.9679 34.8078 37.1559 33.1838 37.1559C29.8198 37.1559 26.4559 37.1559 23.0919 37.1559C21.4678 37.1559 20.6559 37.9679 20.6559 39.5919C20.6559 42.9559 20.6559 46.3199 20.6559 49.6839C20.6559 51.3079 21.4678 52.1198 23.0919 52.1198C24.8319 52.1198 26.5718 52.1198 28.3118 52.1198C29.3559 52.1198 29.5878 52.3519 29.5878 53.3959C29.5878 53.5119 29.5878 53.7439 29.5878 53.9759C29.7038 53.8599 29.8199 53.8599 29.9359 53.7439C30.2839 53.5119 30.5159 53.2799 30.8638 53.0479C31.5599 52.3519 32.3719 52.1198 33.4159 52.1198C34.8078 52.2358 35.6199 51.3079 35.7359 49.9159C35.7359 49.4519 35.7359 48.9879 35.7359 48.5239C35.7359 48.0599 36.0838 47.7119 36.5478 47.7119C37.0118 47.7119 37.3599 47.9439 37.3599 48.5239C37.3599 49.3359 37.3598 50.1478 37.2438 50.9598C36.8958 52.6998 35.3878 53.7439 33.6478 53.7439C32.8358 53.7439 32.2559 53.9758 31.6759 54.4398C30.8639 55.1358 29.9358 55.8319 29.0078 56.5279C28.7758 56.5279 28.5438 56.5279 28.3118 56.5279C27.8478 56.1799 27.7318 55.7159 27.7318 55.2519C27.7318 54.7879 27.7318 54.3239 27.7318 53.7439C27.4998 53.7439 27.2678 53.7439 27.1518 53.7439C25.7598 53.7439 24.2518 53.7439 22.8598 53.7439C20.5398 53.7439 18.9159 52.1198 18.9159 49.7998C18.9159 47.0158 18.9159 44.2319 18.9159 41.4479C18.9159 41.2159 18.9159 41.0999 18.9159 40.7519C18.6839 40.9839 18.5679 40.9838 18.3359 41.0998C17.1759 42.0278 16.0159 42.8399 14.9718 43.7679C14.6238 43.9999 14.2758 44.2318 13.9278 43.9998C13.4638 43.7678 13.4639 43.4199 13.4639 42.9559C13.4639 42.0279 13.4639 41.2159 13.4639 40.1719C13.2319 40.1719 12.9998 40.1719 12.7678 40.1719C10.5638 40.1719 8.35985 40.1719 6.15585 40.1719C3.48785 40.1719 1.51585 38.5479 1.05185 35.9959C1.05185 35.7639 0.935852 35.4159 0.935852 35.1839C0.935852 32.3999 0.935852 29.7319 0.935852 26.9479C0.935852 26.2519 1.28385 25.9038 1.86385 26.0198C2.32785 26.0198 2.55985 26.3679 2.55985 26.9479C2.55985 27.8759 2.55985 28.8039 2.55985 29.7319C2.55985 31.4719 2.55985 33.2119 2.55985 34.9519C2.55985 37.1559 3.95185 38.5479 6.15585 38.5479C8.70785 38.5479 11.2599 38.5479 13.6959 38.5479C14.7399 38.5479 14.9718 38.7799 14.9718 39.8239C14.9718 40.4039 14.9718 40.8679 14.9718 41.4479C15.2038 41.3319 15.3199 41.2159 15.4359 41.2159C16.4799 40.4039 17.6399 39.5918 18.6839 38.7798C18.7999 38.6638 18.9158 38.4319 19.0318 38.3159C19.4958 36.6919 20.8878 35.6479 22.5119 35.5319C23.0919 35.5319 23.6718 35.5319 24.3678 35.5319C24.3678 35.2999 24.3678 35.0679 24.3678 34.8359C24.3678 29.9639 24.3678 25.2079 24.3678 20.3359C24.3678 18.1319 22.9758 16.7398 20.7719 16.7398C15.8998 16.7398 11.0279 16.7398 6.15585 16.7398C3.95185 16.7398 2.55985 18.1319 2.55985 20.3359C2.55985 20.7999 2.55985 21.2639 2.55985 21.7279C2.55985 22.3079 2.21185 22.6559 1.74785 22.6559C1.16785 22.6559 0.935852 22.3079 0.935852 21.7279C0.935852 20.7999 0.93585 19.8718 1.05185 19.0598C1.51585 16.7398 3.48785 15.1158 5.80785 14.9998C10.9118 14.9998 16.0159 14.9998 21.2359 14.9998C21.5839 14.9998 21.8158 14.9999 22.2798 15.1159C22.2798 14.8839 22.2798 14.7679 22.2798 14.5359C22.2798 11.9839 22.2798 9.31587 22.2798 6.76387C22.2798 3.28387 24.1358 0.963898 27.4998 0.267898C27.4998 0.267898 27.6159 0.267855 27.6159 0.151855C32.1399 0.267855 36.3158 0.267898 40.4918 0.267898Z" fill="white"/>
<path d="M16.5959 26.8318C16.4799 27.5278 16.3639 28.1079 16.2479 28.8039C16.9439 28.8039 17.6399 28.8039 18.2199 28.8039C18.5679 28.8039 18.9159 28.8039 19.2639 28.8039C19.8439 28.8039 20.0759 29.1519 20.0759 29.6159C20.0759 30.0799 19.7279 30.4279 19.1479 30.4279C18.3359 30.4279 17.6399 30.4279 16.8279 30.4279C15.8999 30.4279 15.8999 30.4279 15.7839 31.3559C15.6679 32.0519 15.5519 32.7479 15.4359 33.3279C15.3199 33.9079 14.9719 34.1399 14.5079 34.0239C14.0439 33.9079 13.8119 33.5598 13.8119 32.9798C13.9279 32.1678 14.0439 31.3559 14.1599 30.5439V30.4279C13.5799 30.4279 12.8839 30.4279 12.1879 30.4279C12.0719 31.3559 11.8399 32.2838 11.7239 33.2118C11.6079 33.9078 11.2599 34.2558 10.6799 34.1398C10.2159 34.0238 9.98387 33.6758 10.0999 32.9798C10.2159 32.1678 10.3319 31.3559 10.5639 30.4279C9.98388 30.4279 9.40388 30.4279 8.82388 30.4279C8.59188 30.4279 8.35987 30.4279 8.12787 30.4279C7.66387 30.3119 7.31588 30.0799 7.43188 29.6159C7.43188 29.1519 7.77988 28.9199 8.24388 28.8039C8.93988 28.8039 9.75187 28.8039 10.4479 28.8039C10.7959 28.8039 11.0279 28.6878 11.0279 28.3398C11.0279 27.8758 11.1439 27.4118 11.2599 26.8318C10.5639 26.8318 9.98388 26.8318 9.40388 26.8318C9.05588 26.8318 8.70788 26.8318 8.35987 26.8318C7.77987 26.8318 7.54787 26.4838 7.54787 26.0198C7.54787 25.5558 7.89587 25.2079 8.35987 25.2079C9.28787 25.2079 10.0999 25.2079 11.0279 25.2079C11.2599 25.2079 11.3759 25.2079 11.6079 25.2079C11.7239 24.2799 11.9559 23.4678 12.0719 22.5398C12.0719 22.4238 12.0719 22.1919 12.1879 22.0759C12.3039 21.6119 12.6519 21.3799 13.1159 21.4959C13.5799 21.6119 13.8119 21.9599 13.6959 22.4239C13.5799 23.3519 13.4639 24.2799 13.2319 25.2079C13.8119 25.2079 14.3919 25.2079 14.9719 25.2079C15.0879 25.2079 15.2039 24.9758 15.3199 24.8598C15.4359 24.0478 15.5519 23.2359 15.7839 22.4239C15.8999 21.7279 16.2479 21.4958 16.8279 21.6118C17.2919 21.7278 17.5239 22.0759 17.4079 22.6559C17.2919 23.4679 17.1759 24.2799 16.9439 25.2079C17.6399 25.2079 18.3359 25.2079 19.0319 25.2079C19.2639 25.2079 19.4959 25.2079 19.6119 25.2079C20.0759 25.3239 20.1919 25.6719 20.1919 26.1359C20.0759 26.5999 19.8439 26.8318 19.3799 26.8318C18.6839 26.8318 17.9879 26.8318 17.2919 26.8318C17.0599 26.8318 16.8279 26.8318 16.5959 26.8318ZM14.8559 26.8318C14.2759 26.8318 13.6959 26.8318 13.1159 26.8318C12.9999 26.8318 12.8839 26.9479 12.8839 27.0639C12.7679 27.6439 12.6519 28.2239 12.6519 28.8039C13.3479 28.8039 13.9279 28.8039 14.6239 28.8039C14.7399 28.2239 14.7399 27.5278 14.8559 26.8318Z" fill="white"/>
<path d="M33.0679 43.8838C33.0679 45.1598 32.7199 46.0878 31.9079 46.7838C30.9799 47.5958 29.8199 48.2918 28.7759 48.9878C28.5439 49.1038 28.1959 49.1038 27.9639 48.9878C26.9199 48.4078 25.9919 47.8278 25.0639 47.0158C23.9039 45.9718 23.3239 44.5798 23.7879 42.9558C24.2519 40.9838 26.3399 40.1718 28.0799 41.0998C28.1959 41.2158 28.4279 41.2158 28.5439 41.0998C30.2839 40.0558 33.0679 41.2158 33.0679 43.8838ZM25.1799 43.9998C25.2959 44.5798 25.5279 45.1598 25.8759 45.5078C26.5719 46.2038 27.3839 46.6678 28.1959 47.2478C28.3119 47.2478 28.4279 47.3638 28.5439 47.2478C29.3559 46.6678 30.1679 46.0878 30.9799 45.3918C31.5599 44.8118 31.6759 44.1158 31.4439 43.3038C31.3279 42.8398 30.8639 42.4918 30.3999 42.4918C29.9359 42.3758 29.5879 42.6078 29.2399 42.9558C28.7759 43.6518 28.1959 43.6518 27.6159 42.9558C27.0359 42.1438 25.8759 42.2599 25.5279 43.1878C25.2959 43.4198 25.2959 43.7678 25.1799 43.9998Z" fill="white"/>
<path d="M34.8078 24.7436C34.4598 24.8596 34.1118 24.9756 33.7638 24.9756C32.3718 24.9756 31.0959 24.9756 29.7039 24.9756C28.8919 24.9756 28.6599 24.7436 28.6599 23.9316C28.6599 20.7996 28.6599 17.5516 28.6599 14.4196C28.6599 13.6076 28.8919 13.3756 29.7039 13.3756C30.9799 13.3756 32.2559 13.3756 33.5319 13.3756C33.8799 13.3756 34.2278 13.4916 34.8078 13.6076C35.6199 12.6796 36.5479 11.6356 37.3599 10.4756C37.8239 9.89561 37.8239 9.08358 38.0559 8.27158C38.1719 7.92358 38.0559 7.5756 38.1719 7.3436C38.4039 6.6476 38.8678 6.29957 39.5638 6.29957C40.2598 6.18357 40.8398 6.53158 41.1878 7.11158C42.1158 8.85158 42.2319 10.5916 41.6519 12.4476C41.5359 12.6796 41.5359 12.9116 41.4199 13.1436C42.6959 13.1436 43.9718 13.1436 45.2479 13.1436C46.7558 13.1436 47.5679 13.9556 47.5679 15.4636C47.5679 18.0156 47.5679 20.5676 47.5679 23.0036C47.5679 24.2796 46.7559 25.2076 45.4799 25.2076C42.6959 25.2076 39.9118 25.2076 37.1278 25.2076C36.4318 25.3236 35.6199 24.9756 34.8078 24.7436ZM39.9119 7.9236C39.9119 8.1556 39.7959 8.27158 39.7959 8.27158C39.6799 9.89558 38.9839 11.2876 37.9399 12.5636C37.0119 13.6076 36.0839 14.6516 35.1559 15.6956C34.9239 15.9276 34.8078 16.2756 34.8078 16.6236C34.8078 18.1316 34.8078 19.7556 34.8078 21.2636C34.8078 22.6556 35.0399 23.0036 36.3159 23.4676C36.7799 23.5836 37.3598 23.6996 37.8238 23.6996C40.2598 23.6996 42.8118 23.6996 45.2479 23.6996C45.9438 23.6996 46.0599 23.5836 46.0599 22.8876C46.0599 20.4516 46.0599 18.0156 46.0599 15.5796C46.0599 14.8836 45.9438 14.7676 45.2479 14.7676C43.6238 14.7676 42.1159 14.7676 40.4919 14.7676C39.5639 14.7676 39.2158 14.3036 39.5638 13.3756C39.7958 12.7956 40.0279 12.2156 40.2599 11.7516C40.7239 10.5916 40.6079 9.3156 39.9119 7.9236ZM30.3999 23.3516C31.3279 23.3516 32.2559 23.3516 33.0679 23.3516C33.0679 20.5676 33.0679 17.8996 33.0679 15.1156C32.1399 15.1156 31.2119 15.1156 30.3999 15.1156C30.3999 17.8996 30.3999 20.5676 30.3999 23.3516Z" fill="white"/>
</svg>
