<svg width="19" height="21" viewBox="0 0 19 21" fill="none" xmlns="http://www.w3.org/2000/svg">
<path d="M17.2406 5.26322L8.63619 14.3279C7.77936 15.2306 5.2359 15.6487 4.66769 15.0501C4.09947 14.4515 4.4873 11.7719 5.34413 10.8693L13.9576 1.79501C14.17 1.55087 14.4271 1.35462 14.7136 1.21808C14.9999 1.08154 15.3096 1.00752 15.624 1.00054C15.9382 0.993577 16.2506 1.05376 16.5422 1.17749C16.8338 1.30121 17.0986 1.48593 17.3206 1.72043C17.5425 1.95494 17.7171 2.23439 17.8338 2.54192C17.9504 2.84947 18.0068 3.17871 17.9993 3.5098C17.9918 3.84089 17.9206 4.16699 17.7903 4.46834C17.6599 4.76969 17.4729 5.0401 17.2406 5.26322Z" stroke="white" stroke-width="1.4" stroke-linecap="round" stroke-linejoin="round"/>
<path d="M8.36668 3.38818H4.27408C3.40574 3.38818 2.57302 3.77959 1.959 4.47632C1.345 5.17305 1 6.11801 1 7.10333V16.3912C1 17.3766 1.345 18.3215 1.959 19.0182C2.57302 19.715 3.40574 20.1064 4.27408 20.1064H13.2778C15.0867 20.1064 15.7334 18.4345 15.7334 16.3912V11.7473" stroke="white" stroke-width="1.4" stroke-linecap="round" stroke-linejoin="round"/>
</svg>
