<svg width="26" height="30" viewBox="0 0 26 30" fill="none" xmlns="http://www.w3.org/2000/svg">
<path d="M18.4776 28.8059C18.7999 27.9464 19.1222 27.087 19.4445 26.335C19.7667 25.3682 19.7667 25.3682 20.841 25.4756C21.7004 25.583 22.5599 25.6904 23.5267 25.9053C22.5599 24.1865 21.593 22.4676 20.6262 20.8562C19.5519 21.071 18.6925 21.3933 18.1553 22.3602C17.9405 22.7899 17.6182 23.1122 17.4033 23.5419C16.7588 24.4013 15.8993 24.6162 14.825 24.2939C14.2879 24.1865 13.8582 23.9716 13.4285 23.7567C12.6765 23.4345 12.0319 23.4345 11.2799 23.7567C10.9576 23.8642 10.5279 23.9716 10.2057 24.1864C10.0982 24.2939 9.99081 24.4013 9.88338 24.5088C8.91653 26.1202 8.0571 27.6242 7.19768 29.2356C6.8754 29.7727 6.33824 29.9876 5.90853 29.7727C5.58625 29.6653 5.37139 29.4504 5.26396 29.1281C4.94167 28.3761 4.6194 27.6241 4.40455 26.8721C4.29712 26.6573 4.1897 26.5499 3.97484 26.6573C3.22285 26.7647 2.36341 26.8722 1.61141 26.9796C0.859417 27.087 0.32229 26.7647 0.214862 26.1202C0.214862 25.9053 0.214836 25.583 0.322264 25.3682C1.28912 23.5419 2.36342 21.823 3.33027 19.9968C3.43769 19.7819 3.65256 19.6745 3.97484 19.6745C5.3714 19.9968 6.76795 20.4265 7.41252 21.8231C7.62737 22.1453 7.84224 22.4676 8.05709 22.7899C8.37937 23.2196 8.9165 23.327 9.45364 23.2196C9.77593 23.1122 10.0982 23.0048 10.5279 22.8973C11.7096 22.3602 12.8914 22.3602 14.0731 22.8973C14.3953 23.0048 14.8251 23.1122 15.1473 23.2196C15.6845 23.4345 16.1142 23.2196 16.5439 22.7899C16.8662 22.4676 17.0811 22.0379 17.4033 21.6082C17.9405 20.6413 18.7999 19.9968 19.8742 19.7819C20.3039 19.6745 20.7336 19.567 21.1633 19.3522C21.7005 19.1373 22.0227 18.7076 22.0227 18.0631C22.0227 17.5259 22.0227 16.8814 22.0227 16.3442C22.0227 15.5922 22.2376 14.8402 22.6673 14.1957C22.9896 13.8734 23.2044 13.4437 23.5267 13.1214C24.1713 12.262 24.1713 11.7248 23.5267 10.8654C23.2044 10.4357 22.9896 10.1134 22.6673 9.79111C22.1302 9.14654 21.9153 8.50198 22.0227 7.74998C22.0227 7.21284 22.0227 6.56827 22.0227 6.03113C22.0227 5.38656 21.7004 4.95684 21.0559 4.74198C20.5187 4.52713 19.8742 4.4197 19.337 4.20484C18.585 3.98999 18.0479 3.56029 17.6182 2.91573C17.2959 2.48601 17.081 2.0563 16.7588 1.73401C16.1142 0.874588 15.7919 0.767153 14.825 1.08944C14.5028 1.19687 14.1805 1.30431 13.8582 1.41174C12.8913 1.84145 11.8171 1.84145 10.8502 1.41174C10.4205 1.19688 9.88335 1.08943 9.45364 0.982003C9.02393 0.874575 8.70165 0.982022 8.37936 1.30431C8.05708 1.62659 7.73481 2.05631 7.51995 2.48602C6.87538 3.5603 6.01596 4.20485 4.83425 4.41971C4.51197 4.52714 4.2971 4.52715 4.08224 4.63458C3.22282 4.95686 2.79313 5.38655 2.90056 6.3534C2.90056 6.56826 2.90054 6.78312 3.00796 6.99797C3.22282 8.17968 2.79311 9.25396 2.04112 10.2208C1.71883 10.5431 1.504 10.8654 1.28914 11.2951C0.966858 11.7248 0.966858 12.262 1.28914 12.6917C1.504 13.014 1.71883 13.4437 2.04112 13.766C2.79311 14.6254 3.22283 15.6997 3.1154 16.8814C3.1154 17.2036 3.1154 17.5259 3.1154 17.8482C3.1154 18.1705 2.90054 18.4928 2.57826 18.4928C2.25597 18.4928 2.04112 18.2779 2.04112 17.8482C2.04112 17.4185 2.04112 16.9888 2.04112 16.5591C2.04112 15.9145 1.93369 15.3774 1.50398 14.8402C1.18169 14.518 0.966852 14.0882 0.644568 13.766C-0.214856 12.5842 -0.214856 11.6174 0.644568 10.4357C0.859424 10.1134 1.18169 9.79112 1.39654 9.46884C1.93368 8.82427 2.04112 8.1797 2.04112 7.32028C2.04112 6.89057 2.04112 6.46084 2.04112 6.03113C2.04112 4.95685 2.68569 4.20485 3.65254 3.77514C4.08225 3.66771 4.40454 3.56029 4.83425 3.45287C5.69368 3.23801 6.44566 2.80828 6.87538 2.05628C7.09023 1.62657 7.41253 1.30429 7.62739 0.982003C8.27195 0.122579 9.23881 -0.199692 10.3131 0.122592C10.8502 0.23002 11.2799 0.444876 11.7096 0.659732C12.3542 0.982016 13.1062 0.874588 13.7508 0.659732C14.2879 0.444876 14.9325 0.23002 15.577 0.122592C16.329 -0.092264 16.9736 0.122592 17.5107 0.659732C17.9405 1.08944 18.2627 1.51914 18.585 2.05628C19.0147 2.80828 19.6593 3.34544 20.6262 3.5603C21.0559 3.66773 21.593 3.77515 22.0227 3.99001C22.9896 4.41972 23.5267 5.06428 23.5267 6.13856C23.5267 6.6757 23.5267 7.10541 23.5267 7.64255C23.5267 8.39455 23.6341 9.03911 24.1713 9.68367C24.4936 10.006 24.7084 10.3282 25.0307 10.758C25.7827 11.8322 25.7827 12.7991 25.0307 13.8734C24.7084 14.3031 24.3861 14.7328 24.0639 15.1625C23.7416 15.5922 23.6341 16.0219 23.6341 16.5591C23.6341 17.0962 23.6341 17.7408 23.6341 18.2779C23.6341 19.4596 23.3119 19.9968 22.2376 20.5339C22.2376 20.6413 22.345 20.7487 22.345 20.8562C23.2044 22.3602 24.0639 23.8642 24.9233 25.3682C25.2456 25.9053 25.1381 26.4424 24.7084 26.7647C24.3861 26.9796 24.0639 27.087 23.7416 26.9796C22.9896 26.8722 22.1301 26.7647 21.3782 26.6573C21.1633 26.6573 21.0559 26.6573 20.9484 26.8721C20.7336 27.6241 20.4113 28.3761 20.089 29.1281C19.8742 29.5579 19.6593 29.8801 19.1222 29.9876C18.585 29.9876 18.2627 29.7727 18.0479 29.343C17.6182 28.591 17.1885 27.7316 16.6513 26.9796C16.4365 26.6573 16.4365 26.335 16.7588 26.1202C17.081 25.9053 17.2959 26.0127 17.5107 26.4424C17.5107 27.087 17.9405 27.9464 18.4776 28.8059ZM6.1234 28.8059C6.98282 27.3019 7.84224 25.9053 8.70167 24.4013C7.94967 24.1865 7.41252 23.7567 6.98281 23.1122C6.76796 22.8973 6.66053 22.6825 6.55311 22.3602C6.01597 21.3933 5.15652 20.9636 4.08224 20.7488C3.11539 22.3602 2.14856 24.079 1.18171 25.7979C2.25599 25.6904 3.11539 25.4756 4.08224 25.3682C4.72681 25.2607 4.83426 25.3682 5.04912 25.9053C5.3714 26.8722 5.69369 27.839 6.1234 28.8059Z" fill="url(#paint0_linear_86_1214)"/>
<path d="M12.2468 19.4597C15.8993 19.4597 19.0147 16.6666 19.4444 13.1215C19.6593 11.4026 19.2296 9.89865 18.3702 8.39466C18.3702 8.28724 18.2627 8.17979 18.2627 8.17979C18.0479 7.85751 18.1553 7.53521 18.3702 7.42779C18.585 7.32036 18.9073 7.32037 19.1221 7.64265C19.6593 8.39465 20.089 9.25406 20.3038 10.1135C21.4856 14.7329 18.4776 19.6746 13.6433 20.4266C8.70165 21.1786 4.51193 17.6335 4.08222 13.2289C3.65251 8.71695 6.6605 4.74209 11.1725 4.20495C13.2136 3.88266 15.1473 4.41982 16.9736 5.4941C17.1884 5.60152 17.2959 5.81638 17.2959 6.03124C17.2959 6.46095 16.8661 6.67579 16.4364 6.35351C15.6844 5.92379 14.9325 5.49408 14.073 5.27923C10.4205 4.31237 6.55308 6.56837 5.4788 10.3284C4.08224 14.7329 7.51992 19.4597 12.2468 19.4597Z" fill="url(#paint1_linear_86_1214)"/>
<path d="M9.3462 9.89859C9.77591 9.89859 10.313 10.006 10.5279 9.89859C10.8502 9.68373 10.8502 9.14659 10.9576 8.82431C11.065 8.50203 11.1725 8.17975 11.2799 7.85746C11.3873 7.42775 11.817 7.21289 12.2467 7.21289C12.6764 7.21289 13.1062 7.42775 13.2136 7.85746C13.4284 8.50203 13.6433 9.14659 13.8582 9.79115C13.9656 10.006 13.9656 10.006 14.1805 10.006C14.825 10.006 15.4696 10.006 16.1142 10.006C16.6513 10.006 16.9736 10.2209 17.1884 10.758C17.2959 11.1877 17.1884 11.6174 16.7587 11.9397C16.2216 12.262 15.7919 12.6917 15.2547 13.014C15.0399 13.1214 15.0399 13.3363 15.0399 13.5511C15.2547 14.0883 15.4696 14.7328 15.577 15.27C15.7919 15.8071 15.6845 16.2368 15.2547 16.5591C14.825 16.8814 14.3953 16.774 13.9656 16.4517C13.4285 16.1294 12.8913 15.6997 12.4616 15.3774C12.3542 15.27 12.1393 15.27 12.0319 15.3774C11.4948 15.8071 10.9576 16.1294 10.5279 16.5591C10.0982 16.8814 9.66848 16.8814 9.23877 16.6665C8.91648 16.3443 8.70161 15.9145 8.91646 15.4848C9.13132 14.8403 9.34618 14.3031 9.56104 13.6586C9.66847 13.4437 9.56103 13.3363 9.4536 13.2289C8.91646 12.9066 8.37932 12.4769 7.84218 12.0471C7.41247 11.7249 7.30505 11.2951 7.41248 10.8654C7.51991 10.4357 7.94962 10.1134 8.48676 10.1134C8.70161 10.006 9.02392 10.006 9.3462 9.89859C9.3462 10.006 9.3462 10.006 9.3462 9.89859ZM8.48676 11.0803C8.59419 11.1877 8.70163 11.2951 8.80906 11.2951C9.3462 11.6174 9.77591 12.0471 10.313 12.3694C10.7428 12.6917 10.8502 12.7991 10.6353 13.3363C10.4205 13.8734 10.313 14.3031 10.0982 14.8403C9.99075 15.0551 9.99077 15.27 9.88334 15.4848C10.5279 15.0551 11.065 14.6254 11.7096 14.1957C12.2467 13.766 12.3542 13.766 12.8913 14.1957C13.4285 14.6254 14.073 15.0551 14.6102 15.4848C14.6102 15.4848 14.6102 15.4848 14.6102 15.3774C14.3953 14.7329 14.1804 13.9808 13.9656 13.3363C13.7507 12.7991 13.8581 12.6917 14.2879 12.3694C14.825 12.0471 15.3621 11.6174 15.8993 11.1877C16.0067 11.1877 16.0067 11.0803 16.1142 11.0803L16.0067 10.9729C15.2547 10.9729 14.5027 10.9729 13.7507 10.9729C13.4284 10.9729 13.2136 10.8654 13.1062 10.4357C12.8913 9.79116 12.6765 9.25402 12.569 8.71688C12.569 8.60945 12.4616 8.50203 12.3542 8.28717C12.1393 9.03917 11.9245 9.68373 11.7096 10.3283C11.4947 10.9729 11.4947 10.9729 10.7428 10.9729C9.99076 11.0803 9.34618 11.0803 8.48676 11.0803Z" fill="url(#paint2_linear_86_1214)"/>
<defs>
<linearGradient id="paint0_linear_86_1214" x1="-0.40178" y1="14.954" x2="25.0028" y2="14.954" gradientUnits="userSpaceOnUse">
<stop stop-color="#247CBE"/>
<stop offset="1" stop-color="#5DA4D9"/>
</linearGradient>
<linearGradient id="paint1_linear_86_1214" x1="4.06568" y1="12.2444" x2="20.5505" y2="12.2444" gradientUnits="userSpaceOnUse">
<stop stop-color="#247CBE"/>
<stop offset="1" stop-color="#5DA4D9"/>
</linearGradient>
<linearGradient id="paint2_linear_86_1214" x1="7.3202" y1="11.8848" x2="17.282" y2="11.8848" gradientUnits="userSpaceOnUse">
<stop stop-color="#247CBE"/>
<stop offset="1" stop-color="#5DA4D9"/>
</linearGradient>
</defs>
</svg>
