<svg width="55" height="52" viewBox="0 0 55 52" fill="none" xmlns="http://www.w3.org/2000/svg">
<path d="M25.1777 14.728C26.1407 13.0005 26.6222 12.1367 27.3421 12.1367C28.0621 12.1367 28.5436 13.0005 29.5066 14.728L29.7557 15.1749C30.0292 15.6658 30.166 15.9113 30.3794 16.0732C30.5928 16.2352 30.8584 16.2953 31.3898 16.4155L31.8736 16.525C33.7436 16.9481 34.6787 17.1597 34.9012 17.875C35.1237 18.5903 34.4861 19.3357 33.2114 20.8265L32.8814 21.2122C32.5193 21.6358 32.3381 21.8476 32.2565 22.1096C32.1751 22.3717 32.2025 22.6542 32.2573 23.2196L32.3072 23.7341C32.4998 25.7232 32.5963 26.7176 32.014 27.1598C31.4314 27.6018 30.556 27.1988 28.8051 26.3927L28.3523 26.1841C27.8546 25.955 27.606 25.8405 27.3421 25.8405C27.0783 25.8405 26.8297 25.955 26.332 26.1841L25.8791 26.3927C24.1282 27.1988 23.2529 27.6018 22.6703 27.1598C22.0881 26.7176 22.1844 25.7232 22.3771 23.7341L22.427 23.2196C22.4818 22.6542 22.5091 22.3717 22.4278 22.1096C22.3462 21.8476 22.1651 21.6358 21.8028 21.2122L21.473 20.8265C20.1981 19.3357 19.5607 18.5903 19.7832 17.875C20.0056 17.1597 20.9406 16.9481 22.8107 16.525L23.2945 16.4155C23.8259 16.2953 24.0915 16.2352 24.3049 16.0732C24.5183 15.9113 24.6551 15.6658 24.9286 15.1749L25.1777 14.728Z" stroke="#157DBC" stroke-width="3"/>
<path d="M45.0817 19.7395C45.0817 29.5368 37.1395 37.479 27.3422 37.479C17.5449 37.479 9.60266 29.5368 9.60266 19.7395C9.60266 9.94226 17.5449 2 27.3422 2C37.1395 2 45.0817 9.94226 45.0817 19.7395Z" stroke="#157DBC" stroke-width="3"/>
<path d="M27.3422 37.651L17.7845 47.5471C16.4157 48.9645 15.7313 49.673 15.1517 49.9181C13.831 50.4769 12.366 49.9987 11.6713 48.7823C11.3664 48.2483 11.2714 47.2853 11.0814 45.3593C10.9741 44.2719 10.9204 43.728 10.7576 43.2726C10.3931 42.2531 9.62712 41.4599 8.64243 41.0826C8.20259 40.914 7.67747 40.8585 6.62719 40.7473C4.76703 40.5506 3.83695 40.4523 3.32128 40.1365C2.14627 39.4173 1.68443 37.9003 2.22409 36.5329C2.46092 35.9328 3.14531 35.2242 4.51409 33.8068L10.7576 27.3423" stroke="#157DBC" stroke-width="3"/>
<path d="M27.3422 37.651L36.9 47.5471C38.2687 48.9645 38.9529 49.673 39.5325 49.9181C40.8533 50.4769 42.3184 49.9987 43.013 48.7823C43.3179 48.2483 43.4129 47.2853 43.603 45.3593C43.7102 44.2719 43.7639 43.728 43.9266 43.2726C44.2913 42.2531 45.0571 41.4599 46.0419 41.0826C46.4818 40.914 47.0069 40.8585 48.0571 40.7473C49.9172 40.5506 50.8473 40.4523 51.363 40.1365C52.5381 39.4173 52.9998 37.9003 52.4603 36.5329C52.2234 35.9328 51.5391 35.2242 50.1701 33.8068L43.9266 27.3423" stroke="#157DBC" stroke-width="3"/>
</svg>
