<svg width="47" height="56" viewBox="0 0 47 56" fill="none" xmlns="http://www.w3.org/2000/svg">
<path d="M33.9308 52.8967C34.5226 51.3186 35.1144 49.7404 35.7062 48.3595C36.298 46.584 36.298 46.584 38.2707 46.7813C39.8489 46.9786 41.4271 47.1758 43.2025 47.5704C41.4271 44.414 39.6517 41.2577 37.8762 38.2986C35.9035 38.6931 34.3253 39.285 33.3389 41.0604C32.9444 41.8495 32.3526 42.4413 31.9581 43.2304C30.7744 44.8085 29.1962 45.2031 27.2235 44.6113C26.2371 44.414 25.4481 44.0195 24.659 43.6249C23.2781 43.0331 22.0944 43.0331 20.7135 43.6249C20.1217 43.8222 19.3326 44.0195 18.7408 44.414C18.5435 44.6113 18.3463 44.8086 18.149 45.0059C16.3736 47.9649 14.7954 50.7267 13.2172 53.6858C12.6254 54.6722 11.639 55.0667 10.8499 54.6722C10.2581 54.4749 9.86357 54.0803 9.6663 53.4885C9.07448 52.1076 8.48269 50.7267 8.08815 49.3458C7.89088 48.9513 7.69362 48.754 7.29907 48.9513C5.91817 49.1486 4.33997 49.3458 2.95907 49.5431C1.57816 49.7404 0.591828 49.1486 0.394556 47.9649C0.394556 47.5704 0.394508 46.9786 0.59178 46.584C2.36723 43.2304 4.33998 40.074 6.11543 36.7204C6.3127 36.3259 6.70726 36.1286 7.29907 36.1286C9.86361 36.7204 12.4281 37.5095 13.6117 40.0741C14.0063 40.6659 14.4008 41.2577 14.7954 41.8495C15.3872 42.6386 16.3735 42.8358 17.3599 42.6386C17.9517 42.4413 18.5435 42.2441 19.3326 42.0468C21.5026 41.0604 23.6726 41.0604 25.8426 42.0468C26.4344 42.2441 27.2235 42.4413 27.8153 42.6386C28.8017 43.0331 29.5908 42.6386 30.3799 41.8495C30.9717 41.2577 31.3662 40.4686 31.9581 39.6795C32.9444 37.9041 34.5226 36.7204 36.4953 36.3259C37.2844 36.1286 38.0735 35.9313 38.8626 35.5368C39.8489 35.1422 40.4407 34.3532 40.4407 33.1696C40.4407 32.1832 40.4407 30.9995 40.4407 30.0132C40.4407 28.6323 40.8353 27.2514 41.6244 26.0678C42.2162 25.4759 42.6107 24.6868 43.2025 24.095C44.3862 22.5169 44.3862 21.5305 43.2025 19.9523C42.6107 19.1632 42.2162 18.5714 41.6244 17.9796C40.638 16.796 40.2435 15.6123 40.4407 14.2314C40.4407 13.2451 40.4407 12.0614 40.4407 11.0751C40.4407 9.89144 39.8489 9.10233 38.6653 8.70779C37.6789 8.31324 36.4953 8.11597 35.5089 7.72143C34.128 7.32688 33.1417 6.53783 32.3526 5.3542C31.7608 4.56511 31.3662 3.77601 30.7744 3.1842C29.5908 1.60602 28.9989 1.40874 27.2235 2.00055C26.6317 2.19782 26.0399 2.39513 25.4481 2.5924C23.6726 3.38149 21.6999 3.38149 19.9245 2.5924C19.1354 2.19786 18.149 2.00054 17.3599 1.80327C16.5708 1.606 15.979 1.80331 15.3872 2.39512C14.7954 2.98694 14.2036 3.77604 13.809 4.56512C12.6254 6.53784 11.0472 7.72145 8.87722 8.11599C8.28541 8.31327 7.89084 8.31329 7.4963 8.51056C5.91812 9.10238 5.12908 9.89142 5.32635 11.6669C5.32635 12.0614 5.32631 12.456 5.52358 12.8505C5.91812 15.0205 5.12905 16.9932 3.74814 18.7687C3.15633 19.3605 2.76182 19.9523 2.36727 20.7414C1.77546 21.5305 1.77546 22.5169 2.36727 23.306C2.76182 23.8978 3.15633 24.6869 3.74814 25.2787C5.12905 26.8569 5.91813 28.8296 5.72086 30.9995C5.72086 31.5914 5.72086 32.1832 5.72086 32.775C5.72086 33.3668 5.32632 33.9586 4.7345 33.9586C4.14269 33.9586 3.74814 33.5641 3.74814 32.775C3.74814 31.9859 3.74814 31.1968 3.74814 30.4077C3.74814 29.2241 3.55087 28.2378 2.76178 27.2514C2.16997 26.6596 1.77545 25.8705 1.18363 25.2787C-0.394544 23.1087 -0.394544 21.3332 1.18363 19.1632C1.57818 18.5714 2.16996 17.9796 2.5645 17.3878C3.55086 16.2042 3.74814 15.0205 3.74814 13.4424C3.74814 12.6533 3.74814 11.8642 3.74814 11.0751C3.74814 9.10235 4.93177 7.72144 6.70722 6.93235C7.49631 6.73508 8.08814 6.53783 8.87722 6.34056C10.4554 5.94602 11.8363 5.15689 12.6254 3.77599C13.0199 2.9869 13.6118 2.39508 14.0063 1.80327C15.1899 0.225094 16.9654 -0.366698 18.9381 0.225118C19.9245 0.42239 20.7135 0.816934 21.5026 1.21148C22.6862 1.80329 24.0671 1.60602 25.2508 1.21148C26.2371 0.816934 27.4208 0.42239 28.6044 0.225118C29.9853 -0.169426 31.1689 0.225118 32.1553 1.21148C32.9444 2.00057 33.5362 2.78963 34.128 3.77599C34.9171 5.15689 36.1008 6.1433 37.8762 6.53784C38.6653 6.73512 39.6516 6.93237 40.4407 7.32692C42.2162 8.11601 43.2025 9.29964 43.2025 11.2724C43.2025 12.2587 43.2025 13.0478 43.2025 14.0342C43.2025 15.4151 43.3998 16.5987 44.3862 17.7823C44.978 18.3741 45.3725 18.9659 45.9643 19.755C47.3452 21.7277 47.3452 23.5032 45.9643 25.4759C45.3725 26.265 44.7807 27.0541 44.1889 27.8432C43.5971 28.6323 43.3998 29.4213 43.3998 30.4077C43.3998 31.3941 43.3998 32.5777 43.3998 33.5641C43.3998 35.7341 42.808 36.7204 40.8353 37.7068C40.8353 37.9041 41.0325 38.1013 41.0325 38.2986C42.6107 41.0604 44.1889 43.8222 45.7671 46.584C46.3589 47.5704 46.1616 48.5567 45.3725 49.1485C44.7807 49.5431 44.1889 49.7404 43.5971 49.5431C42.2162 49.3458 40.638 49.1486 39.2571 48.9513C38.8625 48.9513 38.6653 48.9513 38.468 49.3458C38.0735 50.7267 37.4817 52.1076 36.8899 53.4885C36.4953 54.2776 36.1007 54.8694 35.1144 55.0667C34.128 55.0667 33.5362 54.6722 33.1416 53.8831C32.3526 52.5022 31.5635 50.924 30.5771 49.5431C30.1826 48.9513 30.1826 48.3595 30.7744 47.9649C31.3662 47.5704 31.7607 47.7677 32.1553 48.5567C32.1553 49.7404 32.9444 51.3186 33.9308 52.8967ZM11.2445 52.8967C12.8227 50.1349 14.4009 47.5704 15.979 44.8086C14.5981 44.414 13.6118 43.6249 12.8227 42.4413C12.4281 42.0468 12.2309 41.6522 12.0336 41.0604C11.0472 39.285 9.46902 38.4959 7.4963 38.1013C5.72085 41.0604 3.94544 44.2167 2.16999 47.3731C4.14271 47.1758 5.72085 46.7813 7.4963 46.584C8.67993 46.3867 8.87725 46.584 9.27179 47.5704C9.86361 49.3458 10.4554 51.1213 11.2445 52.8967Z" fill="white"/>
<path d="M22.4889 35.734C29.1962 35.734 34.9171 30.6049 35.7062 24.095C36.1007 20.9386 35.3116 18.1768 33.7335 15.415C33.7335 15.2177 33.5362 15.0204 33.5362 15.0204C33.1416 14.4286 33.3389 13.8368 33.7335 13.6395C34.128 13.4422 34.7198 13.4423 35.1143 14.0341C36.1007 15.415 36.8898 16.9931 37.2843 18.5713C39.4543 27.054 33.9307 36.1285 25.0535 37.5094C15.979 38.8903 8.28534 32.3804 7.49625 24.2922C6.70717 16.0068 12.2308 8.70771 20.5162 7.72135C24.2644 7.12953 27.8153 8.11592 31.1689 10.0886C31.5634 10.2859 31.7607 10.6805 31.7607 11.075C31.7607 11.8641 30.9716 12.2586 30.1825 11.6668C28.8016 10.8777 27.4208 10.0886 25.8426 9.69407C19.1353 7.91862 12.0335 12.0614 10.0608 18.9659C7.49629 27.054 13.809 35.734 22.4889 35.734Z" fill="white"/>
<path d="M17.1626 18.1769C17.9517 18.1769 18.938 18.3742 19.3325 18.1769C19.9244 17.7824 19.9244 16.796 20.1217 16.2042C20.319 15.6124 20.5162 15.0206 20.7135 14.4288C20.9107 13.6397 21.6998 13.2451 22.4889 13.2451C23.278 13.2451 24.0671 13.6397 24.2643 14.4288C24.6589 15.6124 25.0534 16.796 25.448 17.9796C25.6453 18.3742 25.6453 18.3742 26.0398 18.3742C27.2235 18.3742 28.4071 18.3742 29.5907 18.3742C30.5771 18.3742 31.1689 18.7687 31.5634 19.7551C31.7607 20.5442 31.5634 21.3333 30.7744 21.9251C29.788 22.5169 28.9989 23.306 28.0126 23.8978C27.618 24.0951 27.618 24.4896 27.618 24.8841C28.0125 25.8705 28.4071 27.0541 28.6044 28.0405C28.9989 29.0269 28.8016 29.8159 28.0126 30.4077C27.2235 30.9996 26.4344 30.8023 25.6453 30.2105C24.6589 29.6187 23.6726 28.8296 22.8835 28.2378C22.6862 28.0405 22.2917 28.0405 22.0944 28.2378C21.108 29.0269 20.1216 29.6186 19.3325 30.4077C18.5435 30.9996 17.7544 30.9996 16.9653 30.605C16.3735 30.0132 15.9789 29.2241 16.3735 28.435C16.768 27.2514 17.1626 26.2651 17.5571 25.0814C17.7544 24.6869 17.5571 24.4896 17.3598 24.2924C16.3735 23.7005 15.3871 22.9114 14.4007 22.1224C13.6117 21.5305 13.4144 20.7414 13.6117 19.9523C13.8089 19.1633 14.598 18.5714 15.5844 18.5714C15.9789 18.3742 16.5708 18.3742 17.1626 18.1769C17.1626 18.3742 17.1626 18.3742 17.1626 18.1769ZM15.5844 20.3469C15.7817 20.5442 15.979 20.7414 16.1762 20.7414C17.1626 21.3332 17.9517 22.1223 18.938 22.7141C19.7271 23.306 19.9244 23.5032 19.5298 24.4896C19.1353 25.4759 18.938 26.2651 18.5435 27.2514C18.3462 27.646 18.3462 28.0405 18.149 28.435C19.3326 27.6459 20.3189 26.8569 21.5026 26.0678C22.4889 25.2787 22.6862 25.2787 23.6726 26.0678C24.6589 26.8569 25.8426 27.6459 26.8289 28.435C26.8289 28.435 26.8289 28.4351 26.8289 28.2378C26.4344 27.0542 26.0398 25.6732 25.6453 24.4896C25.2507 23.5032 25.448 23.306 26.2371 22.7141C27.2234 22.1223 28.2098 21.3332 29.1961 20.5441C29.3934 20.5441 29.3934 20.3469 29.5907 20.3469L29.3934 20.1496C28.0125 20.1496 26.6316 20.1496 25.2507 20.1496C24.6589 20.1496 24.2644 19.9524 24.0671 19.1633C23.6726 17.9796 23.278 16.9933 23.0808 16.0069C23.0808 15.8096 22.8835 15.6124 22.6862 15.2178C22.2916 16.5987 21.8971 17.7824 21.5026 18.966C21.108 20.1496 21.108 20.1496 19.7271 20.1496C18.3462 20.3469 17.1626 20.3469 15.5844 20.3469Z" fill="white"/>
</svg>
