<svg width="31" height="31" viewBox="0 0 31 31" fill="none" xmlns="http://www.w3.org/2000/svg">
<path opacity="0.5" d="M3.06763 20.6844C3.06763 17.1489 3.06763 15.3811 4.16598 14.2828C5.26433 13.1844 7.03209 13.1844 10.5676 13.1844H20.5676C24.1031 13.1844 25.8709 13.1844 26.9692 14.2828C28.0676 15.3811 28.0676 17.1489 28.0676 20.6844C28.0676 24.2199 28.0676 25.9876 26.9692 27.086C25.8709 28.1844 24.1031 28.1844 20.5676 28.1844H10.5676C7.03209 28.1844 5.26433 28.1844 4.16598 27.086C3.06763 25.9876 3.06763 24.2199 3.06763 20.6844Z" fill="#5EA5D9"/>
<path d="M10.5676 21.9344C11.258 21.9344 11.8176 21.3748 11.8176 20.6844C11.8176 19.994 11.258 19.4344 10.5676 19.4344C9.87728 19.4344 9.31763 19.994 9.31763 20.6844C9.31763 21.3748 9.87728 21.9344 10.5676 21.9344Z" fill="#5EA5D9"/>
<path d="M15.5676 21.9344C16.258 21.9344 16.8176 21.3748 16.8176 20.6844C16.8176 19.994 16.258 19.4344 15.5676 19.4344C14.8773 19.4344 14.3176 19.994 14.3176 20.6844C14.3176 21.3748 14.8773 21.9344 15.5676 21.9344Z" fill="#5EA5D9"/>
<path d="M21.8176 20.6844C21.8176 21.3748 21.258 21.9344 20.5676 21.9344C19.8773 21.9344 19.3176 21.3748 19.3176 20.6844C19.3176 19.994 19.8773 19.4344 20.5676 19.4344C21.258 19.4344 21.8176 19.994 21.8176 20.6844Z" fill="#5EA5D9"/>
<path d="M9.00513 10.6844C9.00513 7.06002 11.9433 4.12189 15.5676 4.12189C19.192 4.12189 22.1301 7.06002 22.1301 10.6844V13.1889C22.8394 13.1955 23.4595 13.2119 24.0051 13.2526V10.6844C24.0051 6.02449 20.2275 2.24689 15.5676 2.24689C10.9077 2.24689 7.13013 6.02449 7.13013 10.6844V13.2526C7.67576 13.2119 8.29593 13.1955 9.00513 13.1889V10.6844Z" fill="#5EA5D9"/>
</svg>
