<svg width="25" height="26" viewBox="0 0 25 26" fill="none" xmlns="http://www.w3.org/2000/svg">
<path d="M24.2787 17.5108C23.9564 17.2959 23.5267 17.5108 23.3118 17.833C23.3118 17.9405 23.2044 17.9405 23.2044 18.0479C23.2044 18.0479 23.2044 18.1554 23.097 18.1554C21.9153 20.5188 19.9816 22.345 17.6182 23.4193C15.2548 24.4936 12.5691 24.7085 9.99079 24.0639C7.09023 23.3119 4.6194 21.4856 3.1154 19.0148C1.50398 16.4365 0.966852 13.5359 1.61142 10.6354C2.14856 8.16455 3.33026 6.01597 5.26396 4.29712C7.19767 2.57827 9.45364 1.61144 12.0319 1.39658C15.1473 1.18173 17.9405 2.04115 20.4113 4.08228C21.593 5.04913 22.5599 6.33828 23.4193 7.9497C23.5267 8.16455 23.6341 8.27197 23.849 8.3794C24.0638 8.48683 24.2787 8.3794 24.3861 8.3794C24.7084 8.16455 24.9233 7.73484 24.7084 7.41256C22.7747 3.54515 19.5519 1.07429 15.2548 0.214869C14.9325 0.107441 14.6102 0.107435 14.2879 0.107435C14.1805 0.107435 13.9656 0.107428 13.8582 0H12.2468C12.1394 0 11.9245 6.55528e-06 11.8171 0.107435C11.4948 0.107435 11.1725 0.214869 10.8502 0.214869C5.69369 1.07429 1.28912 5.26398 0.322271 10.4205C0.214843 10.8502 0.214862 11.1725 0.107435 11.6022C0.107435 11.8171 0.107428 11.9245 0 12.1394V13.7508C0 13.8582 6.55528e-06 14.0731 0.107435 14.1805C0.107435 14.5028 0.214836 14.8251 0.214836 15.1474C1.07426 19.7668 3.75998 22.9896 8.0571 24.9233C9.2388 25.4604 10.5279 25.7828 11.9245 25.8902C12.0319 25.8902 12.1393 25.8902 12.1393 25.8902H13.7508C13.8582 25.8902 13.9656 25.8902 14.0731 25.8902C14.2879 25.8902 14.5028 25.8901 14.7176 25.7827C17.833 25.353 20.5187 23.9564 22.6673 21.593C23.5267 20.7336 24.1713 19.6593 24.7084 18.5851C24.8159 18.1553 24.601 17.7256 24.2787 17.5108Z" fill="url(#paint0_linear_152_3136)"/>
<path d="M15.8992 14.7177C15.7918 14.8251 15.7918 14.8251 15.7918 14.8251C15.577 15.04 15.4695 15.1474 15.2547 15.3623C14.825 15.792 14.5027 16.1143 14.073 16.544C13.8581 16.7589 13.8581 16.9737 13.8581 17.1885C13.8581 17.4034 13.9655 17.6183 14.1804 17.7257C14.5027 17.9405 14.825 17.8331 15.1473 17.6183C16.0067 16.7589 16.9735 15.792 17.833 14.9326L18.2627 14.5028C19.2295 13.536 19.2295 12.3543 18.2627 11.4949C17.2958 10.528 16.2215 9.45375 15.2547 8.4869L15.1473 8.37947C15.0398 8.27204 15.0398 8.27203 14.9324 8.1646C14.6101 7.94974 14.1804 8.05718 13.9656 8.27203C13.7507 8.59432 13.7507 9.02402 13.9656 9.23888C14.3953 9.66859 14.7176 9.99088 15.1473 10.4206C15.3621 10.6354 15.4696 10.7429 15.6844 10.9577L15.7918 11.0652C15.7918 11.0652 15.7918 11.1726 15.8992 11.1726L16.7587 12.1394H11.065C10.7427 12.1394 10.4204 12.1394 10.0981 12.1394C9.34615 12.1394 8.59415 12.1394 7.94958 12.1394C7.73473 12.1394 7.41244 12.2469 7.30501 12.4617C7.19758 12.6766 7.09014 12.8914 7.19757 13.1063C7.305 13.536 7.73473 13.6434 7.94958 13.6434C9.66843 13.6434 11.3873 13.6434 13.1061 13.6434H15.3621H16.7587L15.8992 14.7177Z" fill="url(#paint1_linear_152_3136)"/>
<defs>
<linearGradient id="paint0_linear_152_3136" x1="-0.140623" y1="12.8947" x2="24.6866" y2="12.8947" gradientUnits="userSpaceOnUse">
<stop stop-color="#E04D49"/>
<stop offset="1" stop-color="#F37F7C"/>
</linearGradient>
<linearGradient id="paint1_linear_152_3136" x1="7.24914" y1="12.8999" x2="18.9686" y2="12.8999" gradientUnits="userSpaceOnUse">
<stop stop-color="#E04D49"/>
<stop offset="1" stop-color="#F37F7C"/>
</linearGradient>
</defs>
</svg>
