<svg width="54" height="54" viewBox="0 0 54 54" fill="none" xmlns="http://www.w3.org/2000/svg">
<path d="M53.8073 16.5602C53.5758 16.9074 53.2286 17.2546 52.7657 17.0232C52.3028 16.7917 52.1871 16.4445 52.1871 15.9816C52.1871 13.5513 52.1871 11.0053 52.1871 8.57501C52.1871 4.98746 49.5254 2.32578 45.9378 2.32578C36.3325 2.32578 26.8428 2.32578 17.2374 2.32578C13.6499 2.32578 10.9882 4.98746 10.9882 8.57501C10.9882 8.92219 10.9882 9.26937 10.9882 9.73228C11.2196 9.73228 11.4511 9.73228 11.6825 9.73228C20.0149 9.73228 28.2315 9.73228 36.5639 9.73228C40.2672 9.73228 43.1604 11.9311 44.0862 15.4029C44.3176 16.0973 44.3176 16.7917 44.3176 17.6018C44.3176 22.8095 44.3176 28.1329 44.3176 33.3407C44.3176 33.5721 44.3176 33.8036 44.3176 33.9193C48.2524 34.4979 51.2613 32.4149 51.9556 28.9431C52.0714 28.4801 52.0714 28.0172 52.0714 27.5543C52.0714 25.124 52.0714 22.6938 52.0714 20.2635C52.0714 19.8006 52.0714 19.4534 52.65 19.2219C53.1129 18.9905 53.4601 19.3377 53.6915 19.6849C53.6915 22.6938 53.6915 25.7027 53.6915 28.7116C53.5758 29.2902 53.4601 29.7531 53.3444 30.216C52.3028 33.3407 49.4096 35.4238 46.1693 35.4238C45.5906 35.4238 45.012 35.4238 44.4334 35.4238C44.4334 36.2338 44.4334 37.0439 44.3176 37.7383C43.8547 41.3258 40.7301 44.219 37.0268 44.3348C36.3325 44.3348 35.8695 44.5662 35.5224 45.0291C32.8606 48.2695 29.736 50.8155 26.2642 53.0143C25.4541 53.5929 24.644 53.4772 23.9496 52.8986C23.2553 52.32 23.1395 51.5099 23.6025 50.5841C24.2968 48.7324 24.9912 46.9965 25.5698 45.1449C25.8013 44.3348 25.6855 44.2191 24.8755 44.2191C23.2553 44.2191 21.7508 44.2191 20.1306 44.2191C20.0149 44.2191 19.8992 44.2191 19.6677 44.2191C19.2048 44.2191 18.8576 43.8719 18.8576 43.409C18.8576 42.9461 19.2048 42.5989 19.6677 42.5989C21.5194 42.5989 23.4867 42.5989 25.3384 42.5989C26.4956 42.5989 27.3057 43.7561 27.0743 44.9134C26.6114 46.8808 25.917 48.7324 25.1069 50.5841C24.9912 50.6998 24.8755 50.9312 24.8755 51.0469C24.8755 51.1627 24.8755 51.3941 24.8755 51.5099C24.9912 51.5099 25.2226 51.5098 25.3384 51.3941C26.8428 50.3526 28.463 49.311 29.8517 48.1538C31.4719 46.765 32.8606 45.2606 34.2494 43.7561C35.0595 42.946 35.8696 42.4832 37.0268 42.4832C40.1515 42.3674 42.8132 39.8214 42.8132 36.581C42.8132 29.9846 42.8132 23.3881 42.8132 16.6759C42.8132 13.4356 40.0357 10.7739 36.6796 10.7739C27.0743 10.7739 17.5846 10.7739 7.97927 10.7739C7.40063 10.7739 6.93773 10.8896 6.35909 11.0053C3.69736 11.6997 1.73 14.0142 1.73 16.7917C1.73 23.2724 1.73 29.8688 1.73 36.3496C1.73 39.5899 4.39172 42.3674 7.74781 42.3674C10.4095 42.3674 12.9555 42.3674 15.6173 42.3674C15.733 42.3674 15.8487 42.3674 16.0802 42.3674C16.5431 42.3674 16.8903 42.7146 16.8903 43.1775C16.8903 43.6404 16.5431 43.9876 16.0802 43.9876C15.733 43.9876 15.3858 43.9876 15.0386 43.9876C12.7241 43.9876 10.4095 43.9876 7.97927 43.9876C4.16026 43.9876 1.03562 41.3258 0.341257 37.5068C0.341257 37.3911 0.22554 37.2754 0.22554 37.1597C0.22554 30.1003 0.22554 23.0409 0.22554 15.9816L0.341257 15.8659C0.688439 12.5098 3.81309 9.15369 8.32645 9.26941C8.67363 9.26941 9.13653 9.26941 9.59944 9.26941C9.59944 8.8065 9.59944 8.34358 9.59944 7.88067C9.59944 3.83022 12.9555 0.358398 17.1217 0.358398C26.8428 0.358398 36.5639 0.358398 46.285 0.358398C49.5254 0.358398 52.4185 2.44149 53.3444 5.56613C53.5758 6.14476 53.5758 6.6077 53.8073 7.18634C53.8073 10.5424 53.8073 13.5513 53.8073 16.5602Z" fill="white"/>
<path d="M21.0565 27.5543C21.0565 29.2902 19.6677 30.5632 17.9318 30.5632C16.1959 30.5632 14.9229 29.1745 14.9229 27.4386C14.9229 25.7027 16.3116 24.4297 18.0475 24.4297C19.6677 24.5454 21.0565 25.9342 21.0565 27.5543ZM17.9318 26.0499C17.1217 26.0499 16.4274 26.7442 16.4274 27.5543C16.4274 28.3644 17.1217 29.0588 17.9318 29.0588C18.7419 29.0588 19.4363 28.3644 19.4363 27.5543C19.4363 26.7442 18.7419 26.0499 17.9318 26.0499Z" fill="white"/>
<path d="M28.3473 27.5543C28.3473 29.2902 26.9585 30.5632 25.3384 30.6789C23.6024 30.6789 22.3294 29.2902 22.3294 27.67C22.3294 25.9341 23.7182 24.6611 25.3384 24.6611C26.9585 24.5454 28.3473 25.8184 28.3473 27.5543ZM25.3384 26.0499C24.5283 26.0499 23.8339 26.7442 23.8339 27.5543C23.8339 28.3644 24.5283 29.0587 25.3384 29.0587C26.1484 29.0587 26.8428 28.3644 26.8428 27.5543C26.8428 26.7442 26.1484 26.0499 25.3384 26.0499Z" fill="white"/>
<path d="M10.641 30.6789C8.90509 30.6789 7.63208 29.2902 7.63208 27.5543C7.63208 25.9341 9.0208 24.5454 10.7567 24.5454C12.4926 24.5454 13.7656 25.9341 13.7656 27.5543C13.6499 29.2902 12.2612 30.6789 10.641 30.6789ZM10.5253 29.0587C11.3354 29.0587 12.0297 28.3644 12.0297 27.5543C12.0297 26.7442 11.3354 26.0499 10.5253 26.0499C9.71517 26.0499 9.0208 26.6285 9.0208 27.5543C9.13653 28.3644 9.71517 29.0587 10.5253 29.0587Z" fill="white"/>
<path d="M32.6292 30.6789C30.8933 30.5632 29.6203 29.1745 29.6203 27.5543C29.6203 25.8184 31.1247 24.5454 32.8606 24.5454C34.4808 24.5454 35.8695 26.0498 35.7538 27.67C35.6381 29.4059 34.2494 30.6789 32.6292 30.6789ZM32.6292 26.0499C31.8191 26.0499 31.1247 26.7442 31.1247 27.5543C31.1247 28.3644 31.8191 29.0587 32.6292 29.0587C33.4393 29.0587 34.1336 28.3644 34.1336 27.5543C34.1336 26.7442 33.4393 26.0499 32.6292 26.0499Z" fill="white"/>
</svg>
