<svg width="45" height="44" viewBox="0 0 45 44" fill="none" xmlns="http://www.w3.org/2000/svg">
<path d="M0.200266 16.1375C0.50067 15.1165 0.901202 14.2996 1.60214 13.5849C1.70228 13.4828 1.70228 13.2786 1.70228 13.0744C1.50202 11.6449 1.40188 10.1133 1.50202 8.58177C1.70229 7.05019 2.10281 5.62068 2.80376 4.39541C3.10416 3.88489 3.40456 3.78282 3.8051 3.98703C4.20564 4.19124 4.20565 4.59966 4.00538 5.00808C2.9039 6.94808 2.70362 9.09227 2.80376 11.2365C2.90389 11.9512 3.00403 12.666 3.10416 13.4828C3.2043 13.8912 3.10417 14.1975 2.70363 14.5039C1.30175 15.3207 1.10147 17.0565 2.30308 18.1796C2.50335 18.3838 2.6035 18.6901 2.50336 18.9965C1.70229 21.6512 2.9039 23.5912 5.00673 25.1228C5.207 24.9186 5.40726 24.6123 5.60753 24.4081C6.50874 23.387 7.51008 22.5701 8.81183 22.0596C9.0121 21.9575 9.11224 21.8554 9.11224 21.5491C9.11224 21.0386 9.11224 20.426 9.11224 19.9154C9.11224 19.7112 9.0121 19.507 8.81183 19.4049C6.1082 17.7712 4.80646 15.4228 4.70632 12.2575C4.70632 11.6449 4.70632 11.1344 4.70632 10.5217C4.70632 10.1133 4.90658 9.807 5.30712 9.7049C6.80914 8.99016 7.81049 7.867 8.21103 6.13122C8.31117 5.8249 8.51143 5.51861 8.81183 5.51861C9.21237 5.4165 9.41264 5.62068 9.61291 5.92699C10.414 7.25436 12.0161 7.56071 13.2178 6.53966C13.7184 6.13124 14.119 6.2333 14.5195 6.74382C14.9201 7.25435 15.3206 7.86702 15.8213 8.37754C16.7225 9.19438 17.7238 9.70491 18.9254 9.39859C19.6264 9.29649 19.9268 9.60279 19.9268 10.2154C20.0269 11.747 20.0269 13.2786 19.5262 14.7081C18.9254 16.6481 17.6237 18.1796 15.8213 19.2007C15.621 19.3028 15.5209 19.507 15.5209 19.8133C15.5209 20.3239 15.5209 20.9365 15.5209 21.447C15.5209 21.5491 15.621 21.7533 15.7211 21.8554C17.2231 22.5702 18.5249 23.5912 19.5262 24.9186L19.6264 25.0207C21.3287 23.7954 22.5303 22.2638 22.33 20.0175C22.33 19.7112 22.2299 19.3028 22.1297 18.9965C22.0296 18.6901 22.1297 18.4859 22.33 18.1796C23.5316 16.9544 23.3313 15.3207 21.8293 14.4017C21.4288 14.1975 21.4288 13.8912 21.4288 13.4828C21.8293 11.3386 21.9295 9.19437 21.4288 7.15227C20.6277 4.39543 19.0256 2.45544 16.3219 1.7407C15.1203 1.43439 14.0188 1.43437 12.9174 2.047C12.5168 2.25121 12.0161 2.35332 11.6156 2.047C9.61291 1.02595 7.71036 1.53645 5.90793 2.65961C5.8078 2.65961 5.8078 2.76175 5.70767 2.76175C5.30713 2.96596 5.00672 2.86385 4.80645 2.55753C4.60618 2.25121 4.60619 1.84277 5.00673 1.63856C5.70767 1.23014 6.30847 0.821741 7.10955 0.515426C8.7117 -0.0972061 10.414 -0.199336 12.0162 0.617506C12.1163 0.719611 12.3165 0.719611 12.4167 0.617506C14.7198 -0.505652 16.9227 0.00488677 19.0256 1.33226C21.2285 2.76173 22.4301 5.00808 22.9308 7.56071C23.2312 9.39861 23.2312 11.1344 22.9308 12.9723C22.9308 13.1765 22.9308 13.3807 23.1311 13.4828C24.4328 14.7081 25.1338 16.8523 23.6318 18.5881C23.5316 18.6902 23.5316 18.7923 23.5316 18.8944C24.0323 21.7533 22.9308 23.8975 20.7279 25.6333C20.6277 25.7354 20.5276 25.8375 20.4275 25.8375C20.9281 26.8586 21.4288 27.7775 21.8293 28.7986C22.0296 29.207 21.8293 29.5133 21.5289 29.7175C21.2285 29.8196 20.828 29.7175 20.7279 29.3091C20.7279 29.207 20.6277 29.1049 20.6277 29.0028C20.127 28.0839 19.6264 27.1649 19.1257 26.1438C19.0256 26.0417 18.9254 25.9396 18.8253 25.7354C18.5249 27.1649 17.8239 28.186 16.8226 29.0028C15.0202 30.4323 13.2178 29.9217 12.5168 27.6754C12.5168 27.5733 12.4167 27.4712 12.4167 27.267C12.3165 27.4712 12.3166 27.6754 12.2164 27.7775C11.8159 28.6965 11.3152 29.4112 10.2137 29.6154C9.61292 29.7175 9.01211 29.6154 8.4113 29.207C7.20968 28.3901 6.30847 27.3691 5.90793 25.8375C5.90793 25.7354 5.80779 25.6333 5.80779 25.5312C3.8051 28.3902 2.90389 31.5554 2.30308 34.9249C3.20429 34.9249 4.10551 34.9249 5.10685 34.9249C5.20699 34.3123 5.20699 33.6997 5.30712 33.087C5.30712 32.8828 5.30713 32.6786 5.40726 32.4744C5.5074 32.0659 5.8078 31.8618 6.1082 31.8618C6.50874 31.9639 6.70901 32.2702 6.60887 32.6786C6.50874 33.5975 6.4086 34.5165 6.30847 35.4354C6.20833 37.4775 6.10821 39.4175 6.00808 41.4596C6.00808 41.5617 6.00808 41.5617 6.00808 41.6638C10.1136 41.6638 14.2191 41.6638 18.3246 41.6638C18.3246 41.1533 18.3246 40.6428 18.3246 40.2344C18.1243 37.886 18.0242 35.5376 17.8239 33.087C17.8239 32.9849 17.8239 32.7807 17.8239 32.6786C17.8239 32.2702 18.0242 31.9638 18.4248 31.9638C18.7252 31.9638 19.0256 32.1681 19.1257 32.5765C19.2258 33.1891 19.2258 33.8018 19.326 34.4144C19.326 34.6186 19.326 34.7207 19.4261 34.9249C20.3273 34.9249 21.2285 34.9249 22.2299 34.9249C22.0296 33.9039 21.8293 32.9849 21.6291 31.9638C21.5289 31.4533 21.6291 31.147 21.9295 31.0449C22.33 30.8407 22.7305 31.0449 22.8307 31.5555C23.1311 32.9849 23.4315 34.5165 23.6318 35.946C23.832 37.6818 23.832 39.4175 23.9322 41.1533C23.9322 42.2765 23.3314 42.8891 22.2299 42.8891C15.5209 42.8891 8.91197 42.8891 2.20296 42.8891C1.20161 42.8891 0.500673 42.2765 0.500673 41.3575C0.500673 37.4775 0.901202 33.5975 2.10282 29.8196C2.60349 28.3902 3.10417 27.0628 3.90524 25.8375C4.00538 25.7354 4.00538 25.6333 4.00538 25.6333C3.40458 25.1228 2.80376 24.6123 2.30308 23.9996C0.901199 22.4681 0.500667 20.7323 0.901205 18.6901C0.901205 18.3838 0.901208 18.2817 0.700939 17.9754C0.400535 17.4649 0.200269 16.9544 0 16.3417C0.200269 16.8523 0.200266 16.5459 0.200266 16.1375ZM9.21238 7.66279C8.71171 8.78595 8.01077 9.80702 7.00942 10.4196C6.10821 10.9302 6.00808 11.5428 6.00808 12.4618C6.20834 15.1165 7.30982 17.2607 9.71305 18.4859C10.7144 18.9965 11.8159 19.4049 13.0175 19.2007C16.1217 18.6901 18.3246 16.3418 18.7252 13.1765C18.8253 12.4618 18.7252 11.747 18.7252 10.9302C17.6237 10.9302 16.7225 10.726 15.8213 10.1133C15.0202 9.50071 14.3192 8.78598 13.5182 8.07124C12.0162 8.88808 10.9147 8.78595 9.21238 7.66279ZM14.4194 20.2217C13.1176 20.7323 11.8159 20.6301 10.5141 20.2217C10.5141 20.9365 10.5141 21.5491 10.5141 22.1618C10.5141 22.6723 10.3139 22.9786 9.81318 23.1828C9.61291 23.2849 9.31251 23.387 9.11224 23.4891C9.41264 25.2249 10.9147 26.4502 12.6169 26.4502C14.3192 26.3481 15.8213 25.0207 15.8213 23.4891C15.621 23.387 15.4207 23.2849 15.2205 23.1828C14.6196 22.8765 14.4194 22.6723 14.4194 21.9575C14.4194 21.447 14.4194 20.8344 14.4194 20.2217ZM2.30308 36.967C2.20295 38.7028 2.20295 40.3365 2.10282 41.9701C2.10282 42.0722 2.20295 42.3786 2.30308 42.3786C3.20429 42.3786 4.10551 42.3786 4.90659 42.3786C5.00672 40.5407 5.00672 38.8049 5.10685 37.0691C4.20564 36.967 3.30443 36.967 2.30308 36.967ZM22.6304 36.967C21.6291 36.967 20.7278 36.967 19.8266 36.967C19.9268 38.7028 19.9268 40.3365 20.0269 42.0723C20.0269 42.1744 20.2272 42.2765 20.3273 42.2765C21.1284 42.2765 21.8293 42.2765 22.6304 42.2765C22.9308 42.2765 22.9308 42.1744 22.9308 41.8681C22.9308 41.1533 22.9308 40.3365 22.8307 39.6217C22.7305 38.8049 22.6304 37.886 22.6304 36.967ZM13.7184 27.5733C13.8186 27.8796 13.9187 28.0838 14.119 28.3902C14.5195 29.0028 15.0202 29.207 15.621 28.7986C16.8226 28.0839 17.6237 26.9607 17.7238 25.4291C17.7238 24.8165 17.5236 24.5101 17.0229 24.3059C16.1217 26.2459 15.7211 26.6544 13.7184 27.5733ZM11.1149 27.6754C10.414 27.1649 9.71305 26.8586 9.11224 26.246C8.61157 25.7354 8.21103 24.9186 7.71036 24.3059C7.51009 24.5101 7.10955 24.6122 7.10955 25.1228C7.00941 26.5522 8.01075 28.2881 9.3125 28.7986C9.81318 29.0028 10.3139 28.9007 10.6143 28.4923C10.9147 28.186 11.0148 27.8796 11.1149 27.6754Z" fill="white"/>
<path d="M44.2595 42.5829C43.9591 43.3997 43.3583 43.6039 42.5572 43.6039C37.25 43.6039 32.043 43.6039 26.7359 43.6039C25.5343 43.6039 25.0336 43.0934 25.0336 41.8681C25.1338 39.826 25.334 37.7839 26.2352 35.8439C27.3367 33.6997 29.039 32.2703 31.3421 31.5555C31.7426 31.4534 31.8428 31.2492 31.8428 30.8408C31.8428 30.2282 31.7426 29.8197 31.1418 29.5134C30.1405 28.9008 29.4395 27.9819 28.9389 26.9608C28.8387 26.7566 28.7386 26.6544 28.4382 26.6544C28.0377 26.6544 27.7373 26.6544 27.3367 26.6544C26.4355 26.5523 25.8347 26.0418 25.5343 25.1229C25.2339 24.306 25.4342 23.4892 26.035 22.8766C26.2352 22.6724 26.3354 22.4682 26.2352 22.1618C26.1351 20.5282 26.2352 18.8944 27.0363 17.465C27.3367 16.8523 27.8374 16.2397 28.3381 15.6271C28.6385 15.2187 29.039 15.2187 29.3394 15.525C29.6398 15.8313 29.6398 16.2397 29.2393 16.5461C27.7373 18.0776 27.4369 20.0176 27.537 22.1618C27.8374 22.1618 28.0377 22.1618 28.3381 22.1618C28.4382 21.8555 28.4382 21.4471 28.5383 21.1408C28.8387 19.6092 29.5397 18.1797 30.9416 17.2608C31.6425 16.7503 32.3435 16.7503 33.0444 17.2608C33.3448 17.465 33.7453 17.465 34.0457 17.465C34.6466 17.3629 35.1472 17.5671 35.5478 18.0776C36.1486 18.8945 36.7494 18.9966 37.6506 18.7924C38.1513 18.6903 38.5518 18.6902 38.9523 18.8945C39.2527 18.9966 39.5531 19.0987 39.8535 19.2008C40.0538 19.3029 40.3542 19.5071 40.4544 19.7113C40.7548 20.5281 40.955 21.345 41.1553 22.1618C41.3556 22.1618 41.5558 22.1618 41.9564 22.1618C41.9564 21.4471 41.9564 20.6302 41.8562 19.9155C41.7561 18.9966 41.8562 18.2818 42.5572 17.6692C43.2581 16.9544 43.4584 15.9334 42.8576 15.1166C42.3569 14.2997 41.4557 13.8913 40.4544 14.1976C40.0538 14.2997 39.7534 14.2997 39.453 13.9934C38.8522 13.3808 37.951 13.2787 37.3502 13.9934C36.7494 14.6061 36.0484 14.8102 35.2474 14.9123C34.1459 14.9123 33.1445 15.1166 32.0431 15.2187C31.6425 15.3208 31.242 15.1166 31.1418 14.8102C31.0417 14.4018 31.242 14.0955 31.7426 13.9934C32.9443 13.6871 34.0457 13.585 35.2474 13.6871C35.748 13.6871 36.0484 13.585 36.3488 13.1766C37.3502 12.1555 38.7521 12.0534 39.9537 12.8702C40.0538 12.9723 40.2541 13.0745 40.4544 12.9724C42.3569 12.6661 43.8589 13.6871 44.3596 15.6271C44.3596 15.7292 44.4597 15.7292 44.4597 15.7292C44.4597 16.1376 44.4597 16.4439 44.4597 16.8524C44.2595 17.5671 44.0592 18.1797 43.4584 18.6902C43.0578 18.9966 43.0579 19.405 43.0579 19.9155C43.158 20.7324 43.158 21.5492 43.158 22.3661C43.158 22.6724 43.2581 22.7745 43.3582 22.9787C43.9591 23.5913 44.1593 24.4081 43.8589 25.3271C43.5585 26.246 42.9577 26.7566 41.9564 26.8587C41.656 26.8587 41.2554 26.8587 40.955 26.8587C40.6546 26.8587 40.5545 26.9607 40.3542 27.165C39.8535 28.186 39.2527 29.105 38.2514 29.6155C37.5505 30.0239 37.3502 30.5344 37.4503 31.2492C37.4503 31.4534 37.5505 31.5555 37.7507 31.6576C38.4517 31.9639 39.2527 32.1682 39.9537 32.5766C42.2568 33.904 43.4584 36.1503 43.9591 38.7029C44.1593 39.4176 44.1593 40.2344 44.2595 40.9492C44.2595 41.4597 44.2595 42.0724 44.2595 42.5829ZM39.7534 23.5913C39.6533 22.8765 39.5531 22.0597 39.453 21.345C39.3529 20.8345 39.2527 20.426 38.6519 20.426C38.5518 20.426 38.4517 20.3239 38.3515 20.2218C38.1512 20.2218 37.951 20.1197 37.8508 20.1197C36.5491 20.4261 35.4476 20.1197 34.6465 19.0987C34.5464 18.9966 34.3461 18.8945 34.1459 18.8945C33.4449 18.9966 32.8441 18.8944 32.2433 18.486C32.043 18.2818 31.8428 18.3839 31.6425 18.486C30.9416 18.8944 30.4409 19.5071 30.1405 20.324C29.6398 21.6513 29.4395 23.0808 29.6398 24.6123C29.7399 25.7355 30.1405 26.7566 30.8414 27.5734C32.4436 29.5134 34.947 30.4324 37.5505 28.4924C39.1526 27.2671 39.6533 25.5313 39.7534 23.5913ZM29.5397 42.2766C32.9443 42.2766 36.2487 42.2766 39.5531 42.2766C39.5531 41.664 39.453 41.0513 39.453 40.4386C39.2527 38.6007 38.9523 36.7629 38.2514 35.1292C37.951 34.5166 37.5505 33.9039 37.25 33.1892C36.6492 34.4145 35.8482 35.1292 34.5464 35.1292C33.2447 35.1292 32.4436 34.4144 31.9429 33.2913C30.0404 35.946 29.8401 39.1113 29.5397 42.2766ZM33.1445 30.6366C33.1445 31.2492 33.1445 31.8618 33.1445 32.3724C33.1445 33.0871 33.7453 33.6997 34.4463 33.6997C35.1472 33.8018 35.9483 33.2913 35.9483 32.5766C36.0484 31.964 35.9483 31.2492 35.9483 30.6366C35.4476 30.7387 35.0471 30.7386 34.5464 30.7386C34.1459 30.8408 33.6452 30.7387 33.1445 30.6366ZM42.457 38.2945C42.1566 36.4566 40.2541 33.8019 39.0525 33.5976C39.8535 35.0271 40.2541 36.6608 40.5545 38.2945C41.1553 38.2945 41.7561 38.2945 42.457 38.2945ZM30.1405 33.5976C28.3381 34.6187 27.3367 36.2524 26.7359 38.2945C27.3367 38.2945 27.9375 38.2945 28.4382 38.2945C28.5383 38.2945 28.6385 38.1923 28.6385 38.0902C29.039 36.5587 29.4395 35.0271 30.1405 33.5976ZM42.7575 39.724C42.0565 39.724 41.3556 39.724 40.6546 39.724C40.7548 40.6429 40.7547 41.4597 40.8549 42.3787C41.5558 42.3787 42.1566 42.3787 42.8576 42.3787C42.8576 41.4597 42.8576 40.5408 42.7575 39.724ZM28.5383 39.724C27.9375 39.724 27.3367 39.724 26.7359 39.724C26.6358 39.724 26.5356 39.826 26.5356 39.9281C26.4355 40.6429 26.4355 41.3576 26.3354 42.0724C26.3354 42.1745 26.4355 42.2766 26.5356 42.2766C27.1365 42.2766 27.7373 42.2766 28.3381 42.2766C28.3381 41.4597 28.4382 40.5408 28.5383 39.724ZM40.8549 25.4292C41.4557 25.4292 42.0565 25.6334 42.3569 25.0208C42.5572 24.7145 42.5572 24.306 42.3569 23.9997C41.9564 23.4892 41.4557 23.5913 40.955 23.5913C40.955 24.2039 40.8549 24.8166 40.8549 25.4292ZM28.2379 23.5913C27.7373 23.5913 27.1364 23.4892 26.836 23.9997C26.6358 24.306 26.6358 24.7145 26.836 25.0208C27.2366 25.6334 27.8374 25.4292 28.3381 25.4292C28.3381 24.8166 28.2379 24.2039 28.2379 23.5913Z" fill="white"/>
<path d="M12.5168 16.5459C11.8159 16.5459 11.2151 16.3417 10.7144 15.8311C10.414 15.6269 10.3139 15.2185 10.5141 14.9122C10.7144 14.6058 11.1149 14.5038 11.4153 14.708C12.1163 15.2185 12.8172 15.2185 13.6183 14.708C13.9187 14.5038 14.3193 14.6059 14.5195 14.8101C14.7198 15.1164 14.6196 15.5248 14.3192 15.7291C13.7184 16.2396 13.1176 16.4438 12.5168 16.5459Z" fill="white"/>
<path d="M8.51144 12.1553C8.51144 11.6447 8.7117 11.3384 9.11224 11.3384C9.51278 11.3384 9.81318 11.6447 9.81318 12.1553C9.81318 12.6658 9.51278 12.9721 9.11224 12.9721C8.7117 12.9721 8.51144 12.6658 8.51144 12.1553Z" fill="white"/>
<path d="M16.4221 12.1553C16.4221 12.6658 16.2218 12.87 15.8212 12.9721C15.4207 12.9721 15.1203 12.6658 15.1203 12.1553C15.1203 11.6447 15.3206 11.3384 15.7211 11.3384C16.2218 11.3384 16.4221 11.6447 16.4221 12.1553Z" fill="white"/>
<path d="M34.6466 27.6756C34.1459 27.4714 33.6452 27.2672 33.1445 26.9609C32.8441 26.7567 32.744 26.3482 32.9443 26.0419C33.1445 25.7356 33.5451 25.6335 33.8455 25.8377C34.4463 26.2461 34.947 26.2461 35.4476 25.8377C35.748 25.6335 36.1486 25.7356 36.3489 26.0419C36.5491 26.3482 36.449 26.7567 36.1486 26.9609C35.6479 27.2672 35.1472 27.4714 34.6466 27.6756Z" fill="white"/>
<path d="M31.242 23.8975C31.242 23.489 31.4422 23.0806 31.8428 23.0806C32.2433 23.0806 32.5437 23.3869 32.5437 23.7953C32.5437 24.3058 32.3435 24.6121 31.9429 24.6121C31.5424 24.7143 31.242 24.3059 31.242 23.8975Z" fill="white"/>
<path d="M37.951 23.8974C37.951 24.3058 37.7507 24.7142 37.3502 24.7142C36.9496 24.7142 36.6492 24.4079 36.6492 23.9995C36.6492 23.5911 36.9496 23.1826 37.25 23.1826C37.6506 23.0805 37.951 23.3869 37.951 23.8974Z" fill="white"/>
</svg>
