<svg width="40" height="34" viewBox="0 0 40 34" fill="none" xmlns="http://www.w3.org/2000/svg">
<path d="M4.65628 8.63279H11.2093L12.9917 0.746343C13.113 0.210853 13.5781 -0.108073 14.0316 0.0336492L39.3703 8.07986C39.8221 8.22358 40.0912 8.77481 39.9716 9.31227L34.8721 31.8679C34.7508 32.4034 34.2857 32.7223 33.8322 32.5806L31.7375 31.9151V32.992C31.7375 33.5492 31.3571 34 30.887 34H4.65445C4.18434 34 3.80395 33.5492 3.80395 32.992V29.9267H0.850492C0.380383 29.9267 0 29.4759 0 28.9188V5.56787C0 5.01071 0.380395 4.55989 0.850492 4.55989H6.81542C7.28553 4.55989 7.66591 5.01072 7.66591 5.56787C7.66591 6.12503 7.28552 6.57585 6.81542 6.57585H1.70098V27.9108H3.80395V9.63911C3.80395 9.08194 4.18435 8.63113 4.65445 8.63113L4.65628 8.63279ZM9.82557 6.5755C9.35546 6.5755 8.97508 6.12466 8.97508 5.56752C8.97508 5.01036 9.35547 4.55954 9.82557 4.55954H10.1827C10.6528 4.55954 11.0332 5.01037 11.0332 5.56752C11.0332 6.12468 10.6528 6.5755 10.1827 6.5755H9.82557ZM9.49335 15.106C9.02324 15.106 8.64285 14.6552 8.64285 14.0981C8.64285 13.5409 9.02325 13.0901 9.49335 13.0901H26.0499C26.52 13.0901 26.9004 13.5409 26.9004 14.0981C26.9004 14.6552 26.52 15.106 26.0499 15.106H9.49335ZM9.49335 29.5429C9.02324 29.5429 8.64285 29.092 8.64285 28.5349C8.64285 27.9777 9.02325 27.5269 9.49335 27.5269H26.0499C26.52 27.5269 26.9004 27.9777 26.9004 28.5349C26.9004 29.092 26.52 29.5429 26.0499 29.5429H9.49335ZM18.907 25.9342C18.4369 25.9342 18.0565 25.4833 18.0565 24.9262C18.0565 24.3691 18.4369 23.9182 18.907 23.9182H26.0499C26.52 23.9182 26.9004 24.3691 26.9004 24.9262C26.9004 25.4833 26.52 25.9342 26.0499 25.9342H18.907ZM18.907 22.3255C18.4369 22.3255 18.0565 21.8747 18.0565 21.3175C18.0565 20.7604 18.4369 20.3095 18.907 20.3095H26.0499C26.52 20.3095 26.9004 20.7604 26.9004 21.3175C26.9004 21.8747 26.52 22.3255 26.0499 22.3255H18.907ZM18.907 18.7168C18.4369 18.7168 18.0565 18.266 18.0565 17.7089C18.0565 17.1517 18.4369 16.7009 18.907 16.7009H26.0499C26.52 16.7009 26.9004 17.1517 26.9004 17.7089C26.9004 18.266 26.52 18.7168 26.0499 18.7168H18.907ZM9.49335 16.7009H15.5846C16.0547 16.7009 16.4351 17.1517 16.4351 17.7089V24.928C16.4351 25.4852 16.0547 25.936 15.5846 25.936H9.49335C9.02324 25.936 8.64285 25.4852 8.64285 24.928V17.7089C8.64285 17.1517 9.02325 16.7009 9.49335 16.7009ZM14.7341 18.7168H10.3438V23.92H14.7341V18.7168ZM12.9667 8.635H30.8887C31.3588 8.635 31.7392 9.08584 31.7392 9.64299V29.8339L33.4518 30.3772L38.1112 9.765L14.4122 2.23841L12.9654 8.63455L12.9667 8.635ZM30.0382 10.651H5.50658V31.9879H30.0382V10.651Z" fill="white"/>
</svg>
