<svg width="17" height="21" viewBox="0 0 17 21" fill="none" xmlns="http://www.w3.org/2000/svg">
<path d="M8.1 20.7C8 20.7 7.8 20.6 7.7 20.6C6.8 20.3 5.9 19.5 5.8 18.1C5.7 18.1 5.7 18.1 5.6 18.1C4.7 18.1 3.8 18.1 2.9 18.1C1.9 18.1 1.1 17.3 1 16.3C1 15.8 1.1 15.4 1.3 15C1.7 14.3 2 13.6 2.3 12.8C2.5 12 2.6 11.1 2.6 10.3C2.6 9.6 2.6 8.8 2.7 8.1C3.2 5.9 4.4 4.4 6.5 3.6C6.5 3.6 6.6 3.6 6.6 3.5C6.2 2.4 6.4 1.6 7.2 1C7.9 0.5 8.8 0.5 9.4 1C10.1 1.5 10.3 2.3 10 3.4C10.3 3.5 10.6 3.6 10.9 3.8C12.9 4.9 14 6.7 14.1 9C14.1 9.8 14.1 10.6 14.2 11.4C14.3 12.5 14.7 13.6 15.2 14.6C15.4 15 15.6 15.4 15.7 15.9C15.8 17 15 18 13.8 18C12.9 18 12 18 11.1 18C11 18 11 18 10.9 18C10.9 18.6 10.7 19.1 10.4 19.5C10 20 9.4 20.4 8.8 20.5H8.7C8.5 20.7 8.3 20.7 8.1 20.7ZM8.4 16.9C10.1 16.9 11.8 16.9 13.4 16.9C13.6 16.9 13.7 16.9 13.9 16.9C14.3 16.9 14.6 16.5 14.5 16.1C14.5 16 14.4 15.8 14.3 15.7C13.6 14.6 13.2 13.3 13 12C12.9 11.1 12.9 10.2 12.9 9.3C12.9 8.1 12.5 7 11.6 6.1C10.5 5 9.2 4.5 7.7 4.8C5.7 5.2 4.6 6.5 4 8.4C3.8 9 3.9 9.7 3.9 10.3C3.9 12.2 3.4 14.1 2.5 15.7C2.4 15.8 2.4 15.9 2.3 16.1C2.2 16.3 2.3 16.6 2.5 16.7C2.6 16.8 2.8 16.9 3 16.9C4.8 16.9 6.6 16.9 8.4 16.9ZM7.1 18.2C7.1 18.9 7.7 19.5 8.4 19.5C9.1 19.5 9.7 18.8 9.6 18.2C8.8 18.2 8 18.2 7.1 18.2ZM9 2.8C9 2.5 8.7 2.2 8.4 2.2C8.1 2.2 7.8 2.5 7.7 2.8C7.7 3.2 8 3.5 8.3 3.5C8.7 3.4 9 3.1 9 2.8Z" fill="url(#paint0_linear_1561_1782)"/>
<path d="M4.00001 3.40004C4.00001 3.60004 3.90001 3.80004 3.70001 4.00004C2.70001 4.90003 2.10001 5.90004 1.70001 7.20004C1.60001 7.60004 1.50001 8.00004 1.40001 8.40004C1.30001 8.80004 1.10002 9.10004 0.800015 9.10004C0.400015 9.20004 1.43871e-05 8.80004 0.100014 8.40004C0.300014 6.80004 0.900014 5.30004 1.90001 4.10004C2.20001 3.70004 2.60001 3.40004 2.90001 3.00004C3.10001 2.80004 3.40001 2.80004 3.60001 2.90004C3.90001 2.90004 4.00001 3.10004 4.00001 3.40004Z" fill="url(#paint1_linear_1561_1782)"/>
<path d="M16.7 8.40005C16.7 8.70005 16.4 9.00005 16.1 9.10005C15.8 9.10005 15.5 8.90005 15.4 8.50005C15.2 6.70005 14.4 5.10005 13.1 3.90005C12.8 3.60005 12.7 3.20005 13 2.90005C13.3 2.60005 13.6 2.60005 14 2.90005C15.5 4.30005 16.4 6.00005 16.7 8.10005C16.7 8.20005 16.7 8.30005 16.7 8.40005Z" fill="url(#paint2_linear_1561_1782)"/>
<defs>
<linearGradient id="paint0_linear_1561_1782" x1="1.0015" y1="10.7749" x2="15.7856" y2="10.7749" gradientUnits="userSpaceOnUse">
<stop stop-color="#247CBE"/>
<stop offset="1" stop-color="#5DA4D9"/>
</linearGradient>
<linearGradient id="paint1_linear_1561_1782" x1="0.124014" y1="5.90634" x2="4.00231" y2="5.90634" gradientUnits="userSpaceOnUse">
<stop stop-color="#247CBE"/>
<stop offset="1" stop-color="#5DA4D9"/>
</linearGradient>
<linearGradient id="paint2_linear_1561_1782" x1="12.8186" y1="5.89265" x2="16.6979" y2="5.89265" gradientUnits="userSpaceOnUse">
<stop stop-color="#247CBE"/>
<stop offset="1" stop-color="#5DA4D9"/>
</linearGradient>
</defs>
</svg>
