<svg width="40" height="40" viewBox="0 0 40 40" fill="none" xmlns="http://www.w3.org/2000/svg">
<path opacity="0.5" d="M3.79926 26.5376C3.79926 21.9674 3.79926 19.6823 5.21905 18.2625C6.63884 16.8427 8.92396 16.8427 13.4942 16.8427H26.4208C30.991 16.8427 33.2761 16.8427 34.696 18.2625C36.1158 19.6823 36.1158 21.9674 36.1158 26.5376C36.1158 31.1078 36.1158 33.3929 34.696 34.8127C33.2761 36.2326 30.991 36.2326 26.4208 36.2326H13.4942C8.92396 36.2326 6.63884 36.2326 5.21905 34.8127C3.79926 33.3929 3.79926 31.1078 3.79926 26.5376Z" fill="#5EA5D9"/>
<path d="M13.4942 28.1535C14.3866 28.1535 15.1101 27.4301 15.1101 26.5376C15.1101 25.6452 14.3866 24.9218 13.4942 24.9218C12.6019 24.9218 11.8784 25.6452 11.8784 26.5376C11.8784 27.4301 12.6019 28.1535 13.4942 28.1535Z" fill="#5EA5D9"/>
<path d="M19.9576 28.1535C20.85 28.1535 21.5734 27.4301 21.5734 26.5376C21.5734 25.6452 20.85 24.9218 19.9576 24.9218C19.0651 24.9218 18.3417 25.6452 18.3417 26.5376C18.3417 27.4301 19.0651 28.1535 19.9576 28.1535Z" fill="#5EA5D9"/>
<path d="M28.0367 26.5376C28.0367 27.4301 27.3133 28.1535 26.4209 28.1535C25.5285 28.1535 24.8051 27.4301 24.8051 26.5376C24.8051 25.6452 25.5285 24.9218 26.4209 24.9218C27.3133 24.9218 28.0367 25.6452 28.0367 26.5376Z" fill="#5EA5D9"/>
<path d="M11.4745 13.611C11.4745 8.92592 15.2725 5.1279 19.9575 5.1279C24.6426 5.1279 28.4406 8.92592 28.4406 13.611V16.8485C29.3575 16.857 30.1591 16.8782 30.8644 16.9309V13.611C30.8644 7.58732 25.9812 2.70416 19.9575 2.70416C13.9339 2.70416 9.05072 7.58732 9.05072 13.611V16.9309C9.75604 16.8782 10.5577 16.857 11.4745 16.8485V13.611Z" fill="#5EA5D9"/>
</svg>
