<svg width="58" height="58" viewBox="0 0 58 58" fill="none" xmlns="http://www.w3.org/2000/svg">
<path d="M38.2837 29.2645C41.8539 30.9498 44.898 33.5751 47.0897 36.8588C49.2814 40.1425 50.538 43.9608 50.7247 47.9043C50.7496 48.2655 50.7021 48.6281 50.5849 48.9707C50.4678 49.3133 50.2834 49.6291 50.0426 49.8994C49.8017 50.1698 49.5093 50.3894 49.1825 50.5452C48.8557 50.701 48.501 50.79 48.1393 50.8069C47.7776 50.8238 47.4162 50.7683 47.0763 50.6436C46.7363 50.5189 46.4247 50.3276 46.1597 50.0809C45.8947 49.8341 45.6817 49.5369 45.5331 49.2068C45.3845 48.8766 45.3034 48.52 45.2945 48.158C45.0969 43.9695 43.2938 40.0178 40.2597 37.1235C37.2256 34.2291 33.1934 32.6143 29.0001 32.6143C24.8069 32.6143 20.7746 34.2291 17.7405 37.1235C14.7064 40.0178 12.9034 43.9695 12.7057 48.158C12.6569 48.867 12.3324 49.5287 11.8017 50.0014C11.2711 50.4741 10.5764 50.7202 9.8665 50.687C9.15661 50.6539 8.48793 50.344 8.00365 49.8239C7.51937 49.3038 7.25799 48.6147 7.27548 47.9043C7.46192 43.9612 8.71797 40.1431 10.909 36.8595C13.1 33.5758 16.1434 30.9503 19.7129 29.2645C17.4255 27.3567 15.7814 24.7905 15.0042 21.9151C14.2269 19.0398 14.3543 15.9948 15.3689 13.1943C16.3835 10.3939 18.2362 7.97396 20.6748 6.26373C23.1135 4.5535 26.0197 3.63599 28.9983 3.63599C31.9769 3.63599 34.8831 4.5535 37.3218 6.26373C39.7604 7.97396 41.6131 10.3939 42.6277 13.1943C43.6423 15.9948 43.7697 19.0398 42.9924 21.9151C42.2152 24.7905 40.5711 27.3567 38.2837 29.2645ZM38.0626 18.1249C38.0626 15.7214 37.1078 13.4163 35.4083 11.7168C33.7087 10.0172 31.4036 9.06242 29.0001 9.06242C26.5966 9.06242 24.2915 10.0172 22.592 11.7168C20.8924 13.4163 19.9376 15.7214 19.9376 18.1249C19.9376 20.5284 20.8924 22.8335 22.592 24.5331C24.2915 26.2326 26.5966 27.1874 29.0001 27.1874C31.4036 27.1874 33.7087 26.2326 35.4083 24.5331C37.1078 22.8335 38.0626 20.5284 38.0626 18.1249Z" fill="#157DBC"/>
</svg>
