<svg width="46" height="46" viewBox="0 0 46 46" fill="none" xmlns="http://www.w3.org/2000/svg">
<path fill-rule="evenodd" clip-rule="evenodd" d="M41.0421 31.0687L21.5625 24.4375V2.875C32.7448 2.81894 42.9654 12.4804 42.9654 23.8208C42.9654 26.7792 42.1921 29.0231 41.0421 31.0687ZM20.8438 43.125C10.9207 43.125 2.875 35.0807 2.875 25.1562C2.875 16.1144 9.94319 8.44963 18.6875 7.1875V26.4917L36.9567 32.8541C34.5259 38.9965 27.5468 43.125 20.8438 43.125ZM21.5625 0H18.6875V4.3125C8.22394 5.44669 0 14.4124 0 25.1562C0 36.6678 9.33225 46 20.8438 46C29.3336 46 36.626 40.9156 39.8733 33.6332L43.125 34.5C44.6962 31.9197 46 28.2569 46 23.8208C46 10.6648 34.5072 0 21.5625 0Z" fill="white"/>
</svg>
