<svg width="27" height="26" viewBox="0 0 27 26" fill="none" xmlns="http://www.w3.org/2000/svg">
<path d="M12.2377 0C13.2045 0 14.1714 0 15.1383 0H15.2457C15.9977 0.214856 16.32 0.644587 16.4274 1.39658C16.5348 1.93372 16.5348 2.5783 16.6422 3.11544C16.6422 3.33029 16.7497 3.33028 16.8571 3.43771C17.1794 3.54514 17.6091 3.65256 17.9314 3.86741C18.0388 3.97484 18.1462 3.86741 18.2537 3.86741C18.6834 3.54513 19.1131 3.22285 19.5428 2.79313C20.2948 2.25599 21.0468 2.256 21.6914 2.90057C22.2285 3.43771 22.7657 3.97485 23.3028 4.51199C23.9474 5.15656 23.9474 6.01598 23.4102 6.66055C23.0879 7.09026 22.6582 7.62739 22.3359 8.0571C22.3359 8.16453 22.2285 8.27197 22.3359 8.3794C22.4434 8.80911 22.6582 9.1314 22.7657 9.56112C22.7657 9.66854 22.8731 9.77595 22.9805 9.77595C23.4102 9.88338 23.8399 9.88339 24.2696 9.99082C24.6994 10.0982 25.2365 10.0982 25.5588 10.4205C25.8811 10.6354 25.9885 10.9577 26.0959 11.3874C26.0959 12.3542 26.0959 13.3211 26.0959 14.2879V14.3954C25.8811 15.1474 25.4513 15.4696 24.6993 15.5771C24.1622 15.6845 23.6251 15.6845 22.9805 15.7919C22.7656 15.7919 22.7656 15.8994 22.6582 16.0068C22.5508 16.3291 22.4434 16.6514 22.2285 16.9736C22.1211 17.0811 22.1211 17.1885 22.2285 17.4033C22.5508 17.8331 22.9805 18.2628 23.3028 18.7999C23.8399 19.4445 23.7325 20.3039 23.1954 20.9485C22.6582 21.4856 22.1211 22.0227 21.5839 22.5599C20.9394 23.2044 20.0799 23.2044 19.4354 22.6673C19.0057 22.345 18.576 21.9153 18.0388 21.593C17.9314 21.4856 17.824 21.4856 17.7165 21.593C17.3942 21.8079 16.9645 21.9153 16.6422 22.0227C16.5348 22.0227 16.4274 22.1302 16.4274 22.2376C16.4274 22.6673 16.32 23.097 16.32 23.5268C16.2125 23.9565 16.2125 24.3861 15.9977 24.7084C15.7828 25.0307 15.3531 25.2456 14.9234 25.353C13.9565 25.353 12.9897 25.353 12.0229 25.353H11.9154C11.1634 25.1382 10.8411 24.7085 10.7337 23.9565C10.6263 23.4193 10.6263 22.7747 10.5189 22.2376C10.5189 22.0227 10.4114 22.0228 10.304 21.9153C9.98172 21.8079 9.65944 21.7004 9.33716 21.4856C9.22973 21.3782 9.12231 21.3782 8.90745 21.4856C8.47774 21.8079 8.04801 22.2376 7.51087 22.5599C6.8663 23.097 6.00688 22.9896 5.36231 22.4525C4.82517 21.9153 4.28803 21.3782 3.75089 20.8411C3.10632 20.1965 3.10632 19.4445 3.64346 18.6925C3.96574 18.2628 4.28802 17.8331 4.71774 17.4033C4.82516 17.2959 4.82516 17.1885 4.71774 17.0811C4.50288 16.7588 4.39546 16.4365 4.28803 16.0068C4.1806 15.7919 4.18061 15.7919 3.96576 15.7919C3.42862 15.6845 2.89147 15.6845 2.2469 15.5771C1.81719 15.5771 1.49491 15.3622 1.17263 15.0399C0.957769 14.8251 0.850348 14.5028 0.74292 14.2879C0.74292 13.3211 0.74292 12.3542 0.74292 11.3874C0.74292 11.3874 0.74292 11.3874 0.74292 11.2799C0.957776 10.5279 1.38747 10.2057 2.13947 10.0983C2.67661 9.99083 3.21376 9.99081 3.85832 9.88339C4.07318 9.88339 4.07317 9.77594 4.1806 9.66852C4.28802 9.34623 4.50291 8.91652 4.61033 8.59424C4.71776 8.48681 4.71776 8.37939 4.61033 8.27197C4.28805 7.84225 3.96577 7.41253 3.53605 6.98282C2.99891 6.23082 2.99889 5.47883 3.64346 4.83426C4.1806 4.29712 4.71776 3.75999 5.14747 3.33027C5.79204 2.68571 6.65146 2.57827 7.29603 3.22284C7.72574 3.54512 8.15544 3.97483 8.69258 4.29712C8.80001 4.40455 8.90743 4.40455 9.01485 4.29712C9.33714 4.08226 9.76685 3.97484 10.0891 3.86741C10.1966 3.86741 10.304 3.76 10.304 3.65258C10.4114 3.22287 10.4114 2.79314 10.5189 2.36343C10.6263 1.93372 10.6263 1.504 10.8411 1.18171C11.4857 0.32229 11.808 0.107428 12.2377 0ZM13.7417 24.1713C14.064 24.1713 14.3863 24.1713 14.816 24.1713C15.2457 24.1713 15.4605 24.0639 15.4605 23.5268C15.568 22.8822 15.6754 22.1302 15.6754 21.4856C15.6754 21.1633 15.8903 21.0559 16.1051 20.9485C16.6422 20.7336 17.2868 20.5188 17.824 20.1965C18.1462 20.0891 18.3611 20.0891 18.576 20.3039C19.1131 20.7336 19.6502 21.1633 20.1874 21.593C20.5097 21.9153 20.7245 21.9153 21.0468 21.593C21.5839 21.0559 22.0136 20.6262 22.5508 20.089C22.8731 19.7668 22.8731 19.5519 22.5508 19.1222C22.1211 18.5851 21.6914 18.0479 21.2617 17.5108C21.0468 17.2959 21.0468 17.0811 21.1542 16.7588C21.3691 16.2216 21.6914 15.5771 21.9062 15.0399C22.0136 14.7176 22.2285 14.6102 22.4433 14.6102C23.1953 14.5028 23.8399 14.3954 24.4845 14.3954C24.9142 14.3954 25.0216 14.1805 25.0216 13.7508C25.0216 12.9988 25.0216 12.3542 25.0216 11.6022C25.0216 11.1725 24.8068 11.0651 24.4845 10.9577C23.8399 10.8502 23.0879 10.7428 22.4433 10.7428C22.1211 10.7428 22.0136 10.5279 21.9062 10.3131C21.6914 9.77595 21.4765 9.13138 21.1542 8.59424C21.0468 8.27195 21.0468 8.05712 21.2617 7.84226C21.6914 7.30512 22.1211 6.76798 22.5508 6.23084C22.8731 5.80113 22.8731 5.69371 22.5508 5.264C22.0136 4.72686 21.5839 4.29712 21.0468 3.75998C20.7245 3.4377 20.5097 3.4377 20.1874 3.75998C19.6502 4.18969 19.1131 4.61942 18.576 5.04913C18.3611 5.26398 18.1462 5.26399 17.824 5.15656C17.2868 4.94171 16.7497 4.61942 16.1051 4.51199C15.7828 4.40456 15.6754 4.1897 15.568 3.86741C15.4605 3.22285 15.3531 2.47086 15.3531 1.82629C15.3531 1.39658 15.1383 1.28915 14.7086 1.28915C13.9566 1.28915 13.312 1.28915 12.56 1.28915C12.1303 1.28915 11.9154 1.39658 11.9154 1.82629C11.808 2.47086 11.7006 3.22285 11.7006 3.86741C11.7006 4.1897 11.4857 4.40456 11.1634 4.51199C10.6263 4.72684 10.0892 4.94171 9.44459 5.15656C9.12231 5.26399 8.90744 5.26398 8.69258 5.04913C8.15544 4.61942 7.6183 4.18969 6.97373 3.75998C6.65144 3.54512 6.4366 3.54513 6.11432 3.86741C5.57718 4.40455 5.14747 4.83426 4.61033 5.3714C4.28805 5.69368 4.28805 5.90856 4.61033 6.23084C5.04005 6.76798 5.46974 7.30512 5.89945 7.84226C6.11431 8.05712 6.11431 8.27195 6.00688 8.59424C5.79203 9.13138 5.46974 9.66852 5.36231 10.3131C5.25488 10.6354 5.04002 10.7428 4.71774 10.8502C4.07317 10.9577 3.32118 11.0651 2.67661 11.0651C2.2469 11.1725 2.13947 11.28 2.13947 11.7097C2.13947 12.3542 2.13947 13.1062 2.13947 13.7508C2.13947 14.1805 2.2469 14.3954 2.67661 14.3954C3.32118 14.5028 4.07317 14.6102 4.71774 14.6102C5.04002 14.6102 5.14745 14.8251 5.25487 15.0399C5.46973 15.5771 5.68459 16.1142 5.89945 16.7588C6.00688 17.0811 6.00687 17.2959 5.79201 17.5108C5.3623 18.0479 4.93261 18.5851 4.5029 19.2296C4.28804 19.5519 4.28805 19.7668 4.61033 20.089C5.14747 20.6262 5.57718 21.0559 6.11432 21.593C6.4366 21.9153 6.65144 21.9153 6.97373 21.593C7.51087 21.1633 8.04802 20.7336 8.69258 20.3039C8.90744 20.0891 9.1223 20.0891 9.33716 20.1965C9.8743 20.4113 10.4114 20.7336 11.056 20.9485C11.3783 21.0559 11.4857 21.2707 11.5932 21.593C11.7006 22.2376 11.808 22.9896 11.808 23.6342C11.808 24.0639 12.0229 24.1713 12.4526 24.1713C12.9897 24.1713 13.312 24.1713 13.7417 24.1713Z" fill="url(#paint0_linear_152_3476)"/>
<path d="M13.8492 17.8333C11.0561 17.9407 8.58523 15.6848 8.4778 12.7842C8.37038 9.88364 10.6264 7.52023 13.5269 7.4128C16.3201 7.30537 18.7909 9.56134 18.8983 12.4619C19.1132 15.255 16.7498 17.7259 13.8492 17.8333ZM17.9315 12.5693C17.9315 10.2059 16.1052 8.37965 13.7418 8.37965C11.3784 8.37965 9.55208 10.2059 9.55208 12.5693C9.55208 14.9327 11.3784 16.759 13.7418 16.759C15.9978 16.759 17.9315 14.9327 17.9315 12.5693Z" fill="url(#paint1_linear_152_3476)"/>
<defs>
<linearGradient id="paint0_linear_152_3476" x1="1.13449" y1="12.6042" x2="26.279" y2="12.6042" gradientUnits="userSpaceOnUse">
<stop stop-color="#247CBE"/>
<stop offset="1" stop-color="#5DA4D9"/>
</linearGradient>
<linearGradient id="paint1_linear_152_3476" x1="8.46448" y1="12.6046" x2="18.949" y2="12.6046" gradientUnits="userSpaceOnUse">
<stop stop-color="#247CBE"/>
<stop offset="1" stop-color="#5DA4D9"/>
</linearGradient>
</defs>
</svg>
