<svg width="27" height="27" viewBox="0 0 27 27" fill="none" xmlns="http://www.w3.org/2000/svg">
<path d="M0.280273 19.6593C0.280273 19.4445 0.387708 19.2296 0.387708 19.0148C0.924848 17.2959 2.53625 16.1142 4.36252 16.2216C6.1888 16.3291 7.69281 17.7256 7.90767 19.5519C8.22995 21.593 6.72596 23.6342 4.68483 23.849C2.53627 24.1713 0.602557 22.7747 0.280273 20.6262V20.5188C0.280273 20.3039 0.280273 19.9816 0.280273 19.6593ZM4.14769 17.8331C2.85855 17.8331 1.89169 18.9073 1.78426 20.089C1.78426 21.3782 2.85854 22.4525 4.04025 22.4525C5.32939 22.4525 6.29622 21.3782 6.40365 20.1965C6.40365 18.7999 5.43682 17.8331 4.14769 17.8331Z" fill="url(#paint0_linear_152_3480)"/>
<path d="M26.4927 20.6262C26.4927 20.841 26.3853 21.0559 26.3853 21.1633C25.8481 23.097 23.9144 24.2787 21.9807 23.9564C20.047 23.6342 18.6505 21.8079 18.8653 19.8742C18.9727 17.9405 20.5842 16.4365 22.5179 16.329C24.4516 16.2216 26.1704 17.6182 26.4927 19.5519C26.4927 19.6593 26.4927 19.7667 26.6001 19.7667C26.4927 19.9816 26.4927 20.3039 26.4927 20.6262ZM22.7327 22.4524C24.0219 22.4524 24.9887 21.3782 24.9887 20.1965C24.9887 18.9073 23.9144 17.833 22.6253 17.833C21.3362 17.833 20.3693 18.9073 20.3693 20.089C20.3693 21.3782 21.4436 22.4524 22.7327 22.4524Z" fill="url(#paint1_linear_152_3480)"/>
<path d="M13.8162 0C14.031 0 14.2459 0.107435 14.4607 0.107435C16.1796 0.644574 17.3613 2.25599 17.2539 4.08227C17.1464 5.90854 15.7499 7.41254 13.9236 7.62739C11.8825 7.94968 9.84133 6.44568 9.62647 4.40455C9.30419 2.25599 10.7008 0.322284 12.8493 0H12.9567C13.279 0 13.6013 0 13.8162 0ZM13.3865 1.61142C12.0973 1.61142 11.0231 2.68571 11.0231 3.86741C11.0231 5.15655 12.0973 6.23083 13.2791 6.23083C14.5682 6.23083 15.6424 5.15654 15.6424 3.97483C15.7499 2.57827 14.6756 1.61142 13.3865 1.61142Z" fill="url(#paint2_linear_152_3480)"/>
<path d="M12.6345 26.3198C12.2048 26.2124 11.6677 26.2124 11.238 26.105C10.1637 25.8901 9.19683 25.5678 8.22998 25.0307C8.44484 24.601 8.6597 24.1713 8.87455 23.6341C11.8825 25.0307 14.8905 25.0307 17.8985 23.6341C18.0059 23.849 18.1133 24.0638 18.2208 24.2787C18.3282 24.4936 18.4356 24.7084 18.5431 25.0307C18.0059 25.2455 17.5762 25.4604 17.1465 25.5678C16.2871 25.8901 15.3202 26.105 14.3534 26.105C14.246 26.105 14.2459 26.105 14.1385 26.105C13.6014 26.3198 13.1717 26.3198 12.6345 26.3198Z" fill="url(#paint3_linear_152_3480)"/>
<path d="M3.39559 14.1804C2.85845 14.1804 2.42874 14.1805 1.8916 14.073C1.99903 12.4616 2.42875 10.9576 3.07332 9.56104C4.04017 7.73477 5.32928 6.23078 7.04813 5.04907C7.37041 5.47878 7.58529 5.90849 7.90757 6.3382C5.22188 8.27191 3.71787 10.8502 3.39559 14.1804Z" fill="url(#paint4_linear_152_3480)"/>
<path d="M24.8812 14.073C24.3441 14.073 23.9144 14.1804 23.3772 14.1804C23.0549 10.8502 21.5509 8.27191 18.8652 6.3382C19.1875 5.90849 19.4024 5.47878 19.7247 5.04907C23.1624 7.30506 24.7738 10.9576 24.8812 14.073Z" fill="url(#paint5_linear_152_3480)"/>
<defs>
<linearGradient id="paint0_linear_152_3480" x1="0.249012" y1="20.1085" x2="7.94698" y2="20.1085" gradientUnits="userSpaceOnUse">
<stop stop-color="#247CBE"/>
<stop offset="1" stop-color="#5DA4D9"/>
</linearGradient>
<linearGradient id="paint1_linear_152_3480" x1="18.8386" y1="20.1141" x2="26.546" y2="20.1141" gradientUnits="userSpaceOnUse">
<stop stop-color="#247CBE"/>
<stop offset="1" stop-color="#5DA4D9"/>
</linearGradient>
<linearGradient id="paint2_linear_152_3480" x1="9.55321" y1="3.88062" x2="17.2516" y2="3.88062" gradientUnits="userSpaceOnUse">
<stop stop-color="#247CBE"/>
<stop offset="1" stop-color="#5DA4D9"/>
</linearGradient>
<linearGradient id="paint3_linear_152_3480" x1="8.19131" y1="25.0283" x2="18.615" y2="25.0283" gradientUnits="userSpaceOnUse">
<stop stop-color="#247CBE"/>
<stop offset="1" stop-color="#5DA4D9"/>
</linearGradient>
<linearGradient id="paint4_linear_152_3480" x1="1.86453" y1="9.60477" x2="7.90467" y2="9.60477" gradientUnits="userSpaceOnUse">
<stop stop-color="#247CBE"/>
<stop offset="1" stop-color="#5DA4D9"/>
</linearGradient>
<linearGradient id="paint5_linear_152_3480" x1="18.8903" y1="9.61046" x2="24.9137" y2="9.61046" gradientUnits="userSpaceOnUse">
<stop stop-color="#247CBE"/>
<stop offset="1" stop-color="#5DA4D9"/>
</linearGradient>
</defs>
</svg>
