<svg width="52" height="52" viewBox="0 0 52 52" fill="none" xmlns="http://www.w3.org/2000/svg">
<path d="M17.2086 13C17.2086 8.14454 21.1448 4.20837 26.0002 4.20837C30.8558 4.20837 34.7919 8.14453 34.7919 13C34.7919 17.8555 30.8558 21.7917 26.0002 21.7917C21.1448 21.7917 17.2086 17.8555 17.2086 13ZM26.0002 4.45837C21.2828 4.45837 17.4586 8.28261 17.4586 13C17.4586 17.7175 21.2828 21.5417 26.0002 21.5417C30.7178 21.5417 34.5419 17.7175 34.5419 13C34.5419 8.28262 30.7178 4.45837 26.0002 4.45837Z" fill="white" stroke="white" stroke-width="3"/>
<path d="M41.9759 32.6511L41.9757 32.6509C41.9263 32.603 41.8474 32.6041 41.7992 32.6537L41.7991 32.6538L39.0851 35.4501L37.9239 36.6465L36.8565 35.3657L36.2071 34.5866C36.2071 34.5866 36.2071 34.5866 36.2071 34.5866C36.1631 34.5338 36.0843 34.5264 36.0311 34.5706L41.9759 32.6511ZM41.9759 32.6511C42.0255 32.6993 42.0265 32.7782 41.9786 32.8276L41.9785 32.8277M41.9759 32.6511L41.9785 32.8277M41.9785 32.8277L38.0066 36.9203M41.9785 32.8277L38.0066 36.9203M38.0066 36.9203C37.9817 36.9459 37.9473 36.9597 37.912 36.9583M38.0066 36.9203L37.912 36.9583M37.912 36.9583L37.8556 38.4573L37.912 36.9583ZM36.015 34.7468C36.015 34.7468 36.015 34.7468 36.015 34.7467C35.9709 34.6938 35.9779 34.6151 36.0309 34.5707L36.015 34.7468Z" fill="white" stroke="white" stroke-width="3"/>
<path d="M32.4717 28.7297L31.724 28.5834C29.9304 28.2323 28.0044 28.0417 26.0002 28.0417C21.1964 28.0417 16.8412 29.1367 13.6825 30.9133L32.4717 28.7297ZM32.4717 28.7297L33.0309 28.2122M32.4717 28.7297L33.0309 28.2122M33.0309 28.2122C34.5998 26.7604 36.6949 25.875 39.0002 25.875C43.8558 25.875 47.7919 29.8111 47.7919 34.6667C47.7919 37.9225 46.0229 40.7669 43.3865 42.288L42.9735 42.5263L42.7739 42.9593C42.164 44.2823 40.999 45.437 38.7361 46.2793L38.736 46.2793C36.1549 47.2403 32.1655 47.7917 26.0002 47.7917C21.6629 47.7917 18.4037 47.5186 15.9548 47.0231C13.5064 46.5273 11.8596 45.8076 10.7547 44.9078L10.7547 44.9078C8.60211 43.1549 8.53931 40.7348 8.54183 38.1391L8.54183 38.1385L8.54196 37.9175V37.9167M33.0309 28.2122L8.54196 37.9167M8.54196 37.9167C8.54196 35.1622 10.5238 32.6903 13.6825 30.9134L8.54196 37.9167ZM31.1438 30.7159L32.0927 28.8331L30.0028 28.554C28.7193 28.3827 27.3792 28.2917 26.0002 28.2917C21.2312 28.2917 16.9198 29.3793 13.8051 31.1313C10.6804 32.8888 8.79196 35.2942 8.79196 37.9167C8.79196 40.6101 8.79593 42.9903 10.9124 44.7139C11.9743 45.5788 13.5776 46.2868 16.0043 46.778L16.0043 46.778C18.4305 47.269 21.6713 47.5417 26.0002 47.5417C31.6388 47.5417 35.4195 47.0785 37.9565 46.282L37.7229 43.3665C33.4732 42.7488 30.2086 39.0877 30.2086 34.6667C30.2086 33.2429 30.5459 31.9021 31.1438 30.7159ZM39.0002 26.125C34.2829 26.125 30.4586 29.9493 30.4586 34.6667C30.4586 39.384 34.2829 43.2083 39.0002 43.2083C43.7179 43.2083 47.5419 39.384 47.5419 34.6667C47.5419 29.9493 43.7179 26.125 39.0002 26.125Z" fill="white" stroke="white" stroke-width="3"/>
</svg>
