<svg width="20" height="20" viewBox="0 0 20 20" fill="none" xmlns="http://www.w3.org/2000/svg">
<path d="M16.3435 1.60717H15.5818V5.71432C15.5818 5.81058 15.526 5.89707 15.4381 5.93753C15.3502 5.97799 15.2484 5.96264 15.1744 5.89986L13.7919 4.68893H13.7933C13.6998 4.61081 13.5645 4.61081 13.471 4.68893L12.0885 5.89986H12.0899C12.0159 5.96264 11.9141 5.97799 11.8262 5.93753C11.7383 5.89707 11.6825 5.81058 11.6825 5.71432V1.60717H4.93179C4.7016 1.60717 4.51465 1.79412 4.51465 2.02571V17.26C4.51465 17.4916 4.70159 17.6785 4.93179 17.6785H16.3604C17.0705 17.6785 17.6467 17.1024 17.6467 16.3922V2.89332C17.6467 2.54873 17.5085 2.21949 17.2644 1.97674C17.0189 1.73539 16.6867 1.60299 16.3435 1.60717Z" fill="#7B7B7B"/>
</svg>
