<svg width="29" height="29" viewBox="0 0 29 29" fill="none" xmlns="http://www.w3.org/2000/svg">
<g clip-path="url(#clip0_153_3504)">
<path d="M7.88359 12.9377C6.24106 12.9377 4.90479 11.6014 4.90479 9.95891C4.90479 8.31638 6.24114 6.9801 7.88359 6.9801C9.52612 6.9801 10.8624 8.31646 10.8624 9.95891C10.8624 11.6014 9.52612 12.9377 7.88359 12.9377ZM7.88359 8.16952C6.89695 8.16952 6.09428 8.97219 6.09428 9.95883C6.09428 10.9455 6.89695 11.7481 7.88359 11.7481C8.87024 11.7481 9.67291 10.9455 9.67291 9.95883C9.67291 8.97219 8.87024 8.16952 7.88359 8.16952Z" fill="#157DBC"/>
<path d="M28.4053 21.2651H27.6278V4.21413C27.6278 3.88559 27.3615 3.61938 27.0331 3.61938H1.96687C1.63841 3.61938 1.37212 3.88559 1.37212 4.21413V21.2651H0.594747C0.266209 21.2651 0 21.5314 0 21.8599V23.557C0 23.8856 0.266209 24.1518 0.594747 24.1518H3.55444V24.7859C3.55444 25.1144 3.82065 25.3806 4.14919 25.3806H11.4293C11.7578 25.3806 12.024 25.1144 12.024 24.7859V24.1518H28.4053C28.7338 24.1518 29 23.8856 29 23.557V21.8599C29 21.5313 28.7338 21.2651 28.4053 21.2651ZM3.55444 22.9623H1.18949V22.4546H3.55444V22.9623ZM3.55444 14.9694V21.2651H2.56161V4.80888H26.4384V21.2651H12.024V18.2101L14.3233 20.2409C14.5226 20.3966 14.6954 20.391 14.7288 20.3898C14.8902 20.387 15.0434 20.3187 15.1533 20.2005L19.9031 15.0966C20.175 14.8074 20.315 14.4311 20.2974 14.0369C20.2829 13.7143 20.1623 13.4129 19.956 13.1671L23.4422 9.42609C23.6661 9.18582 23.6528 8.80946 23.4126 8.58544C23.1723 8.36158 22.7959 8.37498 22.5719 8.6151L19.0895 12.3521C18.8429 12.1703 18.5434 12.0725 18.2293 12.0795C17.8358 12.0859 17.4551 12.2547 17.1862 12.5411L14.5714 15.3432C14.5714 15.3432 12.5705 13.4704 12.5477 13.4545C12.2097 13.1891 11.7893 13.0434 11.3585 13.0434H5.48023C4.41841 13.0435 3.55444 13.9075 3.55444 14.9694ZM19.0005 13.885C19.0045 13.8888 19.0085 13.8924 19.0125 13.896C19.0881 13.9634 19.1067 14.0386 19.109 14.0899C19.1122 14.1606 19.0864 14.2287 19.0334 14.2851L18.5697 14.7858L17.579 13.8571L18.0519 13.3569C18.1224 13.2819 18.2056 13.2694 18.2488 13.2688C18.2848 13.2689 18.3551 13.2753 18.4095 13.3296C18.4137 13.3337 18.418 13.3379 18.4223 13.3418L19.0005 13.885ZM11.823 16.4454C11.6478 16.2905 11.398 16.253 11.1848 16.349C10.9716 16.4452 10.8345 16.6573 10.8345 16.8912V24.1911H4.74394V14.9694C4.74394 14.5634 5.07422 14.233 5.48023 14.233H11.3586C11.5772 14.233 11.7337 14.3243 11.8266 14.4008C11.8268 14.401 11.8271 14.4012 11.8273 14.4014L14.1943 16.6201C14.3098 16.7285 14.4636 16.7871 14.622 16.7806C14.7802 16.7751 14.9296 16.7066 15.0372 16.5906L16.766 14.7254L17.7602 15.6574L14.6773 18.9665L11.823 16.4454ZM27.8105 22.9623H12.024V22.4546H27.8105V22.9623Z" fill="#157DBC"/>
</g>
<defs>
<clipPath id="clip0_153_3504">
<rect width="29" height="29" fill="white"/>
</clipPath>
</defs>
</svg>
