<svg width="19" height="15" viewBox="0 0 19 15" fill="none" xmlns="http://www.w3.org/2000/svg">
<path d="M5.16513 6.47602C4.08899 6.47602 3.2135 5.60053 3.2135 4.52439C3.2135 3.44825 4.08904 2.57275 5.16513 2.57275C6.24127 2.57275 7.11677 3.4483 7.11677 4.52439C7.11677 5.60053 6.24127 6.47602 5.16513 6.47602ZM5.16513 3.35202C4.51871 3.35202 3.99282 3.87791 3.99282 4.52433C3.99282 5.17076 4.51871 5.69664 5.16513 5.69664C5.81156 5.69664 6.33744 5.17076 6.33744 4.52433C6.33744 3.87791 5.81156 3.35202 5.16513 3.35202Z" fill="#7B7B7B"/>
<path d="M18.6103 11.9321H18.101V0.760755C18.101 0.545506 17.9265 0.371094 17.7113 0.371094H1.28864C1.07344 0.371094 0.898975 0.545506 0.898975 0.760755V11.9321H0.389662C0.174412 11.9321 0 12.1066 0 12.3218V13.4337C0 13.6489 0.174412 13.8234 0.389662 13.8234H2.32877V14.2388C2.32877 14.454 2.50319 14.6284 2.71843 14.6284H7.48815C7.7034 14.6284 7.87781 14.454 7.87781 14.2388V13.8234H18.6103C18.8256 13.8234 19 13.6489 19 13.4337V12.3218C19 12.1065 18.8256 11.9321 18.6103 11.9321ZM2.32877 13.044H0.779323V12.7114H2.32877V13.044ZM2.32877 7.80734V11.9321H1.6783V1.15042H17.3217V11.9321H7.87781V9.93053L9.38424 11.261C9.51481 11.3631 9.62802 11.3594 9.64989 11.3586C9.75562 11.3567 9.85605 11.312 9.92806 11.2346L13.0399 7.89068C13.2181 7.7012 13.3098 7.45462 13.2983 7.19635C13.2888 6.985 13.2098 6.78752 13.0747 6.62651L15.3587 4.17549C15.5054 4.01807 15.4967 3.77149 15.3393 3.62472C15.1818 3.47805 14.9353 3.48683 14.7885 3.64415L12.5069 6.09252C12.3454 5.97344 12.1491 5.90933 11.9433 5.9139C11.6855 5.91811 11.4361 6.02872 11.2599 6.21633L9.54676 8.05221C9.54676 8.05221 8.23583 6.82519 8.22092 6.8148C7.99949 6.6409 7.72403 6.54546 7.44181 6.54546H3.5905C2.89482 6.54551 2.32877 7.11156 2.32877 7.80734ZM12.4486 7.09686C12.4512 7.0993 12.4538 7.10169 12.4564 7.10408C12.506 7.14819 12.5182 7.1975 12.5197 7.23111C12.5218 7.2774 12.5049 7.32203 12.4702 7.35897L12.1663 7.68702L11.5173 7.07857L11.8271 6.75084C11.8733 6.70169 11.9278 6.69353 11.9561 6.69312C11.9797 6.69322 12.0258 6.69738 12.0614 6.73297C12.0642 6.73567 12.0669 6.73837 12.0698 6.74097L12.4486 7.09686ZM7.74611 8.77438C7.63129 8.67286 7.46763 8.64828 7.32797 8.7112C7.18832 8.77422 7.09849 8.9132 7.09849 9.06642V13.8491H3.1081V7.80734C3.1081 7.54128 3.32449 7.32484 3.5905 7.32484H7.44186C7.58505 7.32484 7.68761 7.38464 7.74845 7.43477C7.7486 7.43493 7.74876 7.43503 7.74891 7.43519L9.29971 8.88883C9.37536 8.95981 9.47615 8.9982 9.57991 8.99394C9.68356 8.99035 9.78149 8.94547 9.85194 8.86946L10.9846 7.64748L11.636 8.25805L9.61617 10.4261L7.74611 8.77438ZM18.2207 13.044H7.87781V12.7114H18.2207V13.044Z" fill="#7B7B7B"/>
</svg>
