<svg width="13" height="14" viewBox="0 0 13 14" fill="none" xmlns="http://www.w3.org/2000/svg">
<path d="M11.6279 3.6478L5.99712 9.27772C5.43641 9.83836 3.77194 10.098 3.40009 9.72623C3.02825 9.35444 3.28205 7.69024 3.84277 7.12961L9.47948 1.49377C9.61848 1.34214 9.78676 1.22025 9.97421 1.13544C10.1616 1.05064 10.3643 1.00467 10.57 1.00034C10.7756 0.996011 10.9801 1.03339 11.1709 1.11023C11.3617 1.18708 11.535 1.3018 11.6803 1.44745C11.8255 1.59309 11.9398 1.76665 12.0161 1.95766C12.0924 2.14867 12.1293 2.35315 12.1244 2.55879C12.1195 2.76442 12.073 2.96695 11.9877 3.15412C11.9023 3.34128 11.78 3.50923 11.6279 3.6478Z" stroke="#157DBC" stroke-width="1.4" stroke-linecap="round" stroke-linejoin="round"/>
<path d="M5.82083 2.4834H3.14259C2.57434 2.4834 2.0294 2.7265 1.62758 3.15922C1.22577 3.59195 1 4.17884 1 4.79081V10.5593C1 11.1713 1.22577 11.7582 1.62758 12.1909C2.0294 12.6236 2.57434 12.8667 3.14259 12.8667H9.03472C10.2185 12.8667 10.6417 11.8284 10.6417 10.5593V7.67507" stroke="#157DBC" stroke-width="1.4" stroke-linecap="round" stroke-linejoin="round"/>
</svg>
