<svg width="49" height="47" viewBox="0 0 49 47" fill="none" xmlns="http://www.w3.org/2000/svg">
<path d="M9.29383 4.51459C9.29383 3.93595 9.29383 3.35732 9.29383 2.89441C9.29383 1.38996 10.4511 0.2327 11.8398 0.2327C13.3443 0.2327 14.3858 1.38996 14.3858 2.89441C14.3858 3.47305 14.3858 3.93595 14.3858 4.51459C16.9318 4.51459 19.4778 4.51459 22.0238 4.51459C22.0238 4.39886 22.0238 4.28315 22.0238 4.16742C22.0238 3.70451 22.0238 3.24159 22.0238 2.77868C22.0238 1.27422 23.1811 0.2327 24.6856 0.2327C26.0743 0.2327 27.2316 1.38995 27.2316 2.77868C27.2316 3.35732 27.2316 3.93595 27.2316 4.51459C29.7776 4.51459 32.3236 4.51459 34.8696 4.51459C34.8696 4.05168 34.8696 3.58879 34.8696 3.12588C34.8696 2.7787 34.8696 2.43153 34.9853 2.08434C35.3325 0.811343 36.4897 0.116972 37.8785 0.2327C39.1515 0.348427 40.0773 1.50571 40.0773 2.66298C40.0773 3.24162 40.0773 3.82022 40.0773 4.51459C40.193 4.51459 40.4245 4.51459 40.5402 4.51459C41.6975 4.51459 42.8547 4.51459 43.8963 4.51459C46.3266 4.51459 48.1782 6.36625 48.1782 8.91225C48.1782 19.6749 48.1782 30.4375 48.1782 41.2001C48.1782 44.0933 45.9794 46.2921 43.0862 46.2921C30.7034 46.2921 18.3206 46.2921 5.93774 46.2921C3.16028 46.2921 0.845734 44.0933 0.845734 41.3159C0.845734 30.5532 0.845734 19.7906 0.845734 9.02798C0.845734 6.59771 2.69737 4.63032 5.24337 4.63032C6.74782 4.5146 7.9051 4.51459 9.29383 4.51459ZM46.9052 14.5829C32.0921 14.5829 17.279 14.5829 2.58164 14.5829C2.58164 14.6986 2.58164 14.8143 2.58164 14.8143C2.58164 23.6096 2.58164 32.4049 2.58164 41.2001C2.58164 43.1675 4.20183 44.672 6.05346 44.7877C8.94664 44.7877 11.9556 44.7877 14.8487 44.7877C23.4126 44.7877 31.9764 44.7877 40.5402 44.7877C41.466 44.7877 42.3918 44.7877 43.3176 44.7877C45.4007 44.7877 46.9052 43.2832 46.9052 41.0844C46.9052 32.4049 46.9052 23.6096 46.9052 14.93C46.9052 14.93 46.9052 14.6986 46.9052 14.5829ZM14.5016 6.01906C14.5016 6.5977 14.5016 7.17634 14.5016 7.75497C14.5016 8.21788 14.3858 8.6808 14.1544 9.02798C13.5757 10.0695 12.4185 10.5324 11.2612 10.301C10.1039 9.95377 9.40955 9.02798 9.29383 7.87071C9.29383 7.29207 9.29383 6.71343 9.29383 6.1348C9.1781 6.1348 9.06237 6.1348 8.83092 6.1348C7.67365 6.1348 6.6321 6.1348 5.47483 6.1348C3.73892 6.1348 2.46592 7.4078 2.46592 9.02798C2.46592 10.301 2.46592 11.574 2.46592 12.847C2.46592 12.9627 2.46592 13.0784 2.46592 13.1941C17.279 13.1941 32.0921 13.1941 46.7895 13.1941C46.7895 11.6897 46.7895 10.301 46.7895 8.79651C46.7895 7.29206 45.5165 6.01906 44.012 6.01906C42.8547 6.01906 41.5817 6.01906 40.4245 6.01906C40.3087 6.01906 40.193 6.01906 40.0773 6.01906C40.0773 6.5977 40.0773 7.29207 40.0773 7.87071C40.0773 9.49089 38.5728 10.6481 36.9527 10.301C35.6796 10.0695 34.8696 9.02797 34.8696 7.75497C34.8696 7.17634 34.8696 6.5977 34.8696 6.01906C32.3236 6.01906 29.7776 6.01906 27.2316 6.01906C27.2316 6.5977 27.2316 7.17634 27.2316 7.75497C27.2316 9.25943 26.0743 10.301 24.5698 10.301C23.1811 10.301 22.0238 9.1437 22.0238 7.75497C22.0238 7.40779 22.0238 7.06062 22.0238 6.71343C22.0238 6.48198 22.0238 6.25052 22.0238 6.01906C19.4778 6.01906 17.0476 6.01906 14.5016 6.01906ZM10.6826 5.20896C10.6826 6.01905 10.6826 6.82915 10.6826 7.63924C10.6826 8.3336 11.1455 8.91225 11.8398 8.91225C12.5342 8.91225 12.9971 8.3336 12.9971 7.63924C12.9971 6.01906 12.9971 4.39887 12.9971 2.89441C12.9971 2.20005 12.5342 1.62141 11.8398 1.62141C11.1455 1.62141 10.6826 2.08432 10.6826 2.89441C10.6826 3.7045 10.6826 4.5146 10.6826 5.20896ZM38.6886 5.32469C38.6886 4.5146 38.6886 3.70451 38.6886 3.01015C38.6886 2.20006 38.2257 1.73714 37.5313 1.73714C36.8369 1.73714 36.374 2.20006 36.374 3.01015C36.374 4.63033 36.374 6.13479 36.374 7.75497C36.374 8.44934 36.8369 9.02798 37.5313 9.02798C38.2257 9.02798 38.6886 8.44934 38.6886 7.75497C38.6886 6.82915 38.6886 6.01906 38.6886 5.32469ZM23.5283 5.20896C23.5283 6.01905 23.5283 6.82915 23.5283 7.63924C23.5283 7.98642 23.644 8.33359 23.8755 8.56504C24.2226 8.91222 24.6856 9.02797 25.1485 8.79651C25.6114 8.56506 25.8428 8.21788 25.8428 7.63924C25.8428 6.01906 25.8428 4.39886 25.8428 2.77868C25.8428 2.08432 25.3799 1.50571 24.6856 1.50571C23.9912 1.50571 23.5283 1.96859 23.5283 2.77868C23.5283 3.7045 23.5283 4.5146 23.5283 5.20896Z" fill="white"/>
<path d="M24.6856 31.2476C25.4956 31.2476 26.3057 31.2476 27.1158 31.2476C28.6203 31.2476 29.7776 32.2891 29.7776 33.9093C29.7776 35.5295 29.7776 37.1497 29.7776 38.8856C29.7776 40.39 28.736 41.5473 27.1158 41.5473C25.4956 41.5473 23.8755 41.5473 22.1396 41.5473C20.6351 41.5473 19.4778 40.5057 19.4778 38.8856C19.4778 37.1497 19.4778 35.5295 19.4778 33.7936C19.4778 32.4048 20.5194 31.2476 22.0238 31.2476C22.9496 31.2476 23.8755 31.2476 24.6856 31.2476ZM24.6856 32.6363C23.8755 32.6363 23.0654 32.6363 22.2553 32.6363C21.4452 32.6363 21.098 33.0992 21.098 33.7936C21.098 35.4138 21.098 37.0339 21.098 38.6541C21.098 39.4642 21.5609 39.8114 22.371 39.8114C23.9912 39.8114 25.6114 39.8114 27.2316 39.8114C28.0416 39.8114 28.3888 39.3485 28.3888 38.5384C28.3888 36.9182 28.3888 35.298 28.3888 33.6778C28.3888 32.8677 27.9259 32.5206 27.2316 32.5206C26.3057 32.6363 25.4956 32.6363 24.6856 32.6363Z" fill="white"/>
<path d="M24.6856 17.939C25.4956 17.939 26.4215 17.939 27.2316 17.939C28.6203 17.939 29.7776 18.9805 29.7776 20.3693C29.7776 22.1052 29.7776 23.8411 29.7776 25.577C29.7776 26.9657 28.6203 28.0073 27.2316 28.123C25.4956 28.123 23.7597 28.123 22.0238 28.123C20.6351 28.123 19.4778 26.9657 19.4778 25.577C19.4778 23.8411 19.4778 22.1052 19.4778 20.3693C19.4778 18.9805 20.6351 17.8232 22.0238 17.8232C23.0654 17.939 23.8755 17.939 24.6856 17.939ZM24.6856 19.4435C23.8755 19.4435 23.0654 19.4435 22.2553 19.4435C21.5609 19.4435 21.098 19.9064 21.098 20.6007C21.098 22.2209 21.098 23.8411 21.098 25.577C21.098 26.2713 21.5609 26.7343 22.2553 26.7343C23.8755 26.7343 25.4956 26.7343 27.2316 26.7343C27.9259 26.7343 28.3888 26.2713 28.3888 25.577C28.3888 23.9568 28.3888 22.3366 28.3888 20.6007C28.3888 19.9064 27.9259 19.4435 27.2316 19.4435C26.3057 19.4435 25.4956 19.4435 24.6856 19.4435Z" fill="white"/>
<path d="M6.05346 36.3396C6.05346 35.5295 6.05346 34.6037 6.05346 33.7936C6.05346 32.2891 7.09501 31.2476 8.59946 31.2476C10.3354 31.2476 12.0713 31.2476 13.6915 31.2476C15.0802 31.2476 16.2375 32.2891 16.2375 33.7936C16.2375 35.5295 16.2375 37.2654 16.2375 38.8856C16.2375 40.2743 15.0802 41.4316 13.6915 41.4316C11.9556 41.4316 10.3354 41.4316 8.59946 41.4316C7.21073 41.4316 6.05346 40.2743 6.05346 38.8856C6.05346 37.9597 6.05346 37.1496 6.05346 36.3396ZM11.1455 32.6363C10.3354 32.6363 9.52528 32.6363 8.59946 32.6363C7.9051 32.6363 7.44219 33.0992 7.44219 33.7936C7.44219 35.4138 7.44219 37.1497 7.44219 38.7698C7.44219 39.4642 7.9051 39.9271 8.59946 39.9271C10.2196 39.9271 11.8398 39.9271 13.5757 39.9271C14.2701 39.9271 14.733 39.4642 14.733 38.7698C14.733 37.1497 14.733 35.5295 14.733 33.7936C14.733 33.0992 14.2701 32.6363 13.5757 32.6363C12.7656 32.6363 11.9556 32.6363 11.1455 32.6363Z" fill="white"/>
<path d="M38.3414 17.939C39.1515 17.939 40.0773 17.939 40.8874 17.939C42.2761 17.939 43.4334 18.9805 43.4334 20.485C43.4334 22.2209 43.4334 23.9568 43.4334 25.6927C43.4334 27.0814 42.3918 28.123 41.0031 28.123C39.2672 28.123 37.5313 28.123 35.7954 28.123C34.4066 28.123 33.3651 27.0814 33.2494 25.6927C33.2494 23.9568 33.2494 22.2209 33.2494 20.485C33.2494 19.0963 34.4066 18.0547 35.7954 18.0547C36.6055 17.939 37.4156 17.939 38.3414 17.939ZM38.3414 19.4434C37.5313 19.4434 36.7212 19.4434 35.9111 19.4434C35.2167 19.4434 34.7538 19.9064 34.7538 20.6007C34.7538 22.2209 34.7538 23.9568 34.7538 25.577C34.7538 26.2713 35.2167 26.7342 35.9111 26.7342C37.5313 26.7342 39.2672 26.7342 40.8874 26.7342C41.5817 26.7342 42.0447 26.2713 42.0447 25.577C42.0447 23.9568 42.0447 22.2209 42.0447 20.6007C42.0447 19.9064 41.5817 19.4434 40.8874 19.4434C39.9616 19.4434 39.1515 19.4434 38.3414 19.4434Z" fill="white"/>
<path d="M38.3414 31.2476C39.1515 31.2476 39.9616 31.2476 40.8874 31.2476C42.3918 31.2476 43.4334 32.2891 43.4334 33.7936C43.4334 35.5295 43.4334 37.1497 43.4334 38.8856C43.4334 40.39 42.3918 41.4316 40.8874 41.4316C39.2672 41.4316 37.5313 41.4316 35.9111 41.4316C34.4066 41.4316 33.3651 40.39 33.3651 38.8856C33.3651 37.2654 33.3651 35.5295 33.3651 33.9093C33.3651 32.4049 34.4066 31.3633 36.0268 31.3633C36.6055 31.2476 37.4156 31.2476 38.3414 31.2476ZM38.2256 32.6363C37.4156 32.6363 36.6055 32.6363 35.7954 32.6363C35.101 32.6363 34.6381 33.0992 34.6381 33.7936C34.6381 35.4138 34.6381 37.0339 34.6381 38.7698C34.6381 39.4642 35.101 39.9271 35.7954 39.9271C37.4156 39.9271 39.0357 39.9271 40.7717 39.9271C41.466 39.9271 41.9289 39.4642 41.9289 38.7698C41.9289 37.1497 41.9289 35.5295 41.9289 33.7936C41.9289 33.0992 41.466 32.6363 40.7717 32.6363C39.9616 32.6363 39.1515 32.6363 38.2256 32.6363Z" fill="white"/>
<path d="M6.05346 23.031C6.05346 22.2209 6.05346 21.4108 6.05346 20.485C6.05346 18.9805 7.09501 17.939 8.59946 17.939C10.1039 17.939 11.4926 17.939 12.9971 17.939C13.5757 17.939 13.8072 18.1704 13.9229 18.6333C13.9229 19.0962 13.5757 19.3277 12.9971 19.3277C11.6084 19.3277 10.2196 19.3277 8.71519 19.3277C7.9051 19.3277 7.44219 19.7906 7.44219 20.6007C7.44219 22.2209 7.44219 23.8411 7.44219 25.4612C7.44219 26.1556 7.9051 26.6185 8.59946 26.6185C10.2196 26.6185 11.9556 26.6185 13.5757 26.6185C14.2701 26.6185 14.733 26.1556 14.733 25.4612C14.733 24.8826 14.733 24.304 14.733 23.7253C14.733 23.2624 14.9645 22.9153 15.4274 22.9153C15.8903 22.9153 16.1217 23.2624 16.1217 23.7253C16.1217 24.304 16.1217 24.9983 16.1217 25.577C16.1217 26.9657 14.9645 28.0073 13.6915 28.0073C11.9556 28.0073 10.2196 28.0073 8.36801 28.0073C6.97928 28.0073 5.93774 26.85 5.93774 25.577C6.05346 24.7669 6.05346 23.9568 6.05346 23.031Z" fill="white"/>
<path d="M11.1455 24.0727C11.2612 23.957 11.2612 23.8412 11.3769 23.7255C12.5342 22.5682 13.6915 21.4109 14.8487 20.2537C14.9645 20.1379 14.9645 20.0222 15.0802 20.0222C15.4274 19.7908 15.7746 19.7908 16.006 20.0222C16.2375 20.2537 16.2375 20.7166 16.006 20.948L15.8903 21.0638C14.5016 22.4525 13.1128 23.8412 11.7241 25.23C11.2612 25.6929 10.914 25.6929 10.4511 25.23C9.87246 24.6513 9.29382 24.0727 8.71518 23.494C8.368 23.1469 8.368 22.6839 8.59946 22.4525C8.94664 22.1053 9.29382 22.221 9.64101 22.5682C10.1039 23.0311 10.5668 23.494 11.1455 24.0727Z" fill="white"/>
<path d="M38.2256 35.2981C38.5728 34.8352 39.0357 34.4881 39.3829 34.1409C39.7301 33.7937 40.193 33.7937 40.4245 34.0251C40.7716 34.3723 40.7717 34.7195 40.3087 35.1824C39.9616 35.5296 39.6144 35.8768 39.1515 36.3397C39.6144 36.6869 39.9616 37.1498 40.3087 37.497C40.6559 37.8441 40.7716 38.3071 40.4245 38.6542C40.0773 39.0014 39.7301 38.8857 39.2672 38.5385C38.92 38.1914 38.5728 37.8442 38.1099 37.3813C37.7627 37.8442 37.2998 38.1914 36.9526 38.5385C36.6055 38.8857 36.1426 39.0014 35.7954 38.6542C35.4482 38.3071 35.5639 37.9599 35.9111 37.497C36.2583 37.1498 36.6055 36.8026 37.0684 36.3397C36.6055 35.8768 36.2583 35.5296 35.7954 35.1824C35.5639 34.951 35.4482 34.6038 35.5639 34.2566C35.7954 33.7937 36.374 33.678 36.7212 34.1409C37.4156 34.4881 37.8785 34.8352 38.2256 35.2981Z" fill="white"/>
</svg>
