<svg width="257" height="247" viewBox="0 0 257 247" fill="none" xmlns="http://www.w3.org/2000/svg">
<path d="M144.208 54.6188C144.208 54.1106 144.333 53.4753 144.333 52.9671C144.333 52.3318 144.459 51.8235 144.459 51.1882C144.459 50.0447 144.585 48.7741 144.585 47.6306C144.585 45.2165 144.585 42.8024 144.459 40.3882C144.208 35.56 143.579 30.8588 142.448 26.1577C141.945 23.8706 141.317 21.4565 140.437 19.1694C139.683 16.8824 138.678 14.7224 137.672 12.5624C136.541 10.4024 135.284 8.36943 133.902 6.33648C132.393 4.4306 130.76 2.65177 129 1C131.011 2.39765 132.896 4.0494 134.656 5.82822C136.415 7.60705 137.923 9.63999 139.432 11.6729C140.814 13.7059 142.071 15.993 143.202 18.153C144.333 20.44 145.339 22.7271 146.219 25.1412C147.978 29.8424 149.235 34.7977 150.24 39.7529C150.743 42.2941 151.12 44.7082 151.372 47.2494C151.497 48.52 151.623 49.7906 151.749 51.0612C151.749 51.6965 151.874 52.3318 151.874 52.9671C151.874 53.6024 152 54.2376 152 55L144.208 54.6188Z" fill="white"/>
<path d="M181.502 54C181.502 53.7453 181.502 53.2358 181.375 52.8538C181.375 52.4717 181.248 52.0896 181.248 51.5802C181.121 50.816 180.994 49.9245 180.867 49.033C180.613 47.3774 180.231 45.7217 179.85 44.066C179.088 40.7547 177.944 37.5708 176.673 34.3868C174.004 28.1462 170.319 22.2877 165.49 17.3208C163.075 14.7736 160.406 12.6085 157.61 10.5707C154.815 8.53301 151.638 6.87735 148.46 5.4764C141.979 2.67452 135.117 0.891509 128 0C135.117 0.254717 142.233 1.40093 149.096 3.69338C152.527 4.83961 155.831 6.36791 159.008 8.15093C162.185 9.93395 165.235 12.099 168.031 14.5189C173.623 19.3585 178.198 25.3443 181.756 31.967C183.535 35.2783 184.933 38.717 186.204 42.283C186.84 44.066 187.348 45.8491 187.856 47.6321C188.11 48.5236 188.365 49.4151 188.492 50.434C188.619 50.9434 188.619 51.3255 188.746 51.8349C188.873 52.3443 188.873 52.7264 189 53.3632L181.502 54Z" fill="white"/>
<path d="M105 55C105 54.2376 105 53.6022 105.126 52.9669C105.126 52.3316 105.251 51.6963 105.251 51.0611C105.377 49.7905 105.503 48.5199 105.628 47.2493C105.88 44.7081 106.257 42.1671 106.76 39.753C107.765 34.7977 109.022 29.8424 110.781 25.1412C111.661 22.7271 112.667 20.44 113.798 18.153C114.929 15.8659 116.186 13.7058 117.568 11.6729C118.951 9.63999 120.585 7.60708 122.344 5.82825C124.104 4.04943 125.989 2.39764 128 1C126.24 2.65176 124.481 4.4306 123.098 6.33648C121.716 8.24236 120.333 10.4024 119.328 12.5624C118.197 14.7224 117.317 17.0095 116.563 19.1695C115.809 21.4565 115.18 23.7436 114.552 26.1577C113.421 30.8589 112.918 35.6871 112.541 40.3883C112.415 42.8024 112.29 45.2165 112.415 47.6306C112.415 48.7741 112.415 50.0447 112.541 51.1882C112.541 51.8235 112.667 52.3316 112.667 52.9669C112.667 53.4752 112.792 54.1106 112.792 54.6188L105 55Z" fill="white"/>
<path d="M68 53.3632C68.125 52.7264 68.125 52.3443 68.25 51.8349C68.375 51.3255 68.375 50.9434 68.5 50.434C68.75 49.5425 68.875 48.5236 69.125 47.6321C69.625 45.8491 70.125 44.066 70.75 42.283C72 38.717 73.375 35.2783 75.125 31.967C78.5 25.3444 83.125 19.4859 88.625 14.5189C91.375 12.0991 94.375 9.93399 97.5 8.15097C100.625 6.24059 103.875 4.83965 107.25 3.69343C114 1.40097 121 0.254717 128 0C121 0.891509 114.25 2.67455 107.875 5.47643C104.75 6.87737 101.75 8.53303 98.875 10.5708C96.125 12.6085 93.5 14.7736 91.125 17.3208C86.5 22.2878 82.75 28.1462 80.125 34.3868C78.875 37.5708 77.75 40.7547 77 44.066C76.625 45.7217 76.25 47.3774 76 49.033C75.875 49.9245 75.75 50.6887 75.625 51.5802C75.625 51.9623 75.5 52.3443 75.5 52.8538C75.5 53.2358 75.375 53.7453 75.375 54L68 53.3632Z" fill="white"/>
<path d="M188.872 89.0158C186.575 87.8934 184.532 86.1475 185.043 83.404C185.426 81.0346 187.468 78.7898 186.32 76.5451C185.426 74.9239 183.511 74.3004 181.724 74.6745C180.193 74.9239 179.171 76.0463 178.15 77.0439C178.15 77.0439 178.023 77.1686 177.895 77.1686C177.384 77.1686 177.002 77.0439 176.746 76.5451C173.938 71.8063 169.726 69.8109 164.109 70.4345C163.344 70.5592 163.088 70.1851 163.216 69.4368C163.727 67.0674 163.216 64.698 160.918 63.4509C157.6 61.705 155.685 65.4462 154.409 67.5662C152.749 70.1851 149.813 69.9357 147.388 68.6886C147.005 68.4392 146.878 68.5639 147.133 68.938C149.175 71.6815 152.749 74.051 156.323 72.1804C157.344 71.6815 158.493 70.3098 160.153 70.5592C160.28 70.5592 160.408 70.5592 160.408 70.6839C160.663 70.9333 160.663 71.3074 160.663 71.6815L160.535 71.8063C158.621 72.9286 157.217 74.3004 156.196 76.171C154.026 80.0369 154.409 84.7758 156.961 88.2676C162.195 95.3759 173.3 94.2535 177.002 86.397C177.895 84.5264 178.278 82.531 178.023 80.5357C178.023 80.411 178.023 80.411 178.15 80.2863C178.788 79.6628 179.427 79.6628 179.937 80.5357C180.193 80.9099 180.193 81.284 180.32 81.5334C180.448 84.0275 180.576 86.1475 183.001 87.644C184.66 88.6417 186.702 89.2652 189 89.1405C188.872 89.1405 188.872 89.1405 188.872 89.0158Z" fill="white"/>
<path d="M88 92C94.076 92 99 87.0751 99 81C99 74.9248 94.076 70 88 70C81.9253 70 77 74.9248 77 81C77 87.0751 81.9253 92 88 92Z" fill="white"/>
<path d="M21.5077 136.399C21.5077 136.151 21.8885 135.78 22.2693 135.656C54.8898 125.494 100.33 131.69 124.573 156.97C124.7 157.218 124.827 157.342 124.954 157.589C125.081 158.085 124.954 158.085 124.446 157.837C92.9683 137.886 58.063 134.292 21.8885 143.215C21.5077 143.339 21.1269 143.215 21 142.843V142.719L21.5077 136.399Z" fill="white"/>
<path d="M234 142.738C234 142.988 233.748 143.237 233.497 143.237H233.371C197.504 134.388 163.147 137.877 131.685 157.945C131.559 157.945 131.182 158.069 131.056 157.945C130.93 157.82 131.056 157.695 131.056 157.571C154.464 131.895 201.279 125.289 232.993 135.759C233.371 135.883 233.622 136.133 233.622 136.382L234 142.738Z" fill="white"/>
<path d="M124.366 172.904C90.1541 151.1 52.0137 151.61 14.7602 161.174C14.3801 161.301 14 161.046 14 160.664C14 160.664 14 160.536 14 160.409L14.1267 153.651C14.1267 153.396 14.3801 153.141 14.887 152.886C47.8322 142.43 99.2774 144.215 124.747 172.139C124.873 172.394 125 172.522 125 172.649L124.873 172.904C124.747 173.032 124.62 173.032 124.366 172.904Z" fill="white"/>
<path d="M241.116 153.147C241.368 153.147 241.495 153.274 241.495 153.402L242 160.54C242 160.795 241.747 161.05 241.495 161.05H241.368C202.337 151.235 166.084 151.489 131.6 172.904C131.347 173.032 131.221 173.032 131.095 172.904C130.968 172.777 130.968 172.522 131.095 172.267C157.747 144.351 206.632 142.184 241.116 153.147Z" fill="white"/>
<path d="M224 122.123V81.5147C224 65.7297 210.611 53 194.316 53H188.758H66.8632H61.6842C45.2632 53 32 65.857 32 81.5147V120.086V123.651V123.778C32 123.778 32 123.778 32 123.905C32.1263 124.16 32.5052 124.287 33.0105 124.287C35.0316 123.778 37.179 123.269 39.2 122.887C70.5263 116.776 97.8106 125.687 124.716 142.873C124.842 142.873 124.968 142.873 124.968 142.873C125.221 142.618 125.221 142.618 124.968 142.491C105.01 119.959 68.379 109.266 39.0737 115.631V81.6421C39.0737 69.8034 49.1789 60.256 61.6842 60.256H66.8632H74.1895C74.1895 60.256 74.1895 60.256 74.1895 60.1287H86.3158C86.3158 60.1287 86.3158 60.1287 86.3158 60.256H93.5158H106.526H188.505H194.063C206.568 60.256 216.674 69.8034 216.674 81.6421V115.758C187.116 109.393 150.105 119.959 130.526 142.618C130.4 142.745 130.4 142.873 130.526 142.873L130.779 143C130.905 143 131.158 143 131.284 142.873C155.158 127.215 180.674 118.304 208.084 121.614C210.484 121.868 213.389 122.378 216.674 122.887C218.695 123.269 220.842 123.651 223.242 124.16H223.368C223.621 124.16 223.747 124.033 223.874 123.905C223.874 123.778 224 123.778 224 123.651V122.123Z" fill="white"/>
<path d="M200 104.667C200 104.667 155.324 103.265 129 135C129 135 141.276 92.6863 133.05 70C133.176 70 150.515 104.667 200 104.667Z" fill="white"/>
<path d="M56 104.667C56 104.667 100.676 103.265 127 135C127 135 114.724 92.6863 122.95 70C122.95 70 105.485 104.667 56 104.667Z" fill="white"/>
<path d="M256.072 202.315V210.248C255.646 211.212 254.874 212.062 253.756 212.8C252.659 213.538 251.258 213.907 249.551 213.907C248.373 213.907 247.337 213.723 246.443 213.354C245.569 212.985 244.828 212.493 244.218 211.878C243.386 212.944 242.136 213.477 240.47 213.477H240.348C239.881 213.477 239.576 213.395 239.434 213.231V210.709C239.576 210.545 239.881 210.463 240.348 210.463C240.998 210.463 241.537 210.361 241.963 210.156C242.41 209.951 242.776 209.623 243.06 209.172V202.315C243.507 201.351 244.279 200.5 245.376 199.762C246.473 199.024 247.865 198.655 249.551 198.655C251.258 198.655 252.659 199.024 253.756 199.762C254.874 200.5 255.646 201.351 256.072 202.315ZM252.294 203.299C252.091 202.848 251.745 202.468 251.258 202.161C250.79 201.853 250.222 201.7 249.551 201.7C248.901 201.7 248.332 201.853 247.845 202.161C247.377 202.468 247.042 202.848 246.839 203.299V209.295C247.042 209.746 247.377 210.125 247.845 210.433C248.332 210.74 248.901 210.894 249.551 210.894C250.222 210.894 250.79 210.74 251.258 210.433C251.745 210.125 252.091 209.746 252.294 209.295V203.299Z" fill="white"/>
<path d="M241.264 210.709V213.231C241.121 213.395 240.816 213.477 240.348 213.477L224.778 213.477V210.463H233.92V204.652C233.554 203.606 232.985 202.858 232.213 202.407C231.461 201.936 230.486 201.7 229.288 201.7H227.612V198.686H230.05C232.081 198.686 233.716 199.096 234.956 199.916C236.195 200.716 237.099 201.956 237.668 203.637V210.463L240.348 210.463C240.816 210.463 241.121 210.545 241.264 210.709Z" fill="white"/>
<path d="M221.68 191.952V213.477H217.901V191.952H221.68Z" fill="white"/>
<path d="M206.314 219.596V216.89H207.167C207.817 216.89 208.386 216.747 208.874 216.46C209.361 216.193 209.696 215.834 209.879 215.383V199.117H213.658V216.583C213.231 217.567 212.561 218.356 211.647 218.95C210.733 219.565 209.595 219.873 208.234 219.873C207.421 219.873 206.781 219.781 206.314 219.596Z" fill="white"/>
<path d="M204.882 199.117V213.477H199.397C197.752 213.477 196.502 213.005 195.649 212.062C195.141 212.534 194.532 212.893 193.821 213.139C193.13 213.364 192.399 213.477 191.627 213.477C190.225 213.477 189.047 213.087 188.092 212.308V216.244C187.442 217.433 186.446 218.346 185.106 218.981C183.785 219.617 182.343 219.934 180.779 219.934C179.153 219.934 177.66 219.596 176.299 218.92C174.958 218.264 173.993 217.31 173.404 216.06V205.789H177.183V215.045C177.488 215.64 177.975 216.101 178.645 216.429C179.316 216.757 180.027 216.921 180.779 216.921C181.53 216.921 182.231 216.757 182.881 216.429C183.531 216.101 184.009 215.64 184.313 215.045V202.038H188.092V209.449C188.376 209.777 188.732 210.033 189.159 210.217C189.585 210.381 190.032 210.463 190.499 210.463C191.007 210.463 191.464 210.371 191.871 210.187C192.297 210.002 192.632 209.736 192.876 209.387V202.038H196.624V209.449C197.214 210.125 198.026 210.463 199.062 210.463H201.104V199.117H204.882Z" fill="white"/>
<path d="M163.334 203.237V213.477H143.008C142.541 213.477 142.236 213.395 142.094 213.231V210.709C142.236 210.545 142.541 210.463 143.008 210.463H145.995V199.117H149.773V201.208C152.231 199.916 154.476 199.27 156.508 199.27C158.011 199.27 159.352 199.598 160.53 200.254C161.729 200.91 162.663 201.905 163.334 203.237ZM159.555 210.463V204.59C158.763 203.073 157.422 202.315 155.533 202.315C154.639 202.315 153.694 202.479 152.699 202.807C151.703 203.114 150.728 203.545 149.773 204.098V210.463H159.555Z" fill="white"/>
<path d="M143.911 210.71V213.231C143.769 213.395 143.464 213.477 142.997 213.477H142.966C142.072 213.477 141.341 213.354 140.772 213.108C140.224 212.842 139.726 212.452 139.279 211.94C138.263 212.965 136.862 213.477 135.074 213.477H133.337C132.87 213.477 132.565 213.395 132.423 213.231V210.71C132.565 210.546 132.87 210.464 133.337 210.464H133.611C134.383 210.464 134.972 210.371 135.379 210.187C135.805 210.002 136.14 209.726 136.384 209.357V199.117H140.163V209.387C140.711 210.105 141.524 210.464 142.601 210.464H142.997C143.464 210.464 143.769 210.546 143.911 210.71ZM136.293 195.611V193.982C136.435 193.674 136.679 193.428 137.024 193.244C137.369 193.039 137.776 192.936 138.243 192.936C138.71 192.936 139.117 193.039 139.462 193.244C139.807 193.428 140.051 193.674 140.193 193.982V195.611C140.051 195.898 139.807 196.134 139.462 196.319C139.117 196.503 138.71 196.595 138.243 196.595C137.776 196.595 137.369 196.503 137.024 196.319C136.679 196.134 136.435 195.898 136.293 195.611Z" fill="white"/>
<path d="M134.25 210.71V213.231C134.108 213.395 133.804 213.477 133.337 213.477L128.826 213.477C127.201 213.477 125.697 213.211 124.316 212.678C122.996 213.211 121.533 213.477 119.928 213.477H115.601C115.134 213.477 114.829 213.395 114.687 213.231V210.71C114.829 210.546 115.134 210.464 115.601 210.464H120.903C120.172 209.931 119.481 209.305 118.831 208.588C118.181 207.85 117.693 207.153 117.368 206.497V201.608C117.937 200.706 118.841 199.937 120.08 199.301C121.32 198.645 122.742 198.317 124.346 198.317C125.951 198.317 127.373 198.645 128.613 199.301C129.852 199.937 130.756 200.706 131.325 201.608V206.497C130.979 207.153 130.492 207.85 129.862 208.588C129.232 209.305 128.552 209.931 127.82 210.464L133.337 210.464C133.804 210.464 134.108 210.546 134.25 210.71ZM127.546 205.943V202.868C127.302 202.479 126.896 202.13 126.327 201.823C125.758 201.495 125.098 201.331 124.346 201.331C123.595 201.331 122.935 201.495 122.366 201.823C121.817 202.13 121.411 202.479 121.147 202.868V205.943C121.452 206.681 121.888 207.378 122.457 208.034C123.046 208.69 123.676 209.223 124.346 209.633C125.037 209.244 125.657 208.731 126.205 208.096C126.774 207.46 127.221 206.743 127.546 205.943Z" fill="white"/>
<path d="M108.925 191.952H112.704V210.463H115.599C116.066 210.463 116.371 210.545 116.513 210.709V213.231C116.371 213.395 116.066 213.477 115.599 213.477H108.925V191.952Z" fill="white"/>
<path d="M105.258 210.587V213.477H92.947V210.679H95.4457C95.1613 210.433 94.9277 210.166 94.7449 209.879V205.451C95.1918 204.365 95.9231 203.524 96.9389 202.93C97.975 202.315 99.1126 202.007 100.352 202.007C101.164 202.007 101.957 202.151 102.729 202.438C103.501 202.725 104.181 203.145 104.77 203.698V205.697H102.211C101.723 205.205 101.134 204.959 100.443 204.959C99.976 204.959 99.5392 205.082 99.1329 205.328C98.7469 205.574 98.4828 205.923 98.3406 206.374V209.172C98.5235 209.644 98.818 210.002 99.2243 210.248C99.6307 210.474 100.108 210.587 100.657 210.587H105.258Z" fill="white"/>
<path d="M83.6299 191.952V213.477H79.8513V191.952H83.6299Z" fill="white"/>
<path d="M75.5882 191.952V213.477H68.7014C68.2342 213.477 67.9294 213.395 67.7872 213.231V210.709C67.9294 210.545 68.2342 210.463 68.7014 210.463H71.8096V191.952H75.5882Z" fill="white"/>
<path d="M69.6301 210.709V213.231C69.4879 213.395 69.1832 213.477 68.7159 213.477H51.5903C51.1027 213.477 50.798 213.385 50.6761 213.2V210.74C50.798 210.556 51.1027 210.463 51.5903 210.463H62.3471V207.235C61.6767 205.39 61.0165 204.047 60.3664 203.206C59.7163 202.345 58.9139 201.915 57.9591 201.915C57.2277 201.915 56.4253 202.151 55.5517 202.622H53.3272V200.377C55.2165 199.332 56.9535 198.809 58.5381 198.809C60.2445 198.809 61.6666 199.465 62.8042 200.777C63.9622 202.089 65.0694 204.098 66.1258 206.804V210.463H68.7159C69.1832 210.463 69.4879 210.545 69.6301 210.709Z" fill="white"/>
<path d="M52.5054 210.709V213.231C52.3632 213.395 52.0575 213.477 51.5903 213.477L36.0197 213.477V210.463H45.1615V204.652C44.7958 203.606 44.227 202.858 43.455 202.407C42.7034 201.936 41.7282 201.7 40.5296 201.7H38.8536V198.686H41.2915C43.323 198.686 44.9583 199.096 46.1976 199.916C47.4368 200.716 48.3408 201.956 48.9096 203.637V210.463L51.5903 210.463C52.0575 210.463 52.3632 210.545 52.5054 210.709Z" fill="white"/>
<path d="M33.0281 199.117V213.477H25.1052C24.638 213.477 24.3332 213.395 24.191 213.231V210.709C24.3332 210.545 24.638 210.463 25.1052 210.463H29.2495V199.117H33.0281ZM24.8005 218.243V216.583C24.9224 216.316 25.156 216.091 25.5014 215.906C25.8467 215.722 26.2225 215.629 26.6289 215.629C27.0555 215.629 27.4415 215.722 27.7868 215.906C28.1322 216.091 28.3658 216.316 28.4877 216.583V218.243C28.3658 218.51 28.1322 218.725 27.7868 218.889C27.4415 219.073 27.0555 219.166 26.6289 219.166C26.2022 219.166 25.8162 219.073 25.4709 218.889C25.1458 218.725 24.9224 218.51 24.8005 218.243ZM29.7371 218.243V216.583C29.859 216.316 30.0926 216.091 30.4379 215.906C30.7833 215.722 31.1591 215.629 31.5654 215.629C31.992 215.629 32.378 215.722 32.7234 215.906C33.0687 216.091 33.2922 216.316 33.3938 216.583V218.243C33.2719 218.51 33.0383 218.725 32.6929 218.889C32.3679 219.073 31.992 219.166 31.5654 219.166C31.1388 219.166 30.7528 219.073 30.4075 218.889C30.0824 218.725 29.859 218.51 29.7371 218.243Z" fill="white"/>
<path d="M26.0077 210.709V213.231C25.8655 213.395 25.5608 213.477 25.0936 213.477H25.0631C24.1692 213.477 23.4379 213.354 22.869 213.108C22.3205 212.842 21.8228 212.452 21.3759 211.94C20.3601 212.965 18.9584 213.477 17.1707 213.477H15.4337C14.9665 213.477 14.6617 213.395 14.5195 213.231V210.709C14.6617 210.545 14.9665 210.464 15.4337 210.464H15.708C16.4799 210.464 17.0691 210.371 17.4754 210.187C17.902 210.002 18.2372 209.726 18.481 209.357V199.117H22.2596V209.387C22.8081 210.105 23.6207 210.464 24.6974 210.464H25.0936C25.5608 210.464 25.8655 210.545 26.0077 210.709ZM18.5419 191.46V189.953C18.6638 189.666 18.8873 189.441 19.2123 189.277C19.5577 189.092 19.9335 189 20.3398 189C20.7664 189 21.1423 189.092 21.4673 189.277C21.8127 189.441 22.0463 189.666 22.1682 189.953V191.46C22.0463 191.727 21.8127 191.952 21.4673 192.137C21.1219 192.321 20.7461 192.413 20.3398 192.413C19.9335 192.413 19.5577 192.321 19.2123 192.137C18.8873 191.952 18.6638 191.727 18.5419 191.46ZM16.0432 195.581V193.951C16.1651 193.664 16.3885 193.438 16.7136 193.274C17.0589 193.09 17.4449 192.998 17.8715 192.998C18.2981 192.998 18.6841 193.09 19.0295 193.274C19.3748 193.438 19.6085 193.664 19.7304 193.951V195.581C19.6085 195.868 19.3748 196.103 19.0295 196.288C18.6841 196.472 18.2981 196.565 17.8715 196.565C17.4449 196.565 17.0589 196.472 16.7136 196.288C16.3885 196.103 16.1651 195.868 16.0432 195.581ZM20.9797 195.581V193.951C21.1016 193.664 21.3251 193.438 21.6501 193.274C21.9955 193.09 22.3815 192.998 22.8081 192.998C23.2347 192.998 23.6105 193.09 23.9356 193.274C24.2809 193.438 24.5146 193.664 24.6365 193.951V195.581C24.5349 195.868 24.3114 196.103 23.9661 196.288C23.6207 196.472 23.2347 196.565 22.8081 196.565C22.3815 196.565 21.9955 196.472 21.6501 196.288C21.3251 196.103 21.1016 195.868 20.9797 195.581Z" fill="white"/>
<path d="M16.3334 210.709V213.231C16.1912 213.395 15.8864 213.477 15.4192 213.477H6.42974C4.92642 213.477 3.62625 213.2 2.52923 212.647C1.43222 212.073 0.589139 211.263 0 210.218V202.315C0.426618 201.372 1.18843 200.531 2.28545 199.793C3.40278 199.035 4.81469 198.656 6.52116 198.656C8.20731 198.656 9.5989 199.035 10.6959 199.793C11.8133 200.531 12.5852 201.372 13.0118 202.315V210.464H15.4192C15.8864 210.464 16.1912 210.545 16.3334 210.709ZM6.64305 210.464H9.23323V203.299C9.03008 202.848 8.68472 202.469 8.19715 202.161C7.72991 201.853 7.17124 201.7 6.52116 201.7C5.85076 201.7 5.27178 201.853 4.78421 202.161C4.31697 202.469 3.98177 202.848 3.77861 203.299V209.111C4.34744 210.013 5.30225 210.464 6.64305 210.464ZM2.22451 195.611V193.982C2.3464 193.695 2.56986 193.459 2.89491 193.274C3.24026 193.09 3.62625 192.998 4.05287 192.998C4.47949 192.998 4.86547 193.09 5.21083 193.274C5.55619 193.459 5.78981 193.695 5.9117 193.982V195.611C5.78981 195.898 5.55619 196.134 5.21083 196.319C4.86547 196.483 4.47949 196.565 4.05287 196.565C3.62625 196.565 3.24026 196.483 2.89491 196.319C2.56986 196.134 2.3464 195.898 2.22451 195.611ZM7.16108 195.611V193.982C7.28298 193.695 7.50644 193.459 7.83148 193.274C8.17684 193.09 8.56283 192.998 8.98945 192.998C9.41606 192.998 9.79189 193.09 10.1169 193.274C10.4623 193.459 10.6959 193.695 10.8178 193.982V195.611C10.7162 195.898 10.4928 196.134 10.1474 196.319C9.82237 196.483 9.43638 196.565 8.98945 196.565C8.56283 196.565 8.17684 196.483 7.83148 196.319C7.50644 196.134 7.28298 195.898 7.16108 195.611Z" fill="white"/>
<path d="M254.64 246.035V226.621H256.207V246.035H254.64Z" fill="white"/>
<path d="M245.212 230.809C246.055 230.809 246.797 230.929 247.438 231.169C248.08 231.391 248.639 231.678 249.115 232.029C249.591 232.38 249.976 232.769 250.269 233.194C250.581 233.619 250.819 234.026 250.984 234.414V242.79C250.819 243.179 250.581 243.585 250.269 244.011C249.976 244.436 249.591 244.824 249.115 245.176C248.639 245.527 248.08 245.814 247.438 246.035C246.797 246.276 246.055 246.396 245.212 246.396C244.369 246.396 243.618 246.276 242.958 246.035C242.317 245.814 241.758 245.527 241.282 245.176C240.805 244.824 240.411 244.436 240.1 244.011C239.807 243.585 239.578 243.179 239.413 242.79V234.414C239.578 234.026 239.807 233.619 240.1 233.194C240.411 232.769 240.805 232.38 241.282 232.029C241.758 231.678 242.317 231.391 242.958 231.169C243.618 230.929 244.369 230.809 245.212 230.809ZM245.185 232.168C244.067 232.168 243.151 232.436 242.436 232.972C241.74 233.508 241.254 234.118 240.979 234.803V242.402C241.254 243.086 241.74 243.696 242.436 244.233C243.151 244.769 244.067 245.037 245.185 245.037C245.753 245.037 246.266 244.963 246.724 244.815C247.182 244.667 247.585 244.473 247.933 244.233C248.3 243.992 248.602 243.715 248.84 243.401C249.078 243.068 249.271 242.735 249.417 242.402V234.803C249.271 234.47 249.078 234.146 248.84 233.832C248.602 233.499 248.3 233.212 247.933 232.972C247.585 232.732 247.182 232.538 246.724 232.39C246.266 232.242 245.753 232.168 245.185 232.168Z" fill="white"/>
<path d="M230.342 230.809C231.185 230.809 231.927 230.929 232.568 231.169C233.21 231.391 233.769 231.678 234.245 232.029C234.721 232.38 235.106 232.769 235.399 233.194C235.711 233.619 235.949 234.026 236.114 234.414V242.79C235.949 243.179 235.711 243.585 235.399 244.011C235.106 244.436 234.721 244.824 234.245 245.176C233.769 245.527 233.21 245.814 232.568 246.035C231.927 246.276 231.185 246.396 230.342 246.396C229.499 246.396 228.748 246.276 228.088 246.035C227.447 245.814 226.888 245.527 226.412 245.176C225.935 244.824 225.541 244.436 225.23 244.011C224.937 243.585 224.708 243.179 224.543 242.79V234.414C224.708 234.026 224.937 233.619 225.23 233.194C225.541 232.769 225.935 232.38 226.412 232.029C226.888 231.678 227.447 231.391 228.088 231.169C228.748 230.929 229.499 230.809 230.342 230.809ZM230.315 232.168C229.197 232.168 228.281 232.436 227.566 232.972C226.87 233.508 226.384 234.118 226.109 234.803V242.402C226.384 243.086 226.87 243.696 227.566 244.233C228.281 244.769 229.197 245.037 230.315 245.037C230.883 245.037 231.396 244.963 231.854 244.815C232.312 244.667 232.715 244.473 233.063 244.233C233.43 243.992 233.732 243.715 233.97 243.401C234.208 243.068 234.401 242.735 234.547 242.402V234.803C234.401 234.47 234.208 234.146 233.97 233.832C233.732 233.499 233.43 233.212 233.063 232.972C232.715 232.732 232.312 232.538 231.854 232.39C231.396 232.242 230.883 232.168 230.315 232.168Z" fill="white"/>
<path d="M215.835 230.837C216.642 230.837 217.338 230.947 217.924 231.169C218.511 231.373 219.005 231.632 219.408 231.946C219.83 232.242 220.169 232.556 220.425 232.889C220.682 233.222 220.874 233.508 221.003 233.749V246.035H219.436V234.165C219.326 233.98 219.161 233.776 218.941 233.555C218.74 233.314 218.483 233.102 218.172 232.917C217.86 232.713 217.484 232.547 217.045 232.417C216.623 232.269 216.129 232.196 215.56 232.196C214.534 232.196 213.664 232.38 212.949 232.75C212.253 233.102 211.722 233.527 211.355 234.026V246.035H209.789V226.621H211.355V232.501C211.832 232.038 212.436 231.65 213.169 231.336C213.921 231.003 214.809 230.837 215.835 230.837Z" fill="white"/>
<path d="M200.87 230.809C201.713 230.809 202.455 230.92 203.096 231.142C203.756 231.363 204.315 231.65 204.773 232.001C205.249 232.353 205.634 232.732 205.927 233.138C206.239 233.545 206.468 233.934 206.614 234.303V235.191H205.295C204.947 234.322 204.416 233.601 203.701 233.028C203.005 232.454 202.061 232.168 200.87 232.168C199.752 232.168 198.845 232.436 198.149 232.972C197.453 233.508 196.958 234.118 196.665 234.803V242.402C196.958 243.086 197.453 243.696 198.149 244.233C198.845 244.769 199.752 245.037 200.87 245.037C202.061 245.037 203.005 244.75 203.701 244.177C204.416 243.604 204.947 242.874 205.295 241.986H206.614V242.901C206.468 243.271 206.239 243.659 205.927 244.066C205.634 244.473 205.249 244.852 204.773 245.203C204.315 245.555 203.756 245.841 203.096 246.063C202.455 246.285 201.713 246.396 200.87 246.396C200.027 246.396 199.285 246.276 198.644 246.035C198.002 245.814 197.444 245.527 196.967 245.176C196.491 244.824 196.097 244.436 195.785 244.011C195.492 243.585 195.263 243.179 195.098 242.79V234.414C195.263 234.026 195.492 233.619 195.785 233.194C196.097 232.769 196.491 232.38 196.967 232.029C197.444 231.678 198.002 231.391 198.644 231.169C199.285 230.929 200.027 230.809 200.87 230.809Z" fill="white"/>
<path d="M186.918 230.809C187.615 230.809 188.238 230.892 188.787 231.058C189.337 231.206 189.813 231.4 190.217 231.641C190.638 231.863 190.986 232.112 191.261 232.39C191.554 232.649 191.774 232.88 191.921 233.083V233.998H190.601C190.345 233.518 189.896 233.092 189.255 232.722C188.632 232.353 187.853 232.168 186.918 232.168C186.057 232.168 185.343 232.325 184.774 232.639C184.206 232.935 183.767 233.259 183.455 233.61V235.967C183.657 236.263 183.968 236.55 184.39 236.827C184.829 237.086 185.462 237.317 186.286 237.521L188.045 237.964C189.218 238.242 190.134 238.593 190.794 239.018C191.472 239.444 191.939 239.869 192.196 240.294V243.789C192.049 244.011 191.838 244.27 191.563 244.565C191.288 244.861 190.94 245.148 190.519 245.425C190.097 245.684 189.584 245.906 188.98 246.091C188.393 246.294 187.706 246.396 186.918 246.396C186.149 246.396 185.462 246.294 184.857 246.091C184.271 245.906 183.767 245.675 183.345 245.397C182.924 245.12 182.576 244.834 182.301 244.538C182.026 244.242 181.815 243.992 181.669 243.789V242.874H182.988C183.281 243.447 183.758 243.955 184.417 244.399C185.077 244.824 185.911 245.037 186.918 245.037C187.413 245.037 187.862 244.981 188.265 244.871C188.668 244.76 189.026 244.621 189.337 244.454C189.649 244.27 189.914 244.075 190.134 243.872C190.354 243.669 190.537 243.465 190.684 243.262V240.904C190.244 240.183 189.255 239.647 187.715 239.296L185.901 238.852C184.71 238.575 183.803 238.214 183.18 237.77C182.576 237.327 182.163 236.929 181.944 236.578V233.083C182.09 232.898 182.292 232.676 182.548 232.417C182.823 232.14 183.162 231.89 183.565 231.669C183.987 231.428 184.472 231.225 185.022 231.058C185.572 230.892 186.204 230.809 186.918 230.809Z" fill="white"/>
<path d="M167.656 230.836C168.462 230.836 169.158 230.947 169.745 231.169C170.331 231.373 170.826 231.632 171.229 231.946C171.65 232.242 171.989 232.556 172.246 232.889C172.502 233.222 172.695 233.508 172.823 233.749V246.035H171.229V234.165C171.119 233.98 170.963 233.776 170.762 233.555C170.56 233.314 170.294 233.102 169.965 232.917C169.653 232.713 169.277 232.547 168.838 232.417C168.416 232.269 167.931 232.196 167.381 232.196C166.373 232.196 165.512 232.38 164.797 232.75C164.101 233.102 163.56 233.518 163.176 233.998V246.035H161.609V231.169H163.121V232.556C163.597 232.075 164.211 231.669 164.962 231.336C165.713 231.003 166.611 230.836 167.656 230.836Z" fill="white"/>
<path d="M158.371 231.142C158.426 231.142 158.499 231.142 158.591 231.142C158.682 231.142 158.801 231.151 158.948 231.169V232.695C158.783 232.676 158.646 232.667 158.536 232.667C158.426 232.667 158.352 232.667 158.316 232.667C157.235 232.667 156.309 232.852 155.54 233.222C154.788 233.592 154.211 234.035 153.808 234.553V246.035H152.214V231.169H153.753V233.083C154.175 232.565 154.77 232.112 155.54 231.724C156.309 231.336 157.253 231.142 158.371 231.142Z" fill="white"/>
<path d="M142.974 230.809C143.817 230.809 144.559 230.929 145.2 231.169C145.86 231.391 146.419 231.678 146.877 232.029C147.353 232.362 147.738 232.741 148.031 233.166C148.343 233.573 148.572 233.952 148.718 234.303V238.602H138.769V242.374C138.915 242.726 139.108 243.058 139.346 243.373C139.603 243.687 139.905 243.974 140.253 244.233C140.601 244.473 141.004 244.667 141.462 244.815C141.92 244.963 142.424 245.037 142.974 245.037C144.147 245.037 145.09 244.75 145.805 244.177C146.52 243.604 147.051 242.874 147.399 241.986H148.718V242.901C148.572 243.271 148.343 243.659 148.031 244.066C147.738 244.473 147.353 244.852 146.877 245.203C146.419 245.536 145.86 245.814 145.2 246.035C144.559 246.276 143.817 246.396 142.974 246.396C142.131 246.396 141.389 246.276 140.748 246.035C140.106 245.814 139.548 245.527 139.071 245.176C138.595 244.824 138.201 244.436 137.889 244.011C137.596 243.585 137.367 243.179 137.202 242.79V234.414C137.367 234.026 137.596 233.619 137.889 233.194C138.201 232.769 138.595 232.38 139.071 232.029C139.548 231.678 140.106 231.391 140.748 231.169C141.389 230.929 142.131 230.809 142.974 230.809ZM142.974 232.168C142.424 232.168 141.92 232.242 141.462 232.39C141.004 232.538 140.601 232.741 140.253 233C139.905 233.24 139.603 233.518 139.346 233.832C139.108 234.146 138.915 234.479 138.769 234.83V237.299H147.207V234.83C147.06 234.479 146.868 234.146 146.63 233.832C146.391 233.518 146.089 233.24 145.723 233C145.374 232.741 144.971 232.538 144.513 232.39C144.055 232.242 143.542 232.168 142.974 232.168Z" fill="white"/>
<path d="M133.546 246.035H132.007V244.621C131.549 245.102 130.944 245.518 130.193 245.869C129.46 246.202 128.553 246.368 127.472 246.368C126.666 246.368 125.969 246.257 125.383 246.035C124.815 245.832 124.32 245.582 123.899 245.287C123.496 244.972 123.166 244.649 122.909 244.316C122.653 243.983 122.461 243.696 122.332 243.456V233.749C122.461 233.508 122.653 233.222 122.909 232.889C123.166 232.556 123.496 232.242 123.899 231.946C124.32 231.632 124.815 231.373 125.383 231.169C125.969 230.947 126.666 230.837 127.472 230.837C128.516 230.837 129.414 231.003 130.166 231.336C130.917 231.669 131.521 232.075 131.98 232.556V226.621H133.546V246.035ZM127.774 245.009C128.8 245.009 129.662 244.824 130.358 244.455C131.073 244.085 131.613 243.65 131.98 243.151V234.054C131.613 233.555 131.063 233.12 130.33 232.75C129.616 232.38 128.764 232.196 127.774 232.196C127.206 232.196 126.702 232.269 126.263 232.417C125.841 232.547 125.475 232.713 125.163 232.917C124.852 233.102 124.595 233.314 124.394 233.555C124.192 233.776 124.036 233.98 123.926 234.165V243.04C124.036 243.225 124.192 243.438 124.394 243.678C124.595 243.9 124.852 244.112 125.163 244.316C125.475 244.501 125.841 244.667 126.263 244.815C126.702 244.945 127.206 245.009 127.774 245.009Z" fill="white"/>
<path d="M113.262 230.809C114.105 230.809 114.847 230.929 115.488 231.169C116.129 231.391 116.688 231.678 117.165 232.029C117.641 232.38 118.026 232.769 118.319 233.194C118.63 233.619 118.869 234.026 119.034 234.414V242.79C118.869 243.179 118.63 243.585 118.319 244.011C118.026 244.436 117.641 244.824 117.165 245.176C116.688 245.527 116.129 245.814 115.488 246.035C114.847 246.276 114.105 246.396 113.262 246.396C112.419 246.396 111.668 246.276 111.008 246.035C110.367 245.814 109.808 245.527 109.331 245.176C108.855 244.824 108.461 244.436 108.149 244.011C107.856 243.585 107.627 243.179 107.462 242.79V234.414C107.627 234.026 107.856 233.619 108.149 233.194C108.461 232.769 108.855 232.38 109.331 232.029C109.808 231.678 110.367 231.391 111.008 231.169C111.668 230.929 112.419 230.809 113.262 230.809ZM113.234 232.168C112.117 232.168 111.2 232.436 110.486 232.972C109.789 233.508 109.304 234.118 109.029 234.803V242.402C109.304 243.086 109.789 243.696 110.486 244.233C111.2 244.769 112.117 245.037 113.234 245.037C113.802 245.037 114.315 244.963 114.773 244.815C115.231 244.667 115.635 244.473 115.983 244.233C116.349 243.992 116.652 243.715 116.89 243.401C117.128 243.068 117.32 242.735 117.467 242.402V234.803C117.32 234.47 117.128 234.146 116.89 233.832C116.652 233.499 116.349 233.212 115.983 232.972C115.635 232.732 115.231 232.538 114.773 232.39C114.315 232.242 113.802 232.168 113.234 232.168Z" fill="white"/>
<path d="M101.937 246.035V228.451H101.854L95.6976 240.904H94.1859L88.0567 228.451H87.9743V246.035H86.3527V226.621H88.9088L94.928 238.824H95.0105L101.03 226.621H103.558V246.035H101.937Z" fill="white"/>
<path d="M70.7091 230.809C71.552 230.809 72.2941 230.929 72.9354 231.169C73.595 231.391 74.163 231.678 74.6395 232.029C75.1159 232.38 75.5007 232.769 75.7938 233.194C76.1053 233.619 76.3435 234.026 76.5084 234.414V246.035H74.9693V244.427C74.5295 244.944 73.9065 245.407 73.1003 245.814C72.3124 246.202 71.3321 246.396 70.1594 246.396C69.3898 246.396 68.721 246.304 68.153 246.119C67.5849 245.952 67.0993 245.749 66.6962 245.508C66.2931 245.25 65.9725 244.991 65.7343 244.732C65.496 244.454 65.3128 244.233 65.1846 244.066V239.656C65.2762 239.508 65.4319 239.305 65.6518 239.046C65.89 238.769 66.2015 238.501 66.5863 238.242C66.9894 237.983 67.475 237.761 68.043 237.576C68.6294 237.391 69.3257 237.299 70.1319 237.299H74.9418V234.803C74.7952 234.47 74.5936 234.146 74.3371 233.832C74.0989 233.499 73.8057 233.212 73.4576 232.972C73.1094 232.732 72.7063 232.538 72.2482 232.39C71.7902 232.242 71.2771 232.168 70.7091 232.168C70.1594 232.168 69.6646 232.242 69.2249 232.39C68.8034 232.519 68.4278 232.695 68.098 232.917C67.7682 233.12 67.4933 233.351 67.2734 233.61C67.0535 233.85 66.8886 234.091 66.7787 234.331H65.4594V233.416C65.5877 233.231 65.7801 232.991 66.0366 232.695C66.2931 232.399 66.6321 232.112 67.0535 231.835C67.475 231.558 67.988 231.317 68.5927 231.114C69.1974 230.91 69.9028 230.809 70.7091 230.809ZM70.3792 245.065C71.5519 245.065 72.5231 244.843 73.2927 244.399C74.0806 243.937 74.6303 243.41 74.9418 242.818V238.602H70.3792C69.8295 238.602 69.3531 238.658 68.95 238.769C68.5469 238.88 68.1988 239.018 67.9056 239.185C67.6307 239.351 67.3925 239.527 67.191 239.712C67.0077 239.878 66.8611 240.026 66.7512 240.156V243.456C66.8428 243.567 66.9803 243.715 67.1635 243.9C67.3467 244.085 67.5849 244.27 67.8781 244.454C68.1713 244.621 68.5194 244.769 68.9225 244.898C69.344 245.009 69.8295 245.065 70.3792 245.065Z" fill="white"/>
<path d="M61.8213 226.232C62.0778 226.232 62.2977 226.288 62.4809 226.399C62.6825 226.491 62.8016 226.593 62.8382 226.704V230.06C62.8016 230.208 62.655 230.402 62.3985 230.642C62.1603 230.883 61.8488 231.003 61.464 231.003H60.9417V230.199H61.354C61.5373 230.199 61.693 230.097 61.8213 229.893V228.534C61.5647 228.534 61.3357 228.479 61.1341 228.368C60.9509 228.257 60.8318 228.155 60.7768 228.063V226.704C60.8318 226.593 60.9509 226.491 61.1341 226.399C61.3357 226.288 61.5647 226.232 61.8213 226.232Z" fill="white"/>
<path d="M52.3767 230.809C53.2196 230.809 53.9617 230.929 54.603 231.169C55.2626 231.391 55.8306 231.678 56.3071 232.029C56.7835 232.38 57.1683 232.769 57.4614 233.194C57.7729 233.619 58.0111 234.026 58.176 234.414V246.035H56.6369V244.427C56.1971 244.944 55.5741 245.407 54.7679 245.814C53.98 246.202 52.9997 246.396 51.827 246.396C51.0574 246.396 50.3886 246.304 49.8206 246.119C49.2525 245.952 48.767 245.749 48.3638 245.508C47.9607 245.25 47.6401 244.991 47.4019 244.732C47.1637 244.454 46.9804 244.233 46.8521 244.066V239.656C46.9438 239.508 47.0995 239.305 47.3194 239.046C47.5576 238.769 47.8691 238.501 48.2539 238.242C48.657 237.983 49.1426 237.761 49.7106 237.576C50.297 237.391 50.9933 237.299 51.7995 237.299H56.6094V234.803C56.4628 234.47 56.2612 234.146 56.0047 233.832C55.7665 233.499 55.4733 233.212 55.1252 232.972C54.777 232.732 54.3739 232.538 53.9158 232.39C53.4578 232.242 52.9447 232.168 52.3767 232.168C51.827 232.168 51.3322 232.242 50.8925 232.39C50.471 232.519 50.0954 232.695 49.7656 232.917C49.4358 233.12 49.1609 233.351 48.941 233.61C48.7211 233.85 48.5562 234.091 48.4463 234.331H47.127V233.416C47.2553 233.231 47.4477 232.991 47.7042 232.695C47.9607 232.399 48.2997 232.112 48.7211 231.835C49.1426 231.558 49.6556 231.317 50.2603 231.114C50.865 230.91 51.5704 230.809 52.3767 230.809ZM52.0469 245.065C53.2196 245.065 54.1907 244.843 54.9603 244.399C55.7482 243.937 56.2979 243.41 56.6094 242.818V238.602H52.0469C51.4971 238.602 51.0207 238.658 50.6176 238.769C50.2145 238.88 49.8664 239.018 49.5732 239.185C49.2983 239.351 49.0601 239.527 48.8586 239.712C48.6753 239.878 48.5287 240.026 48.4188 240.156V243.456C48.5104 243.567 48.6479 243.715 48.8311 243.9C49.0143 244.085 49.2525 244.27 49.5457 244.454C49.8389 244.621 50.187 244.769 50.5901 244.898C51.0116 245.009 51.4971 245.065 52.0469 245.065Z" fill="white"/>
<path d="M38.309 230.836C39.1152 230.836 39.8115 230.947 40.3979 231.169C40.9842 231.373 41.4789 231.632 41.8821 231.946C42.3035 232.242 42.6425 232.556 42.899 232.889C43.1555 233.222 43.3479 233.508 43.4762 233.749V246.035H41.8821V234.165C41.7721 233.98 41.6164 233.776 41.4148 233.555C41.2132 233.314 40.9476 233.102 40.6177 232.917C40.3062 232.713 39.9306 232.547 39.4908 232.417C39.0694 232.269 38.5838 232.196 38.0341 232.196C37.0263 232.196 36.1651 232.38 35.4505 232.75C34.7542 233.102 34.2137 233.518 33.8289 233.998V246.035H32.2622V231.169H33.7739V232.556C34.2503 232.075 34.8642 231.669 35.6154 231.336C36.3667 231.003 37.2645 230.836 38.309 230.836Z" fill="white"/>
<path d="M22.5832 230.809C23.426 230.809 24.1681 230.929 24.8095 231.169C25.4691 231.391 26.0371 231.678 26.5135 232.029C26.99 232.38 27.3747 232.769 27.6679 233.194C27.9794 233.619 28.2176 234.026 28.3825 234.414V246.035H26.8434V244.427C26.4036 244.944 25.7806 245.407 24.9744 245.814C24.1865 246.202 23.2062 246.396 22.0335 246.396C21.2639 246.396 20.5951 246.304 20.027 246.119C19.459 245.952 18.9734 245.749 18.5703 245.508C18.1672 245.25 17.8466 244.991 17.6083 244.732C17.3701 244.454 17.1869 244.233 17.0586 244.066V239.656C17.1503 239.508 17.306 239.305 17.5259 239.046C17.7641 238.769 18.0756 238.501 18.4604 238.242C18.8635 237.983 19.3491 237.761 19.9171 237.576C20.5035 237.391 21.1997 237.299 22.006 237.299H26.8159V234.803C26.6693 234.47 26.4677 234.146 26.2112 233.832C25.973 233.499 25.6798 233.212 25.3317 232.972C24.9835 232.732 24.5804 232.538 24.1223 232.39C23.6643 232.242 23.1512 232.168 22.5832 232.168C22.0335 232.168 21.5387 232.242 21.099 232.39C20.6775 232.519 20.3019 232.695 19.9721 232.917C19.6423 233.12 19.3674 233.351 19.1475 233.61C18.9276 233.85 18.7627 234.091 18.6528 234.331H17.3335V233.416C17.4618 233.231 17.6542 232.991 17.9107 232.695C18.1672 232.399 18.5062 232.112 18.9276 231.835C19.3491 231.558 19.8621 231.317 20.4668 231.114C21.0715 230.91 21.7769 230.809 22.5832 230.809ZM22.2533 245.065C23.426 245.065 24.3972 244.843 25.1668 244.399C25.9547 243.937 26.5044 243.41 26.8159 242.818V238.602H22.2533C21.7036 238.602 21.2272 238.658 20.8241 238.769C20.421 238.88 20.0729 239.018 19.7797 239.185C19.5048 239.351 19.2666 239.527 19.0651 239.712C18.8818 239.878 18.7352 240.026 18.6253 240.156V243.456C18.7169 243.567 18.8543 243.715 19.0376 243.9C19.2208 244.085 19.459 244.27 19.7522 244.454C20.0454 244.621 20.3935 244.769 20.7966 244.898C21.2181 245.009 21.7036 245.065 22.2533 245.065Z" fill="white"/>
<path d="M7.65141 226.26C8.49429 226.26 9.24555 226.362 9.9052 226.565C10.5648 226.75 11.142 227 11.6368 227.314C12.1498 227.61 12.5804 227.952 12.9286 228.34C13.2767 228.71 13.5516 229.071 13.7531 229.422V230.504H12.3239C11.9757 229.69 11.4077 229.024 10.6198 228.507C9.85023 227.971 8.8516 227.702 7.62393 227.702C6.54284 227.702 5.63583 227.924 4.9029 228.368C4.16996 228.812 3.62025 229.339 3.25378 229.949V232.833C3.38205 233.055 3.52864 233.268 3.69355 233.471C3.87678 233.656 4.10583 233.841 4.38068 234.026C4.65553 234.192 4.98535 234.359 5.37014 234.525C5.77326 234.673 6.26799 234.821 6.85434 234.969L8.88825 235.496C9.7861 235.736 10.5282 235.995 11.1145 236.273C11.7192 236.531 12.2048 236.8 12.5713 237.077C12.9561 237.354 13.2584 237.641 13.4783 237.937C13.6982 238.233 13.8905 238.528 14.0555 238.824V242.763C13.8722 243.114 13.6157 243.502 13.2859 243.928C12.9561 244.334 12.5255 244.723 11.9941 245.092C11.481 245.462 10.858 245.777 10.1251 246.035C9.41047 246.276 8.56759 246.396 7.59644 246.396C6.60698 246.396 5.73661 246.276 4.98535 246.035C4.25241 245.777 3.61109 245.462 3.06139 245.092C2.53001 244.723 2.09025 244.325 1.7421 243.9C1.41228 243.475 1.16491 243.095 1 242.763V241.681H2.42923C2.57582 242.069 2.7957 242.467 3.08887 242.874C3.38205 243.262 3.74852 243.613 4.18828 243.928C4.62804 244.223 5.13194 244.473 5.69997 244.676C6.26799 244.861 6.90015 244.954 7.59644 244.954C8.25609 244.954 8.8516 244.871 9.38298 244.704C9.91436 244.519 10.3724 244.297 10.7572 244.038C11.1604 243.78 11.4993 243.493 11.7742 243.179C12.049 242.846 12.2598 242.541 12.4063 242.263V239.462C12.2964 239.222 12.1498 238.991 11.9666 238.769C11.8017 238.547 11.5726 238.334 11.2795 238.131C11.0046 237.909 10.6473 237.706 10.2075 237.521C9.76777 237.336 9.23639 237.16 8.6134 236.994L6.55201 236.467C5.78242 236.282 5.12278 236.088 4.57307 235.884C4.04169 235.662 3.59277 235.431 3.2263 235.191C2.85983 234.932 2.54833 234.664 2.2918 234.387C2.03528 234.091 1.79707 233.776 1.57719 233.444V229.422C1.79707 229.071 2.08108 228.71 2.42923 228.34C2.77738 227.952 3.19881 227.61 3.69355 227.314C4.18828 227 4.75631 226.75 5.39763 226.565C6.05727 226.362 6.80854 226.26 7.65141 226.26Z" fill="white"/>
</svg>
